<svg xmlns="http://www.w3.org/2000/svg" width="43.132" height="43.131" viewBox="0 0 43.132 43.131">
  <g id="instagram_for_lm" data-name="instagram for lm" transform="translate(0 0)">
    <path id="Path_79" data-name="Path 79" d="M25.506,47.043A21.566,21.566,0,1,0,3.94,25.477,21.59,21.59,0,0,0,25.506,47.043Zm0-42.193A20.628,20.628,0,1,1,4.878,25.477,20.651,20.651,0,0,1,25.506,4.849Z" transform="translate(-3.94 -3.911)" fill="#d6b891"/>
    <path id="Path_80" data-name="Path 80" d="M31.474,55.374H43.732A2.678,2.678,0,0,0,46.407,52.7V44.614a.417.417,0,0,0-.417-.417H42.446a.417.417,0,0,0-.371.608A4.968,4.968,0,0,1,42.63,47.1a5.027,5.027,0,0,1-10.054,0A4.965,4.965,0,0,1,33.13,44.8a.417.417,0,0,0-.371-.607H29.215a.417.417,0,0,0-.417.417V52.7A2.678,2.678,0,0,0,31.474,55.374ZM29.632,45.031h2.486a5.789,5.789,0,0,0-.376,2.068,5.861,5.861,0,0,0,11.722,0,5.8,5.8,0,0,0-.376-2.068h2.485V52.7a1.843,1.843,0,0,1-1.841,1.841H31.474A1.843,1.843,0,0,1,29.632,52.7Z" transform="translate(-15.933 -24.901)" fill="#af7513"/>
    <path id="Path_81" data-name="Path 81" d="M58.956,34.89h1.155a1.741,1.741,0,0,0,1.739-1.738V32a1.741,1.741,0,0,0-1.739-1.739H58.956A1.741,1.741,0,0,0,57.217,32v1.155A1.741,1.741,0,0,0,58.956,34.89ZM58.051,32a.906.906,0,0,1,.905-.905h1.155a.906.906,0,0,1,.905.905v1.156a.906.906,0,0,1-.905.9H58.956a.906.906,0,0,1-.905-.9V32Z" transform="translate(-32.505 -16.773)" fill="#af7513"/>
    <path id="Path_82" data-name="Path 82" d="M44.518,49.618a3.861,3.861,0,1,0-3.861-3.861A3.865,3.865,0,0,0,44.518,49.618Zm0-6.888a3.027,3.027,0,1,1-3.027,3.027A3.031,3.031,0,0,1,44.518,42.73Z" transform="translate(-22.848 -23.559)" fill="#af7513"/>
    <path id="Path_83" data-name="Path 83" d="M29.218,45.734H41.476a4.293,4.293,0,0,0,4.288-4.288V29.189A4.293,4.293,0,0,0,41.476,24.9H29.218a4.293,4.293,0,0,0-4.288,4.288V41.447A4.293,4.293,0,0,0,29.218,45.734ZM25.764,29.189a3.458,3.458,0,0,1,3.454-3.454H41.476a3.458,3.458,0,0,1,3.454,3.454V41.447A3.458,3.458,0,0,1,41.476,44.9H29.218a3.458,3.458,0,0,1-3.454-3.454Z" transform="translate(-13.677 -13.649)" fill="#af7513"/>
  </g>
</svg>
