<svg xmlns="http://www.w3.org/2000/svg" width="43.132" height="43.131" viewBox="0 0 43.132 43.131">
  <g id="twitter_for_lm" data-name="twitter for lm" transform="translate(0 0)">
    <path id="Path_84" data-name="Path 84" d="M24.739,47.045A21.566,21.566,0,1,0,3.173,25.479,21.59,21.59,0,0,0,24.739,47.045Zm0-42.193A20.628,20.628,0,1,1,4.111,25.479,20.651,20.651,0,0,1,24.739,4.851Z" transform="translate(-3.173 -3.913)" fill="#d6b891"/>
    <path id="Path_85" data-name="Path 85" d="M25.993,46.527a12.733,12.733,0,0,0,6.888,2.02,12.323,12.323,0,0,0,9.161-3.808,13.253,13.253,0,0,0,3.619-9.307,9.184,9.184,0,0,0,2.072-2.211.469.469,0,0,0-.58-.689q-.329.146-.668.262a4.8,4.8,0,0,0,.723-1.4.469.469,0,0,0-.686-.547,8.2,8.2,0,0,1-2.357.942,4.822,4.822,0,0,0-3.311-1.324,4.8,4.8,0,0,0-4.776,5.272,11.866,11.866,0,0,1-8-4.307.474.474,0,0,0-.4-.171.469.469,0,0,0-.369.232,4.8,4.8,0,0,0,.223,5.172q-.107-.051-.211-.108a.469.469,0,0,0-.7.4,4.786,4.786,0,0,0,1.944,3.917.469.469,0,0,0-.4.61,4.8,4.8,0,0,0,3.24,3.145,8.235,8.235,0,0,1-5.1,1.044.476.476,0,0,0-.5.308A.468.468,0,0,0,25.993,46.527Zm6.951-1.818a.469.469,0,0,0-.28-.838,3.861,3.861,0,0,1-3.309-1.991,4.718,4.718,0,0,0,1.334-.168.469.469,0,0,0-.032-.913,3.893,3.893,0,0,1-3.038-3.092,4.791,4.791,0,0,0,1.419.263.45.45,0,0,0,.461-.326.469.469,0,0,0-.186-.533,3.871,3.871,0,0,1-1.484-4.538,12.8,12.8,0,0,0,8.782,4.14.468.468,0,0,0,.48-.575,3.862,3.862,0,0,1,6.577-3.521.472.472,0,0,0,.433.139,9.129,9.129,0,0,0,1.583-.463,3.892,3.892,0,0,1-1.068.946.469.469,0,0,0,.3.868,9.183,9.183,0,0,0,1.046-.187,8.22,8.22,0,0,1-1.05.9.47.47,0,0,0-.194.4,12.28,12.28,0,0,1-3.351,8.867,11.406,11.406,0,0,1-8.483,3.518,11.8,11.8,0,0,1-4.731-.988A9.215,9.215,0,0,0,32.944,44.709Z" transform="translate(-15.175 -18.01)" fill="#af7513"/>
  </g>
</svg>
