<svg xmlns="http://www.w3.org/2000/svg" width="43.132" height="43.131" viewBox="0 0 43.132 43.131">
  <g id="linkedin_for_lm" data-name="linkedin for lm" transform="translate(0 0)">
    <path id="Path_88" data-name="Path 88" d="M25.327,47.043A21.566,21.566,0,1,0,3.761,25.477,21.59,21.59,0,0,0,25.327,47.043Zm0-42.193A20.628,20.628,0,1,1,4.7,25.477,20.651,20.651,0,0,1,25.327,4.849Z" transform="translate(-3.761 -3.911)" fill="#d6b891"/>
    <path id="Union_14" data-name="Union 14" d="M16.922,21.655a.469.469,0,0,1-.469-.468V13.936c0-2.629-1.4-2.629-1.858-2.629-1.765,0-2.135,1.429-2.135,2.629v7.249a.471.471,0,0,1-.47.47h-4.1a.468.468,0,0,1-.469-.468V7.374a.468.468,0,0,1,.469-.468h4.1a.471.471,0,0,1,.47.468V7.92a5.252,5.252,0,0,1,3.692-1.436c3.439,0,5.495,2.226,5.495,5.956v8.747a.471.471,0,0,1-.47.468Zm.468-7.719v6.781h3.318V12.44c0-3.19-1.661-5.018-4.556-5.018A4.35,4.35,0,0,0,12.4,9.458a.47.47,0,0,1-.882-.223V7.842H8.357V20.717h3.164V13.936c0-2.235,1.148-3.567,3.074-3.567C15.638,10.369,17.39,10.833,17.39,13.936ZM.879,21.655a.469.469,0,0,1-.468-.47V7.374A.469.469,0,0,1,.879,6.9H5.154a.469.469,0,0,1,.47.47V21.185a.469.469,0,0,1-.47.47Zm.47-.938H4.686V7.842H1.349ZM0,3.017A3,3,0,1,1,3,6.034,3.011,3.011,0,0,1,0,3.017Zm.937,0A2.06,2.06,0,1,0,3,.938,2.073,2.073,0,0,0,.937,3.017Z" transform="translate(10.707 9.915)" fill="#af7513"/>
  </g>
</svg>
