<svg xmlns="http://www.w3.org/2000/svg" width="2224.503" height="838.822" viewBox="0 0 2224.503 838.822">
  <g id="Group_12899" data-name="Group 12899" transform="translate(104.769 -4018.779)">
    <path id="Path_1830" data-name="Path 1830" d="M1809.15,336.137h-1.068c-29.98-.606-58.518-8.921-87.228-25.419-25.578-14.694-48.875-34.354-71.408-53.364-33.661-28.393-68.463-57.738-111.131-70.585-27.036-8.127-60.885-6.51-103.466,4.937-37.256,10.018-74.988,25.679-111.478,40.806-24.928,10.335-48.471,20.107-69.1,26.79-100.305,32.55-243.7,36.693-348.709,10.075-16.917-4.287-32.247-8.646-47.071-12.847-31.972-9.079-59.586-16.917-88.873-19.934-31.929-3.277-63.093-.318-98.054,9.31-13.337,3.681-26.574,7.939-39.363,12.067-40.821,13.164-79.39,25.607-123.372,21.233-32.737-3.262-62.386-16.268-91.067-28.84-18.3-8.026-37.241-16.34-57.045-22.2a500.937,500.937,0,0,0-80-17.134,350.769,350.769,0,0,0-81.685-1.025c-11.908,1.328-26.141,6.048-41.225,11.057-33.676,11.172-71.841,23.817-96.119,1.963l-.173-.159.217-.087c59.6-22.532,113.917-32.911,166.04-31.713,54.88,1.256,107.508,15.272,160.873,42.856,25.26,13.049,49.308,21.868,73.5,26.949a247.938,247.938,0,0,0,68.607,4.561c46.537-3.147,94.185-17.957,144.619-33.632,74.771-23.24,126.273-10.364,185.9,4.547,28.191,7.044,57.334,14.333,91.948,18.808,54.721,7.059,113.2,13.453,170.068,12.37,63.122-1.2,117.237-11.418,165.434-31.251,17.422-7.174,35.162-15.344,52.311-23.254,39.363-18.144,80.054-36.895,121.163-45.57,22.142-4.677,42.582-6.106,62.458-4.388a182.707,182.707,0,0,1,64.378,17.856c28.855,13.857,56.093,35.437,82.421,56.28,26.127,20.7,53.148,42.105,82.1,56.367,15.59,7.679,30.442,12.717,45.426,15.4a141.556,141.556,0,0,0,50.535-.043c31.164-5.514,82.19-40.561,136.2-77.687,45.772-31.453,93.117-63.974,137.662-86.044,50.925-25.217,88.628-31.539,115.26-19.328,12.674,5.817,23.038,16.022,30.774,30.356,8.271,15.286,13.857,35.8,16.6,60.928l-.289.043c-4.272-22.229-10.912-40.344-19.76-53.841-8.314-12.673-18.823-21.7-31.265-26.776-14.391-5.889-31.987-6.755-52.3-2.584-18.245,3.739-38.728,11.389-62.631,23.384-44.213,22.171-92.063,55.241-138.355,87.228-68.059,47.028-132.364,91.486-172.261,91.486ZM1500.872,181.4a129.815,129.815,0,0,1,37.53,5.1c42.726,12.847,77.557,42.235,111.232,70.643,22.518,19,45.815,38.641,71.364,53.321,28.667,16.484,57.161,24.784,87.1,25.39h1.054c39.8,0,104.073-44.429,172.1-91.443,46.291-31.987,94.156-65.071,138.384-87.257,23.932-12,44.444-19.66,62.7-23.4,20.367-4.186,38.02-3.306,52.455,2.6,12.5,5.11,23.066,14.16,31.4,26.891,8.4,12.818,14.824,29.793,19.111,50.492-2.858-23.514-8.3-42.784-16.166-57.334-7.722-14.276-18.029-24.438-30.645-30.226-26.559-12.183-64.176-5.86-115.014,19.328-44.531,22.056-91.847,54.577-137.619,86.015-27.685,19.025-53.841,37-77.124,51-26.112,15.7-44.92,24.207-59.2,26.733a142.117,142.117,0,0,1-50.636.043c-15-2.685-29.894-7.737-45.5-15.431-28.985-14.276-56.006-35.7-82.161-56.4-26.314-20.843-53.538-42.409-82.364-56.251a182.525,182.525,0,0,0-64.277-17.827c-19.848-1.718-40.258-.289-62.372,4.374-41.066,8.661-81.757,27.411-121.091,45.555-17.163,7.91-34.9,16.08-52.325,23.254-48.226,19.847-102.384,30.067-165.549,31.265-56.9,1.083-115.39-5.312-170.111-12.37-34.628-4.475-63.786-11.764-91.977-18.808-59.586-14.9-111.059-27.772-185.743-4.561-50.449,15.676-98.111,30.486-144.677,33.647a247.943,247.943,0,0,1-68.679-4.561c-24.221-5.1-48.283-13.915-73.573-26.978-53.321-27.555-105.906-41.557-160.743-42.813-52.022-1.184-106.224,9.137-165.708,31.6,24.163,21.522,62.141,8.935,95.657-2.18,15.1-5.009,29.345-9.729,41.283-11.057a350.6,350.6,0,0,1,81.757,1.025A501.684,501.684,0,0,1,360.8,227.922c19.819,5.875,38.771,14.175,57.074,22.215,28.652,12.572,58.287,25.563,90.981,28.826,43.924,4.374,82.45-8.054,123.256-21.219,12.8-4.128,26.04-8.4,39.377-12.082,35-9.642,66.2-12.6,98.155-9.325,29.316,3.017,56.93,10.855,88.917,19.934,14.824,4.215,30.154,8.56,47.071,12.847,104.953,26.588,248.288,22.446,348.55-10.075,20.613-6.683,44.155-16.455,69.069-26.791,34.8-14.434,74.237-30.789,111.521-40.821,24.885-6.7,46.8-10.032,66.11-10.032Z" transform="translate(-166.289 4521.463)" fill="#af7513" opacity="0.655"/>
    <path id="Path_1831" data-name="Path 1831" d="M1425.995,838.793a460.857,460.857,0,0,1-125.915-18.033c-34.02-9.679-66.453-26.767-97.81-43.292-16.879-8.892-33.994-17.915-51.5-25.836q-10.072-3.777-20.328-7.4c-34.112-12.013-67.83-16.393-106.138-13.81-34.217,2.321-68,9.928-103.765,17.98-11.62,2.623-23.646,5.325-35.856,7.882-77.889,16.328-157.627,19.528-234.742,22.623-10.78.433-21.836.879-32.879,1.351-24.249,2.282-48.59,4.905-72.7,8.2-22.833,3.121-49.023,7.515-76.748,12.184-70.794,11.908-158.9,26.715-240.395,27.817-44.643.6-82.689-2.78-116.328-10.361a283.279,283.279,0,0,1-51.1-16.42A206.128,206.128,0,0,1,15.72,775.8l-.42-.328.525.092c79.817,14.518,162.427,19.292,245.68,19.292s164.119-4.617,245.129-9.141c32-1.8,65.1-3.646,97.1-5.128q6.629-.315,13.285-.59c25.167-2.361,50.256-4.354,74.912-6.308,39.489-3.121,80.315-6.361,120.381-11.069,28.8-3.384,58.413-9.8,89.758-16.6,60.708-13.167,123.476-26.78,180.578-16.931,23.5,4.052,46.151,12.3,68.2,22.282,12.446,4.669,24.682,9.443,36.63,14.125,54.374,21.285,105.731,41.377,166.453,46.623,86.243,7.462,159.948-15.62,237.981-40.066,10.9-3.41,22.177-6.951,33.469-10.387,44.879-13.679,91.725-20.118,137.024-26.361,39.436-5.43,80.2-11.043,119.581-21.39,8.8-2.308,19.1-5.836,30.007-9.561,36.813-12.577,82.623-28.236,112.236-11.908a48.146,48.146,0,0,1,16.315,14.846c4.708,6.754,8.288,15.239,10.675,25.207l.052.21-.21-.053c-81.3-20.944-166.375-8.118-248.644,4.289-12.538,1.889-25.5,3.843-38.125,5.626-51.253,7.226-91.646,25.3-134.414,44.433-26.912,12.039-54.741,24.5-85.81,34.19a396.138,396.138,0,0,1-118.1,17.587Zm-271.687-85.85c16.315,7.541,32.315,15.974,48.092,24.276,31.358,16.525,63.777,33.6,97.758,43.279,83.922,23.882,168.25,24.039,243.87.459,31.043-9.679,58.872-22.138,85.771-34.177,42.781-19.148,83.188-37.233,134.479-44.459,12.63-1.784,25.587-3.738,38.125-5.626,82.23-12.394,167.253-25.22,248.539-4.341-2.374-9.849-5.928-18.229-10.584-24.9a48.008,48.008,0,0,0-16.223-14.767c-29.508-16.275-75.266-.629-112.027,11.921-10.911,3.725-21.207,7.253-30.02,9.561-39.4,10.361-80.171,15.974-119.607,21.4-45.3,6.23-92.132,12.682-136.984,26.348-11.292,3.436-22.571,6.977-33.469,10.387-67.882,21.259-132.512,41.5-204.971,41.5-10.846,0-21.863-.459-33.115-1.43-60.761-5.259-112.132-25.364-166.532-46.649-10.833-4.236-21.875-8.564-33.1-12.8ZM16.323,775.92a205.5,205.5,0,0,0,43.594,25.508,283.17,283.17,0,0,0,51.056,16.393c33.613,7.58,71.646,10.964,116.263,10.361,81.482-1.1,169.575-15.921,240.355-27.816,27.725-4.656,53.915-9.062,76.748-12.184,22.413-3.056,45.023-5.547,67.567-7.711-2.715.118-5.43.249-8.131.367-32.013,1.482-65.1,3.344-97.1,5.128-163.345,9.141-332.251,18.6-490.337-10.059Zm1024.556-49.928c-45.154,0-92.538,10.269-138.729,20.289-31.357,6.793-60.971,13.22-89.784,16.6-40.079,4.708-80.905,7.935-120.394,11.069-22.951,1.823-46.256,3.659-69.666,5.823,9.3-.393,18.558-.761,27.633-1.128,77.1-3.095,156.827-6.308,234.69-22.623,12.21-2.557,24.223-5.259,35.856-7.882,35.777-8.053,69.561-15.659,103.8-17.98,38.348-2.6,72.105,1.8,106.243,13.823q8.3,2.931,16.5,5.967c-20.853-9.22-42.256-16.774-64.394-20.59a245.771,245.771,0,0,0-41.744-3.357Z" transform="translate(26.416 3333.343)" fill="#b19065"/>
  </g>
</svg>
