<svg xmlns="http://www.w3.org/2000/svg" width="652.713" height="626.211" viewBox="0 0 652.713 626.211">
  <g id="Group_12893" data-name="Group 12893" transform="translate(784.142 -151.586) rotate(50)" opacity="0.242" style="mix-blend-mode: lighten;isolation: isolate">
    <g id="Group_10715" data-name="Group 10715" transform="translate(-111.479 368.682)">
      <g id="Group_10696" data-name="Group 10696">
        <g id="Group_10695" data-name="Group 10695">
          <g id="Group_10694" data-name="Group 10694">
            <g id="Group_10693" data-name="Group 10693">
              <g id="Group_10692" data-name="Group 10692">
                <g id="Group_10691" data-name="Group 10691">
                  <path id="Path_1704" data-name="Path 1704" d="M17.887,382.212c3.97,5.248,7.761,10.7,11.38,16.262s7.118,11.233,10.437,17.011q9.989,17.311,18.309,35.588,8.328,18.238,15.057,37.188c4.258,11.989,7.924,24.192,11.248,36.5-.68,7.312-1.589,14.637-2.635,21.929-1.464,9.852-3.133,19.7-5.3,29.445-.48,2.451-1.067,4.872-1.652,7.3s-1.106,4.869-1.763,7.276c-1.311,4.809-2.513,9.664-4.039,14.415-2.649,9.172-5.967,18.111-9.446,26.995a2.606,2.606,0,0,0-.935.1,268.926,268.926,0,0,0-30.188,10.457A311.821,311.821,0,0,0-.426,656.238a285.516,285.516,0,0,0-27.153,16.544,236.918,236.918,0,0,0-24.869,19.836l-2.925,2.7c-.987.891-1.945,1.8-2.86,2.765l-5.589,5.681c-3.527,3.969-7.154,7.863-10.379,12.1-1.664,2.074-3.348,4.129-4.838,6.34-1.528,2.18-3.1,4.329-4.594,6.533-2.8,4.526-5.731,8.982-8.138,13.743-2.674,4.624-4.709,9.567-6.979,14.4-.994,2.471-1.908,4.984-2.866,7.477l-1.414,3.751-1.168,3.832c-.769,2.56-1.583,5.106-2.306,7.678l-1.807,7.826c-.29,1.305-.618,2.6-.879,3.916l-.633,3.961-1.261,7.936-.029.2-.367,2.282,2.351-.022a102.441,102.441,0,0,0,17.4-1.846,146.981,146.981,0,0,0,16.847-4.155,168.058,168.058,0,0,0,31.824-13.709c20.262-11.259,38-26.745,52.911-44.416,15.533-18.383,27.754-39.3,37.781-61.051,1.535-3.351,2.929-6.743,4.369-10.079.709-1.672,1.433-3.333,2.094-5q.91-2.539,1.806-5.049c1.159-3.356,2.276-6.678,3.19-10,.819-3.348,1.5-6.671,2.015-9.96,1.6-10.379-4.234-7.313-7.741,3.883a324.248,324.248,0,0,1-23.505,55.349c-1.165,2.219-2.5,4.339-3.746,6.513-1.289,2.143-2.48,4.356-3.851,6.446l-4.108,6.286c-.693,1.037-1.344,2.11-2.074,3.127l-2.2,3.031c-1.474,2.02-2.92,4.059-4.423,6.057l-4.7,5.835c-1.529,1.981-3.207,3.827-4.872,5.687-1.691,1.834-3.26,3.785-5.047,5.529a179.56,179.56,0,0,1-47.416,35.857,158.381,158.381,0,0,1-27.6,11.03,144.718,144.718,0,0,1-14.436,3.392l-3.645.585-3.652.463c-.939.1-1.9.186-2.851.262l.849-5.578c.136-.826.225-1.658.4-2.476l.555-2.445,1.092-4.9.76-3.4c.284-1.132.655-2.239.981-3.362q1.009-3.358,2.027-6.743c.674-2.258,1.631-4.429,2.44-6.659l1.265-3.328.645-1.664.746-1.628q1.5-3.253,3-6.516l.762-1.634.859-1.585,1.725-3.171c2.189-4.3,4.884-8.338,7.45-12.461,1.317-2.04,2.805-3.974,4.2-5.972l2.124-2.978c.742-.964,1.529-1.908,2.285-2.866,1.545-1.893,3.036-3.835,4.617-5.7l4.9-5.483a227.023,227.023,0,0,1,21.382-20.256c7.583-6.252,15.476-12.083,23.576-17.511C-8,666.072.327,661.1,8.706,656.462s16.844-8.917,25.287-12.888S50.781,635.926,59.26,632.7c-.085.221-.169.443-.258.664a.17.17,0,1,0,.308.141c4.456-8.937,8.874-17.992,12.544-27.4,1.972-4.65,3.617-9.426,5.356-14.19.869-2.384,1.583-4.809,2.375-7.219s1.568-4.832,2.227-7.28a265.249,265.249,0,0,0,6.89-29.7c.166-1,.313-2.007.468-3.006.116.521.224,1.046.34,1.563,1.54,6.542,2.645,13.167,3.924,19.76,2.223,13.251,4.177,26.569,5.357,39.978a556.131,556.131,0,0,1,1.731,80.746.688.688,0,0,0,.056.306,320.725,320.725,0,0,0-42.151,51.047A296.418,296.418,0,0,0,41.46,766.8a256.836,256.836,0,0,0-13.254,30.585,198.626,198.626,0,0,0-8.6,32.242l-.723,4.118-.361,2.061-.244,2.077-.954,8.313c-.215,2.783-.31,5.572-.475,8.358-.047,1.394-.2,2.79-.165,4.185l.056,4.19.052,4.191.03,2.1.171,2.09.673,8.362c.277,2.783.8,5.539,1.189,8.309l.628,4.155c.273,1.37.607,2.731.905,4.1l1.87,8.2,2.437,8.048c.417,1.337.792,2.689,1.242,4.018l1.509,3.927,3.018,7.861.7,1.8,1.856-.757c2.23-.9,4.281-1.907,6.394-2.924a175.3,175.3,0,0,0,16.183-9.244c5.2-3.4,10.261-7.015,15.11-10.908a168.35,168.35,0,0,0,26.371-26.364A151.012,151.012,0,0,0,116.649,848a154.208,154.208,0,0,0,11.113-35.84,176.614,176.614,0,0,0,2.108-38.849l-.729-9.7c-.341-3.224-.885-6.417-1.321-9.63l-.687-4.813c-.27-1.6-.644-3.168-.967-4.756l-1.991-9.5c-.929-3.87-2.038-7.662-3.046-11.459-.532-1.882-.993-3.784-1.6-5.625q-.968-2.739-1.931-5.45c-1.322-3.589-2.613-7.144-4.139-10.526-1.625-3.338-3.329-6.571-5.152-9.653-5.74-9.712-8.092-3.255-3.263,8.373,8.224,20.543,14.428,41.979,16.925,63.882l.678,8.229c.1,1.373.248,2.74.318,4.115l.046,4.121c.02,2.748.095,5.5.07,8.239l-.493,8.218a79.343,79.343,0,0,1-.869,8.175l-.542,4.072c-.1.678-.164,1.362-.284,2.034l-.42,2.012-1.678,8.042-2.24,7.9a144.82,144.82,0,0,1-13.167,29.973,148.342,148.342,0,0,1-19.6,26.288A170.531,170.531,0,0,1,59.116,907.6a163.428,163.428,0,0,1-13.768,9.017c-1.169.712-2.365,1.378-3.567,2.04s-2.4,1.317-3.616,1.939c-1.261.658-2.565,1.311-3.858,1.923L33.013,919.2c-.851-2.286-1.886-4.511-2.532-6.869a158.6,158.6,0,0,1-7.873-60.555l.214-3.913c.075-1.3.29-2.6.426-3.906.326-2.6.584-5.211.957-7.81l1.383-7.771.341-1.948.449-1.925.905-3.848a211.665,211.665,0,0,1,9.558-30.2A290.463,290.463,0,0,1,50.1,761.776c4.945-9.25,10.272-18.217,15.863-26.876S77.4,717.884,83.39,709.842c6.01-8.049,12.074-15.789,18.482-23.145.726-.815.153-.873-.641-.241a568.082,568.082,0,0,0,3.712-80.874c-.28-13.634-1.373-27.263-2.8-40.883-.886-6.783-1.611-13.611-2.791-20.367-.571-3.381-1.026-6.79-1.7-10.156l-1.968-10.119c-2.7-12.749-5.863-25.437-9.7-37.941,2.259,1.7,4.5,3.442,6.7,5.215a193.747,193.747,0,0,1,15.046,13.452,129.546,129.546,0,0,1,24.05,31.648c-1.647.321-3.53,4.471-4.068,11.322a302.247,302.247,0,0,0,1.595,59.717l1.156,7.409.577,3.706.75,3.679,1.519,7.348c.556,2.44,1.242,4.848,1.852,7.278,1.146,4.877,2.843,9.608,4.3,14.4l2.61,7.057c.828,2.367,1.832,4.676,2.83,6.972,1.895,4.653,4.19,9.126,6.4,13.634l3.656,6.6c1.19,2.213,2.61,4.3,3.906,6.451a179.416,179.416,0,0,0,18.178,24.066,171.383,171.383,0,0,0,22.077,20.618c4,3.072,8.132,6,12.42,8.695,2.15,1.342,4.33,2.639,6.565,3.861,2.266,1.238,4.448,2.364,7.005,3.471l4.345,1.885.694-4.686,1.723-11.626c.263-1.94.631-3.871.8-5.826l.579-5.858a273.531,273.531,0,0,0,.171-58.336,178.459,178.459,0,0,0-16.193-57.98A142.644,142.644,0,0,0,181.026,563.4,131.068,131.068,0,0,0,157.4,547.593a112.126,112.126,0,0,0-12.509-5.611,90.2,90.2,0,0,0-11.16-3.454c-.4-1.278-.938-1.981-1.526-2.11a122.224,122.224,0,0,0-20.433-35.482,124.1,124.1,0,0,0-14.61-15.113,112.5,112.5,0,0,0-14.819-10.988c-3.406-10.006-7.19-19.9-11.4-29.615A350.312,350.312,0,0,0,52.25,408.144q-5.215-9-11.07-17.632c-3.883-5.765-7.99-11.384-12.391-16.842-4.449-5.5-9.572-6.017-12.024-3.65S13.868,376.923,17.887,382.212Zm116.1,157.252A126.876,126.876,0,0,1,159.9,552.619a148.014,148.014,0,0,1,23.8,19.436,151.7,151.7,0,0,1,33.144,51.483,194.254,194.254,0,0,1,8.61,29.633l1.279,7.626.644,3.815.423,3.847.843,7.692c.215,2.569.293,5.152.443,7.731a283.685,283.685,0,0,1-4.106,61.835l-.079.526a112.462,112.462,0,0,1-11.616-6.707,141.375,141.375,0,0,1-13.022-9.623,161.455,161.455,0,0,1-22.787-22.934A181.6,181.6,0,0,1,146.524,650.6a234.827,234.827,0,0,1-8.437-33.283c-.79-5.684-1.809-11.328-2.226-17.06-.244-2.86-.634-5.7-.75-8.573l-.4-8.6-.12-2.642c-.022-.879,0-1.761,0-2.638q.013-2.64.023-5.251t-.011-5.2c-.019-1.725.1-3.442.123-5.145.075-3.409.079-6.783-.032-10.1.026-3.32-.047-6.592-.3-9.819A19.889,19.889,0,0,0,133.988,539.464Z" transform="translate(111.479 -368.682)" fill="#d6b891"/>
                </g>
              </g>
            </g>
          </g>
        </g>
      </g>
      <g id="Group_10702" data-name="Group 10702" transform="translate(263.226 197.831)">
        <g id="Group_10701" data-name="Group 10701">
          <g id="Group_10700" data-name="Group 10700">
            <g id="Group_10699" data-name="Group 10699">
              <g id="Group_10698" data-name="Group 10698">
                <g id="Group_10697" data-name="Group 10697">
                  <path id="Path_1705" data-name="Path 1705" d="M75.346,506.645A6.187,6.187,0,0,1,78.82,508.7c18.326,19.891,30.427,44.4,38.433,69.671,7.722,25.444,11.167,51.82,11.424,77.908.013.32-.306.333-.339.017a288.459,288.459,0,0,0-16.347-76.082,259.071,259.071,0,0,0-16.269-35.222,192.719,192.719,0,0,0-22-31.608,6.117,6.117,0,0,1-1.652-3.371,3.109,3.109,0,0,1,.754-2.555A2.87,2.87,0,0,1,75.346,506.645Z" transform="translate(-72.044 -506.611)" fill="#d6b891"/>
                </g>
              </g>
            </g>
          </g>
        </g>
      </g>
      <g id="Group_10708" data-name="Group 10708" transform="translate(155.745 348.213)">
        <g id="Group_10707" data-name="Group 10707" transform="translate(0)">
          <g id="Group_10706" data-name="Group 10706">
            <g id="Group_10705" data-name="Group 10705">
              <g id="Group_10704" data-name="Group 10704">
                <g id="Group_10703" data-name="Group 10703">
                  <path id="Path_1706" data-name="Path 1706" d="M54.94,617.463a346.749,346.749,0,0,1-6.827,45.067c-1.556,7.438-3.471,14.8-5.412,22.143l-3.2,10.934c-1.033,3.653-2.344,7.225-3.51,10.836l-1.8,5.394c-.611,1.793-1.322,3.556-1.975,5.334L28.184,727.8l-4.439,10.455c-.75,1.734-1.452,3.491-2.245,5.208l-2.441,5.116c-1.638,3.4-3.221,6.823-4.9,10.2l-5.343,9.958-2.666,4.967L3.24,778.532l-5.789,9.64c-.189.317-.459.156-.29-.168l5.192-9.954,2.6-4.968c.81-1.689,1.563-3.4,2.351-5.1l4.683-10.2c1.454-3.449,2.817-6.942,4.233-10.4l2.114-5.2c.674-1.743,1.265-3.524,1.912-5.284l3.794-10.575,3.4-10.714c.555-1.791,1.169-3.559,1.681-5.363l1.526-5.409c.984-3.617,2.121-7.189,2.993-10.836l2.75-10.9c1.667-7.308,3.356-14.605,4.762-21.962,2.871-14.693,5.3-29.493,6.886-44.293.4-3.706,2.2-5.467,3.908-5.376S55.247,613.588,54.94,617.463Z" transform="translate(2.892 -611.458)" fill="#d6b891"/>
                </g>
              </g>
            </g>
          </g>
        </g>
      </g>
      <g id="Group_10714" data-name="Group 10714" transform="translate(33.753 294.302)">
        <g id="Group_10713" data-name="Group 10713">
          <g id="Group_10712" data-name="Group 10712">
            <g id="Group_10711" data-name="Group 10711">
              <g id="Group_10710" data-name="Group 10710">
                <g id="Group_10709" data-name="Group 10709">
                  <path id="Path_1707" data-name="Path 1707" d="M19.823,576.425c1.925-2.625,4.241-3.034,5.665-2.1s1.908,3.295,0,6.086A351.4,351.4,0,0,1,1.111,611.748c-8.676,9.993-17.788,19.61-27.372,28.726l-3.564,3.439-3.662,3.345-7.339,6.642c-5.05,4.264-9.951,8.662-15.158,12.7-10.161,8.373-20.906,15.946-31.651,23.369-.26.185-.442-.075-.2-.274,10.215-8.127,20.315-16.407,29.808-25.409,4.869-4.35,9.433-9.048,14.148-13.573l6.849-7.019,3.424-3.511,3.338-3.593c8.974-9.511,17.574-19.374,25.939-29.406C4.02,597.142,12.159,586.909,19.823,576.425Z" transform="translate(87.946 -573.871)" fill="#d6b891"/>
                </g>
              </g>
            </g>
          </g>
        </g>
      </g>
    </g>
    <g id="Group_10723" data-name="Group 10723" transform="translate(-9.615 665.812)">
      <g id="Group_10722" data-name="Group 10722">
        <g id="Group_10721" data-name="Group 10721">
          <g id="Group_10720" data-name="Group 10720">
            <g id="Group_10719" data-name="Group 10719">
              <g id="Group_10718" data-name="Group 10718">
                <g id="Group_10717" data-name="Group 10717">
                  <g id="Group_10716" data-name="Group 10716">
                    <path id="Path_1708" data-name="Path 1708" d="M-15.339,578.872a10.117,10.117,0,0,0-1.031-.961,7.761,7.761,0,0,0-.991-.67,8.96,8.96,0,0,0-2.067-.9,12.81,12.81,0,0,0-3.893-.5,22.481,22.481,0,0,0-6.516,1.2,56.478,56.478,0,0,0-5.594,2.213,31.215,31.215,0,0,1-4.978,1.935c-.033.009-.073.326-.033.334a10.542,10.542,0,0,0,2.718.532c1,.092,2.024.141,3.049.185l6.076.238a53.016,53.016,0,0,1,5.39.459,13.123,13.123,0,0,1,1.931.432,5.506,5.506,0,0,1,.61.224c.1.023.148.076.232.1s.013-.02.066-.056C-19.738,584.162-14.636,579.792-15.339,578.872Z" transform="translate(40.459 -575.843)" fill="#d6b891"/>
                  </g>
                </g>
              </g>
            </g>
          </g>
        </g>
      </g>
    </g>
    <g id="Group_10731" data-name="Group 10731" transform="translate(-36.153 678.747)">
      <g id="Group_10730" data-name="Group 10730">
        <g id="Group_10729" data-name="Group 10729">
          <g id="Group_10728" data-name="Group 10728">
            <g id="Group_10727" data-name="Group 10727">
              <g id="Group_10726" data-name="Group 10726">
                <g id="Group_10725" data-name="Group 10725">
                  <g id="Group_10724" data-name="Group 10724">
                    <path id="Path_1709" data-name="Path 1709" d="M-22.924,585.587c-.384-.1-.68-.221-1.133-.306l-1.439-.209c-.47-.059-.993-.135-1.433-.159l-1.271-.034a21.115,21.115,0,0,0-2.5.047c-.82.05-1.639.1-2.427.219a75.95,75.95,0,0,0-9.215,1.781c-2.565.742-5.759,1.023-9.083,2.39a17.11,17.11,0,0,0-2.434,1.246l-.02.014-.224.135-.009.007-.029.026-.053.044-.106.1-.214.186-.43.381c-.284.247-.571.511-.858.79l-.851.818-.734.641a3.322,3.322,0,0,1-.766.561l-.793.508c-.057.033.029.338.09.318a12.665,12.665,0,0,0,4.017-1.45c.684-.357,1.4-.648,2.1-.958a12.78,12.78,0,0,1,2.235-.423c2.989-.326,5.929.274,9.241.139,3.021-.011,6.106-.139,8.96-.206.729-.04,1.43-.032,2.12-.037.713-.033,1.391-.03,2.051-.007h1c.317,0,.545.042.819.047s.531.011.8,0c.29.006.723.109,1.08.151C-22.911,592.573-21.451,586.021-22.924,585.587Z" transform="translate(58.961 -584.861)" fill="#d6b891"/>
                  </g>
                </g>
              </g>
            </g>
          </g>
        </g>
      </g>
    </g>
    <g id="Group_10737" data-name="Group 10737" transform="translate(-51.757 694.088)">
      <g id="Group_10736" data-name="Group 10736">
        <g id="Group_10735" data-name="Group 10735">
          <g id="Group_10734" data-name="Group 10734">
            <g id="Group_10733" data-name="Group 10733">
              <g id="Group_10732" data-name="Group 10732">
                <path id="Path_1710" data-name="Path 1710" d="M-30.041,602.288l.141-.194-2.793-5.488c-2.348-.247-4.71-.409-7.06-.541q-3.462-.331-6.942-.485l-.488-.022-.011,0A33.061,33.061,0,0,0-59.445,598.9c-3.679,1.725-6.933,3.721-10.373,5.27-.063.03.022.336.1.318,3.768-.512,7.679-1.48,11.542-2.1A38.5,38.5,0,0,1-47.032,602l-.39-.017c2.405.522,4.842.971,7.293,1.3a58.91,58.91,0,0,0,7.252.277l1.918-.04Z" transform="translate(69.84 -595.557)" fill="#d6b891"/>
              </g>
            </g>
          </g>
        </g>
      </g>
    </g>
    <g id="Group_10745" data-name="Group 10745" transform="translate(-64.863 711.958)">
      <g id="Group_10744" data-name="Group 10744">
        <g id="Group_10743" data-name="Group 10743">
          <g id="Group_10742" data-name="Group 10742">
            <g id="Group_10741" data-name="Group 10741">
              <g id="Group_10740" data-name="Group 10740">
                <g id="Group_10739" data-name="Group 10739">
                  <g id="Group_10738" data-name="Group 10738">
                    <path id="Path_1711" data-name="Path 1711" d="M-46.659,608.108c.185-.182-.142-.042-.38-.009a4.051,4.051,0,0,0-.439.065l-.525.026a15.24,15.24,0,0,1-2.361-.126l-.192-.026-.333,0a49.2,49.2,0,0,0-14.991,2.309,32.607,32.607,0,0,0-13.088,8.031c-.056.05.138.3.207.267a31.387,31.387,0,0,1,14.046-3.688c4.743-.221,9.36.228,14.053.326l-.519-.02a15.6,15.6,0,0,0,3.956.11l1.056-.155,1.116-.294a8.543,8.543,0,0,0,2.566-1.291,1.7,1.7,0,0,0,.415-.414c.1-.146.047-.219.05-.349a2.434,2.434,0,0,0-.285-.809,8.945,8.945,0,0,0-1.4-1.9,9.054,9.054,0,0,0-1.813-1.528,2.677,2.677,0,0,0-.793-.336c-.1-.039-.255.006-.3-.053A.221.221,0,0,1-46.659,608.108Z" transform="translate(78.978 -608.016)" fill="#d6b891"/>
                  </g>
                </g>
              </g>
            </g>
          </g>
        </g>
      </g>
    </g>
    <g id="Group_10753" data-name="Group 10753" transform="translate(-78.002 730.436)">
      <g id="Group_10752" data-name="Group 10752">
        <g id="Group_10751" data-name="Group 10751">
          <g id="Group_10750" data-name="Group 10750">
            <g id="Group_10749" data-name="Group 10749">
              <g id="Group_10748" data-name="Group 10748">
                <g id="Group_10747" data-name="Group 10747">
                  <g id="Group_10746" data-name="Group 10746">
                    <path id="Path_1712" data-name="Path 1712" d="M-57.682,620.926a74.519,74.519,0,0,0-8.049.174,42.168,42.168,0,0,0-4.267.641l-.271.052-.165.033-.057.02-.122.03-.48.135-.96.265a17.7,17.7,0,0,0-2.151.776l-1.123.473c-.357.163-.651.337-.975.508-.622.342-1.3.676-1.86,1.046-1.189.724-2.3,1.447-3.388,2.17a44.563,44.563,0,0,1-6.568,3.743c-.056.024.017.333.079.327a45.872,45.872,0,0,0,7.851-1.3,63.376,63.376,0,0,1,7.679-1.651A17.774,17.774,0,0,1-70.7,628.2l1.007-.053.5-.027c.049.006.252-.032.168.006l.24,0c1.268.056,2.435-.021,3.716.034a49.415,49.415,0,0,0,7.847-.331C-55.9,627.652-56.345,620.955-57.682,620.926Z" transform="translate(88.139 -620.899)" fill="#d6b891"/>
                  </g>
                </g>
              </g>
            </g>
          </g>
        </g>
      </g>
    </g>
    <g id="Group_10759" data-name="Group 10759" transform="translate(-90.488 744.766)">
      <g id="Group_10758" data-name="Group 10758">
        <g id="Group_10757" data-name="Group 10757">
          <g id="Group_10756" data-name="Group 10756">
            <g id="Group_10755" data-name="Group 10755">
              <g id="Group_10754" data-name="Group 10754">
                <path id="Path_1713" data-name="Path 1713" d="M-64.906,637.71l.248-.34-1.883-5.179a18.323,18.323,0,0,0-9.412-1.126,25.454,25.454,0,0,0-8.527,2.781A32.662,32.662,0,0,0-96.84,645.411c-.04.059.2.26.257.215a33.206,33.206,0,0,1,14.366-6.74,29.692,29.692,0,0,1,13.383-.1l2.645.671Z" transform="translate(96.844 -630.89)" fill="#d6b891"/>
              </g>
            </g>
          </g>
        </g>
      </g>
    </g>
    <g id="Group_10765" data-name="Group 10765" transform="translate(-92.519 760.718)">
      <g id="Group_10764" data-name="Group 10764">
        <g id="Group_10763" data-name="Group 10763">
          <g id="Group_10762" data-name="Group 10762">
            <g id="Group_10761" data-name="Group 10761">
              <g id="Group_10760" data-name="Group 10760">
                <path id="Path_1714" data-name="Path 1714" d="M-75.129,643.759l-7.067-1.747a13.312,13.312,0,0,0-1.962,1.514,69.714,69.714,0,0,0-7.533,6.034c-2.334,2.457-4.509,5.049-6.566,7.673-.027.039.184.274.227.25,3.006-1.575,6.176-2.868,9.208-4.2a53.46,53.46,0,0,0,9.015-3.98l.637-.558,1.338-.958A6.6,6.6,0,0,0-75.129,643.759Z" transform="translate(98.26 -642.012)" fill="#d6b891"/>
              </g>
            </g>
          </g>
        </g>
      </g>
    </g>
    <g id="Group_10773" data-name="Group 10773" transform="translate(-67.491 768.506)">
      <g id="Group_10772" data-name="Group 10772">
        <g id="Group_10771" data-name="Group 10771">
          <g id="Group_10770" data-name="Group 10770">
            <g id="Group_10769" data-name="Group 10769">
              <g id="Group_10768" data-name="Group 10768">
                <g id="Group_10767" data-name="Group 10767">
                  <g id="Group_10766" data-name="Group 10766">
                    <path id="Path_1715" data-name="Path 1715" d="M-74.617,647.458c-3.2,2.434-4.981,6.116-6.193,10.214-.009.032.232.232.254.22,3.9-1.839,9.306-2.444,11.228-5.968C-69.087,651.481-74.212,647.149-74.617,647.458Z" transform="translate(80.81 -647.442)" fill="#d6b891"/>
                  </g>
                </g>
              </g>
            </g>
          </g>
        </g>
      </g>
    </g>
    <g id="Group_10781" data-name="Group 10781" transform="translate(-50.736 757.205)">
      <g id="Group_10780" data-name="Group 10780">
        <g id="Group_10779" data-name="Group 10779">
          <g id="Group_10778" data-name="Group 10778">
            <g id="Group_10777" data-name="Group 10777">
              <g id="Group_10776" data-name="Group 10776">
                <g id="Group_10775" data-name="Group 10775">
                  <g id="Group_10774" data-name="Group 10774">
                    <path id="Path_1716" data-name="Path 1716" d="M-62.019,639.728l-.415,1.036-.2.513-.2.35c-.131.232-.247.473-.359.708l-.152.362-.227.417c-.585,1.179-1.168,2.357-1.758,3.544-1.221,2.463-2.544,5.12-3.8,7.927-.013.037.227.238.257.22,2.586-1.678,5.536-3.029,8.163-5.023A16.547,16.547,0,0,0-57.2,646.23l.369-.521.338-.631c.215-.429.416-.862.6-1.308l.262-.67c.057-.195.093-.367.133-.548.077-.364.142-.729.185-1.1C-55.224,640.7-61.725,639.032-62.019,639.728Z" transform="translate(69.128 -639.562)" fill="#d6b891"/>
                  </g>
                </g>
              </g>
            </g>
          </g>
        </g>
      </g>
    </g>
    <g id="Group_10789" data-name="Group 10789" transform="translate(-34.323 745.127)">
      <g id="Group_10788" data-name="Group 10788">
        <g id="Group_10787" data-name="Group 10787">
          <g id="Group_10786" data-name="Group 10786">
            <g id="Group_10785" data-name="Group 10785">
              <g id="Group_10784" data-name="Group 10784">
                <g id="Group_10783" data-name="Group 10783">
                  <g id="Group_10782" data-name="Group 10782">
                    <path id="Path_1717" data-name="Path 1717" d="M-52.781,631.438l-.288,1.123-.129.565-.145.46c-.214.611-.307,1.176-.515,1.837s-.354,1.325-.541,1.989c-.207.661-.374,1.341-.549,2.022a66.348,66.348,0,0,1-2.737,8.262c-.014.033.229.238.257.215a35.459,35.459,0,0,0,7.615-6.3c.551-.657,1.059-1.345,1.558-2.057a18.3,18.3,0,0,0,1.242-2.263,13.866,13.866,0,0,0,.848-2.586c.056-.218.109-.45.142-.664l.065-.574c.032-.384.047-.767.05-1.155C-45.915,631.526-52.573,630.68-52.781,631.438Z" transform="translate(57.685 -631.142)" fill="#d6b891"/>
                  </g>
                </g>
              </g>
            </g>
          </g>
        </g>
      </g>
    </g>
    <g id="Group_10795" data-name="Group 10795" transform="translate(-19.465 733.735)">
      <g id="Group_10794" data-name="Group 10794">
        <g id="Group_10793" data-name="Group 10793">
          <g id="Group_10792" data-name="Group 10792">
            <g id="Group_10791" data-name="Group 10791">
              <g id="Group_10790" data-name="Group 10790">
                <path id="Path_1718" data-name="Path 1718" d="M-37.9,624.7a9.413,9.413,0,0,0-1.872-1.5l-3.249,1.928a21.776,21.776,0,0,0-2.107,3.051,27.207,27.207,0,0,0-1.282,3.23c-.288,1.106-.519,2.225-.7,3.339-.123,1.137-.191,2.275-.221,3.4a.6.6,0,0,0,.318.1c2.8-3.546,7.236-6.226,9.542-8.431l2.355-2.259Z" transform="translate(47.326 -623.199)" fill="#d6b891"/>
              </g>
            </g>
          </g>
        </g>
      </g>
    </g>
    <g id="Group_10803" data-name="Group 10803" transform="translate(-2.094 718.845)">
      <g id="Group_10802" data-name="Group 10802">
        <g id="Group_10801" data-name="Group 10801">
          <g id="Group_10800" data-name="Group 10800">
            <g id="Group_10799" data-name="Group 10799">
              <g id="Group_10798" data-name="Group 10798">
                <g id="Group_10797" data-name="Group 10797">
                  <g id="Group_10796" data-name="Group 10796">
                    <path id="Path_1719" data-name="Path 1719" d="M-35.041,617.1l.258.468a1.429,1.429,0,0,0-.046.143.249.249,0,0,0,0,.112,2.05,2.05,0,0,0,.04.28,3.565,3.565,0,0,1,.1.588,4.136,4.136,0,0,1,.075.67,26.09,26.09,0,0,1,.047,3.319c-.089,2.489-.394,5.3-.65,8.247a.556.556,0,0,0,.311.126c1.875-2.3,4.191-4.451,5.822-7.348a11.416,11.416,0,0,0,1.535-4.986,6.413,6.413,0,0,0-.043-1.466,6.567,6.567,0,0,0-.326-1.517l-.262-.763a9.188,9.188,0,0,0-.463-.873c-.168-.288-.353-.568-.538-.841-.133-.148-.254-.265-.383-.394C-30.085,612.351-35.4,616.46-35.041,617.1Z" transform="translate(35.215 -612.817)" fill="#d6b891"/>
                  </g>
                </g>
              </g>
            </g>
          </g>
        </g>
      </g>
    </g>
    <g id="Group_10811" data-name="Group 10811" transform="translate(11.694 705.128)">
      <g id="Group_10810" data-name="Group 10810">
        <g id="Group_10809" data-name="Group 10809">
          <g id="Group_10808" data-name="Group 10808">
            <g id="Group_10807" data-name="Group 10807">
              <g id="Group_10806" data-name="Group 10806">
                <g id="Group_10805" data-name="Group 10805">
                  <g id="Group_10804" data-name="Group 10804">
                    <path id="Path_1720" data-name="Path 1720" d="M-25.279,603.68c-.97,5.216.491,9.765,1.168,14.531a.654.654,0,0,0,.33.078,41.98,41.98,0,0,0,4.039-7.084,19.3,19.3,0,0,0,1.242-3.791,10.266,10.266,0,0,0,.141-3.645C-18.449,603.148-25.162,603.054-25.279,603.68Z" transform="translate(25.602 -603.254)" fill="#d6b891"/>
                  </g>
                </g>
              </g>
            </g>
          </g>
        </g>
      </g>
    </g>
    <g id="Group_10819" data-name="Group 10819" transform="translate(56.157 732.633)">
      <g id="Group_10818" data-name="Group 10818" transform="translate(0)">
        <g id="Group_10817" data-name="Group 10817">
          <g id="Group_10816" data-name="Group 10816">
            <g id="Group_10815" data-name="Group 10815">
              <g id="Group_10814" data-name="Group 10814">
                <g id="Group_10813" data-name="Group 10813">
                  <g id="Group_10812" data-name="Group 10812">
                    <path id="Path_1721" data-name="Path 1721" d="M30.784,622.674a5.256,5.256,0,0,1-.554.624l-.47.414-.458.426-.594.476c-.759.655-1.634,1.269-2.513,1.889-1.779,1.235-3.713,2.4-5.762,3.716l-.356.231-.1.1q-2.3,2.276-4.508,4.633c-1.341,1.669-2.6,3.388-3.855,5.093-1.122,1.77-2.217,3.553-3.273,5.334q-1.5,2.694-2.936,5.412c-.036.07.221.247.273.194,1.41-1.49,2.86-2.947,4.33-4.395q2.274-2.076,4.557-4.167,2.382-1.887,4.762-3.771c1.682-1.109,3.316-2.216,4.894-3.35l-.376.27a45.26,45.26,0,0,0,6.578-3.418,23.247,23.247,0,0,0,3.158-2.425l.756-.693.779-.873.756-.894a7.87,7.87,0,0,0,.535-.779C37.273,625.349,31.829,621.421,30.784,622.674Z" transform="translate(-5.398 -622.431)" fill="#d6b891"/>
                  </g>
                </g>
              </g>
            </g>
          </g>
        </g>
      </g>
    </g>
    <g id="Group_10827" data-name="Group 10827" transform="translate(52.266 754.001)">
      <g id="Group_10826" data-name="Group 10826" transform="translate(0)">
        <g id="Group_10825" data-name="Group 10825">
          <g id="Group_10824" data-name="Group 10824">
            <g id="Group_10823" data-name="Group 10823">
              <g id="Group_10822" data-name="Group 10822">
                <g id="Group_10821" data-name="Group 10821">
                  <g id="Group_10820" data-name="Group 10820">
                    <path id="Path_1722" data-name="Path 1722" d="M28.766,637.539c-4.624,4.25-10.641,8.087-16.017,13.062a38.637,38.637,0,0,0-7.291,8.7,18.18,18.18,0,0,0-2.653,11.351c0,.095.323.089.337,0a15.984,15.984,0,0,1,4.849-9.581,42.187,42.187,0,0,1,8.33-6.183c2.979-1.793,6.038-3.484,9.035-5.447a47.87,47.87,0,0,0,4.412-3.217,26.152,26.152,0,0,0,2.156-1.913l1.067-1.064c.331-.35.582-.677.873-1.02C34.994,640.846,30.049,636.305,28.766,637.539Z" transform="translate(-2.685 -637.328)" fill="#d6b891"/>
                  </g>
                </g>
              </g>
            </g>
          </g>
        </g>
      </g>
    </g>
    <g id="Group_10835" data-name="Group 10835" transform="translate(45.505 776.595)">
      <g id="Group_10834" data-name="Group 10834" transform="translate(0)">
        <g id="Group_10833" data-name="Group 10833">
          <g id="Group_10832" data-name="Group 10832">
            <g id="Group_10831" data-name="Group 10831">
              <g id="Group_10830" data-name="Group 10830">
                <g id="Group_10829" data-name="Group 10829">
                  <g id="Group_10828" data-name="Group 10828">
                    <path id="Path_1723" data-name="Path 1723" d="M26.743,653.242a7.6,7.6,0,0,1-.894.743l-.764.476c-.427.311-1.114.694-1.748,1.064-.611.382-1.3.74-1.986,1.11l-2.084,1.12-2.154,1.176c-.726.4-1.459.813-2.207,1.278-.739.442-1.482.911-2.232,1.464l-.561.4-.278.2-.139.1-.069.05-.307.238-.885.851c-1.179,1.175-2.348,2.216-3.493,3.536-1.129,1.322-2.3,2.642-3.322,3.987-.987,1.35-1.982,2.7-2.926,4.065l-2.715,4.131c-.049.067.192.272.255.217,1.226-1.1,2.48-2.177,3.742-3.239,1.287-1.05,2.6-2.061,3.9-3.074,1.324-.991,2.7-1.879,4-2.8s2.811-1.717,4.2-2.6c2.433-1.407,5.531-2.381,8.541-3.726.76-.327,1.522-.676,2.293-1.073a24.27,24.27,0,0,0,2.3-1.266,18.71,18.71,0,0,0,2.359-1.624l1.2-1a8.88,8.88,0,0,0,.889-.932C32.761,656.879,27.986,652.159,26.743,653.242Z" transform="translate(2.029 -653.081)" fill="#d6b891"/>
                  </g>
                </g>
              </g>
            </g>
          </g>
        </g>
      </g>
    </g>
    <g id="Group_10843" data-name="Group 10843" transform="translate(32.687 800.089)">
      <g id="Group_10842" data-name="Group 10842" transform="translate(0)">
        <g id="Group_10841" data-name="Group 10841">
          <g id="Group_10840" data-name="Group 10840">
            <g id="Group_10839" data-name="Group 10839">
              <g id="Group_10838" data-name="Group 10838">
                <g id="Group_10837" data-name="Group 10837">
                  <g id="Group_10836" data-name="Group 10836">
                    <path id="Path_1724" data-name="Path 1724" d="M18.279,669.654c-.32.268-.67.638-.964.832l-.851.562c-.293.188-.495.376-.856.587l-1.026.621c-.657.426-1.4.832-2.13,1.246l-2.236,1.255L7.9,676.074q-1.16.665-2.354,1.446l-1.183.767-1.179.878c-.419.321-.726.529-1.231.949L.967,681A52.118,52.118,0,0,0-6.6,689.153a21.8,21.8,0,0,0-4.36,10.632c-.013.092.294.151.331.066a19.362,19.362,0,0,1,6.375-8.7,65.185,65.185,0,0,1,8.732-5.822l1.153-.68,1.057-.518c.72-.37,1.456-.729,2.249-1.06,1.517-.706,3.133-1.355,4.749-2.123.812-.37,1.614-.76,2.441-1.2a26.24,26.24,0,0,0,2.438-1.41,19.463,19.463,0,0,0,2.486-1.776l1.256-1.07c.393-.359.614-.664.929-1C24.4,673.152,19.6,668.461,18.279,669.654Z" transform="translate(10.965 -669.462)" fill="#d6b891"/>
                  </g>
                </g>
              </g>
            </g>
          </g>
        </g>
      </g>
    </g>
    <g id="Group_10851" data-name="Group 10851" transform="translate(34.937 821.099)">
      <g id="Group_10850" data-name="Group 10850">
        <g id="Group_10849" data-name="Group 10849">
          <g id="Group_10848" data-name="Group 10848">
            <g id="Group_10847" data-name="Group 10847">
              <g id="Group_10846" data-name="Group 10846">
                <g id="Group_10845" data-name="Group 10845">
                  <g id="Group_10844" data-name="Group 10844">
                    <path id="Path_1725" data-name="Path 1725" d="M13.208,684.314a6.5,6.5,0,0,1-1.245,1.149,8.006,8.006,0,0,1-.677.518l-.76.558c-1.1.741-2.276,1.487-3.557,2.316-.645.426-1.277.832-1.951,1.334l-.99.727-1,.839-.495.425-.242.216-.24.235-.011.014-.024.024-.047.053-.09.108-.733.853L-.3,695.4a34.522,34.522,0,0,0-2.781,3.808l-1.321,2.017c-.436.67-.76,1.37-1.136,2.057-.709,1.383-1.487,2.719-2.078,4.142L-9.4,711.663c-.024.068.248.222.3.161.96-1.191,1.941-2.362,2.932-3.511.971-1.165,2.111-2.2,3.165-3.286a37.841,37.841,0,0,1,3.322-3.013,44.112,44.112,0,0,1,3.439-2.79l1.816-1.379.9-.7.221-.176c.043-.039-.33.32-.169.165h.006l.014-.009.027-.011.056-.032.108-.062.433-.248.852-.491.931-.482,1.9-1a36.174,36.174,0,0,0,4.043-2.451l1.024-.816a9.086,9.086,0,0,0,1.04-.932,12.505,12.505,0,0,0,1.809-2.157C19.584,687.176,14.2,683.168,13.208,684.314Z" transform="translate(9.397 -684.11)" fill="#d6b891"/>
                  </g>
                </g>
              </g>
            </g>
          </g>
        </g>
      </g>
    </g>
    <g id="Group_10859" data-name="Group 10859" transform="translate(27.417 843.252)">
      <g id="Group_10858" data-name="Group 10858" transform="translate(0)">
        <g id="Group_10857" data-name="Group 10857">
          <g id="Group_10856" data-name="Group 10856">
            <g id="Group_10855" data-name="Group 10855">
              <g id="Group_10854" data-name="Group 10854">
                <g id="Group_10853" data-name="Group 10853">
                  <g id="Group_10852" data-name="Group 10852">
                    <path id="Path_1726" data-name="Path 1726" d="M7.864,699.617a59.459,59.459,0,0,0-7.052,4.706,55.177,55.177,0,0,0-6.4,5.8,38.829,38.829,0,0,0-9.046,14.9c-.022.064.262.2.308.139,3.287-4.809,7.98-8.087,12.567-10.975q3.483-2.143,6.915-4.244a72.232,72.232,0,0,0,6.639-4.614C12.883,704.449,9.076,698.915,7.864,699.617Z" transform="translate(14.64 -699.555)" fill="#d6b891"/>
                  </g>
                </g>
              </g>
            </g>
          </g>
        </g>
      </g>
    </g>
    <g id="Group_10867" data-name="Group 10867" transform="translate(25.301 863.742)">
      <g id="Group_10866" data-name="Group 10866" transform="translate(0)">
        <g id="Group_10865" data-name="Group 10865">
          <g id="Group_10864" data-name="Group 10864">
            <g id="Group_10863" data-name="Group 10863">
              <g id="Group_10862" data-name="Group 10862">
                <g id="Group_10861" data-name="Group 10861">
                  <g id="Group_10860" data-name="Group 10860">
                    <path id="Path_1727" data-name="Path 1727" d="M2.614,713.972C-4.751,721.344-10.732,730-16.112,739.04c-.034.059.207.261.255.22,8.064-6.777,17.669-12.355,23.763-20.823C8.676,717.372,3.548,713.038,2.614,713.972Z" transform="translate(16.115 -713.841)" fill="#d6b891"/>
                  </g>
                </g>
              </g>
            </g>
          </g>
        </g>
      </g>
    </g>
    <g id="Group_10875" data-name="Group 10875" transform="translate(59.316 872.999)">
      <g id="Group_10874" data-name="Group 10874" transform="translate(0)">
        <g id="Group_10873" data-name="Group 10873">
          <g id="Group_10872" data-name="Group 10872">
            <g id="Group_10871" data-name="Group 10871">
              <g id="Group_10870" data-name="Group 10870">
                <g id="Group_10869" data-name="Group 10869">
                  <g id="Group_10868" data-name="Group 10868">
                    <path id="Path_1728" data-name="Path 1728" d="M7.621,725.341c.511.624.35.66.528.962.139.3.257.572.374.875a14.039,14.039,0,0,1,.637,2.278c.389,1.879.594,4.426,1.156,7.005a.638.638,0,0,0,.331.037c1.168-2.375,3.031-4.323,4.088-7.1a8.385,8.385,0,0,0,.412-4.76,7.34,7.34,0,0,0-1.01-2.457,6.663,6.663,0,0,0-1.758-1.873C11.865,719.967,7.253,724.842,7.621,725.341Z" transform="translate(-7.6 -720.295)" fill="#d6b891"/>
                  </g>
                </g>
              </g>
            </g>
          </g>
        </g>
      </g>
    </g>
    <g id="Group_10883" data-name="Group 10883" transform="translate(68.63 855.402)">
      <g id="Group_10882" data-name="Group 10882" transform="translate(0)">
        <g id="Group_10881" data-name="Group 10881">
          <g id="Group_10880" data-name="Group 10880">
            <g id="Group_10879" data-name="Group 10879">
              <g id="Group_10878" data-name="Group 10878">
                <g id="Group_10877" data-name="Group 10877">
                  <g id="Group_10876" data-name="Group 10876">
                    <path id="Path_1729" data-name="Path 1729" d="M15.33,708.129l-.4.4-.838.826.046,1.655c.155,5.346,1.962,9.684,3.375,13.775,1.437,4.088,2.793,7.939,2.379,12.1,0,.056.3.151.321.1,2.161-3.7,2.818-8.832,2.608-13.6a95.423,95.423,0,0,0-1.69-12.973l-.839,2.633.324-.453C21.3,711.639,16.168,707.307,15.33,708.129Z" transform="translate(-14.094 -708.026)" fill="#d6b891"/>
                  </g>
                </g>
              </g>
            </g>
          </g>
        </g>
      </g>
    </g>
    <g id="Group_10891" data-name="Group 10891" transform="translate(78.615 839.559)">
      <g id="Group_10890" data-name="Group 10890" transform="translate(0)">
        <g id="Group_10889" data-name="Group 10889">
          <g id="Group_10888" data-name="Group 10888">
            <g id="Group_10887" data-name="Group 10887">
              <g id="Group_10886" data-name="Group 10886">
                <g id="Group_10885" data-name="Group 10885">
                  <g id="Group_10884" data-name="Group 10884">
                    <path id="Path_1730" data-name="Path 1730" d="M21.111,701.25c1.02,1.6,1.756,2.975,2.791,4.53.534.79,1.024,1.575,1.635,2.351s1.238,1.543,1.879,2.3l-.274-.366a30.523,30.523,0,0,1,4,7.2,61.7,61.7,0,0,1,2.1,8.744c.014.059.33.053.338-.009a67.985,67.985,0,0,0,1.278-9.552,23.673,23.673,0,0,0-2.227-9.963l-.219-.294q-.6-1.147-1.238-2.232c-.427-.723-.836-1.533-1.288-2.266a29.638,29.638,0,0,0-3.213-4.567C25.849,696.18,20.458,700.177,21.111,701.25Z" transform="translate(-21.056 -696.98)" fill="#d6b891"/>
                  </g>
                </g>
              </g>
            </g>
          </g>
        </g>
      </g>
    </g>
    <g id="Group_10899" data-name="Group 10899" transform="translate(84.816 821.141)">
      <g id="Group_10898" data-name="Group 10898">
        <g id="Group_10897" data-name="Group 10897">
          <g id="Group_10896" data-name="Group 10896">
            <g id="Group_10895" data-name="Group 10895">
              <g id="Group_10894" data-name="Group 10894">
                <g id="Group_10893" data-name="Group 10893">
                  <g id="Group_10892" data-name="Group 10892">
                    <path id="Path_1731" data-name="Path 1731" d="M25.49,689.436a82.862,82.862,0,0,1,8.683,10.284c2.384,3.577,4.032,7.5,3.3,11.98-.007.055.287.167.314.119a15.582,15.582,0,0,0,2.256-6.9,20.714,20.714,0,0,0-.98-7.883,25.971,25.971,0,0,0-9.025-12.827C29.038,683.478,24.629,688.539,25.49,689.436Z" transform="translate(-25.379 -684.139)" fill="#d6b891"/>
                  </g>
                </g>
              </g>
            </g>
          </g>
        </g>
      </g>
    </g>
    <g id="Group_10907" data-name="Group 10907" transform="translate(92.546 805.013)">
      <g id="Group_10906" data-name="Group 10906">
        <g id="Group_10905" data-name="Group 10905">
          <g id="Group_10904" data-name="Group 10904">
            <g id="Group_10903" data-name="Group 10903">
              <g id="Group_10902" data-name="Group 10902">
                <g id="Group_10901" data-name="Group 10901">
                  <g id="Group_10900" data-name="Group 10900">
                    <path id="Path_1732" data-name="Path 1732" d="M30.826,678.248c4.9,5.222,10.267,7.953,13.774,13.55.024.031.328-.056.323-.095a24.025,24.025,0,0,0-2.6-10.612,23.068,23.068,0,0,0-3.128-4.68,18.632,18.632,0,0,0-3.937-3.485C34.517,672.449,30.224,677.607,30.826,678.248Z" transform="translate(-30.769 -672.894)" fill="#d6b891"/>
                  </g>
                </g>
              </g>
            </g>
          </g>
        </g>
      </g>
    </g>
    <g id="Group_10915" data-name="Group 10915" transform="translate(95.228 788.423)">
      <g id="Group_10914" data-name="Group 10914">
        <g id="Group_10913" data-name="Group 10913">
          <g id="Group_10912" data-name="Group 10912">
            <g id="Group_10911" data-name="Group 10911">
              <g id="Group_10910" data-name="Group 10910">
                <g id="Group_10909" data-name="Group 10909">
                  <g id="Group_10908" data-name="Group 10908">
                    <path id="Path_1733" data-name="Path 1733" d="M32.687,666.744a29.662,29.662,0,0,0,3.715,3.114c1.239.892,2.513,1.69,3.754,2.457s2.481,1.5,3.6,2.245a9.474,9.474,0,0,1,2.417,2.076,1.16,1.16,0,0,0,.334.05,2.6,2.6,0,0,0,.228-1.837,10.433,10.433,0,0,0-.694-2.359,26.853,26.853,0,0,0-2.408-4.532,24.689,24.689,0,0,0-3.094-3.863,16.38,16.38,0,0,0-3.513-2.742C36.356,660.942,32.143,666.169,32.687,666.744Z" transform="translate(-32.638 -661.328)" fill="#d6b891"/>
                  </g>
                </g>
              </g>
            </g>
          </g>
        </g>
      </g>
    </g>
    <g id="Group_10923" data-name="Group 10923" transform="translate(98.903 773.057)">
      <g id="Group_10922" data-name="Group 10922" transform="translate(0)">
        <g id="Group_10921" data-name="Group 10921">
          <g id="Group_10920" data-name="Group 10920">
            <g id="Group_10919" data-name="Group 10919">
              <g id="Group_10918" data-name="Group 10918">
                <g id="Group_10917" data-name="Group 10917">
                  <g id="Group_10916" data-name="Group 10916">
                    <path id="Path_1734" data-name="Path 1734" d="M35.259,655.793a52.51,52.51,0,0,0,8.2,7.536,83.853,83.853,0,0,0,9.053,6.417c.036.026.262-.194.238-.232-1.942-3.227-3.6-6.863-5.545-10.317a29.272,29.272,0,0,0-7.295-8.538C39.147,650.1,34.64,655.079,35.259,655.793Z" transform="translate(-35.201 -650.615)" fill="#d6b891"/>
                  </g>
                </g>
              </g>
            </g>
          </g>
        </g>
      </g>
    </g>
    <g id="Group_10929" data-name="Group 10929" transform="translate(103.053 752.459)">
      <g id="Group_10928" data-name="Group 10928">
        <g id="Group_10927" data-name="Group 10927">
          <g id="Group_10926" data-name="Group 10926">
            <g id="Group_10925" data-name="Group 10925">
              <g id="Group_10924" data-name="Group 10924">
                <path id="Path_1735" data-name="Path 1735" d="M53.1,654.5c-1.215-5.766-4.795-12.729-9.393-16l-3.16-2.246-1.981,2.681c-.162.227-.326.455-.476.691l1.031,4.309c4.439,4.578,9.5,6.791,13.686,10.724C52.843,654.685,53.118,654.53,53.1,654.5Z" transform="translate(-38.094 -636.254)" fill="#d6b891"/>
              </g>
            </g>
          </g>
        </g>
      </g>
    </g>
    <g id="Group_10937" data-name="Group 10937" transform="translate(101.6 731.981)">
      <g id="Group_10936" data-name="Group 10936">
        <g id="Group_10935" data-name="Group 10935">
          <g id="Group_10934" data-name="Group 10934">
            <g id="Group_10933" data-name="Group 10933">
              <g id="Group_10932" data-name="Group 10932">
                <g id="Group_10931" data-name="Group 10931">
                  <g id="Group_10930" data-name="Group 10930">
                    <path id="Path_1736" data-name="Path 1736" d="M37.131,627.3c.509.557,1.03,1.1,1.573,1.621l-.663-.739a41.645,41.645,0,0,0,4.835,7.048,70.553,70.553,0,0,0,5.691,6.622c.024.032.31-.112.3-.151-.68-2.864-1.06-5.972-1.642-9.066a29.617,29.617,0,0,0-3.158-8.5l-.2-.338-.476-.423A15.805,15.805,0,0,0,41.6,622C40.9,621.549,36.57,626.678,37.131,627.3Z" transform="translate(-37.081 -621.976)" fill="#d6b891"/>
                  </g>
                </g>
              </g>
            </g>
          </g>
        </g>
      </g>
    </g>
    <g id="Group_10945" data-name="Group 10945" transform="translate(140.925 582.635)">
      <g id="Group_10944" data-name="Group 10944">
        <g id="Group_10943" data-name="Group 10943">
          <g id="Group_10942" data-name="Group 10942">
            <g id="Group_10941" data-name="Group 10941">
              <g id="Group_10940" data-name="Group 10940">
                <g id="Group_10939" data-name="Group 10939">
                  <g id="Group_10938" data-name="Group 10938">
                    <path id="Path_1737" data-name="Path 1737" d="M70.7,518.4c-1.04,4.182-2.826,8.4-4.324,13.214-1.495,4.746-2.513,10.315-1.429,15.521,0,.064.323.05.331-.011a22.392,22.392,0,0,1,2.4-7.2,69.435,69.435,0,0,1,3.893-6.291,51.161,51.161,0,0,0,3.834-6.519,24.09,24.09,0,0,0,1.41-3.7,18.258,18.258,0,0,0,.73-4C77.634,518.179,71,517.194,70.7,518.4Z" transform="translate(-64.498 -517.852)" fill="#d6b891"/>
                  </g>
                </g>
              </g>
            </g>
          </g>
        </g>
      </g>
    </g>
    <g id="Group_10953" data-name="Group 10953" transform="translate(144.565 596.652)">
      <g id="Group_10952" data-name="Group 10952">
        <g id="Group_10951" data-name="Group 10951">
          <g id="Group_10950" data-name="Group 10950">
            <g id="Group_10949" data-name="Group 10949">
              <g id="Group_10948" data-name="Group 10948">
                <g id="Group_10947" data-name="Group 10947">
                  <g id="Group_10946" data-name="Group 10946">
                    <path id="Path_1738" data-name="Path 1738" d="M81.182,527.819a56.332,56.332,0,0,0-11.091,16.275C67.4,550.254,66.208,557.426,67.66,564c.016.079.328.054.336-.03a26.7,26.7,0,0,1,2.326-9.385,43.393,43.393,0,0,1,4.769-8.018c3.647-4.953,7.8-9.323,11.417-14.32C87.447,530.956,82.285,526.664,81.182,527.819Z" transform="translate(-67.036 -527.624)" fill="#d6b891"/>
                  </g>
                </g>
              </g>
            </g>
          </g>
        </g>
      </g>
    </g>
    <g id="Group_10961" data-name="Group 10961" transform="translate(157.619 616.38)">
      <g id="Group_10960" data-name="Group 10960">
        <g id="Group_10959" data-name="Group 10959">
          <g id="Group_10958" data-name="Group 10958">
            <g id="Group_10957" data-name="Group 10957">
              <g id="Group_10956" data-name="Group 10956">
                <g id="Group_10955" data-name="Group 10955">
                  <g id="Group_10954" data-name="Group 10954">
                    <path id="Path_1739" data-name="Path 1739" d="M85.082,541.526l-1.268,1.444a12.084,12.084,0,0,0-1.232,1.589,37.917,37.917,0,0,0-2.26,3.759,40.673,40.673,0,0,0-1.632,3.862c-.4,1.32-.863,2.645-1.136,3.973a75.457,75.457,0,0,0-1.416,15.71c0,.062.305.121.328.062a109.7,109.7,0,0,1,6.429-14.172c.581-1.117,1.277-2.149,1.853-3.213.605-1.054,1.327-2.007,1.912-3.023,1.322-1.949,2.638-3.883,3.953-5.826C91.309,544.6,85.947,540.562,85.082,541.526Z" transform="translate(-76.138 -541.378)" fill="#d6b891"/>
                  </g>
                </g>
              </g>
            </g>
          </g>
        </g>
      </g>
    </g>
    <g id="Group_10969" data-name="Group 10969" transform="translate(163.638 633.665)">
      <g id="Group_10968" data-name="Group 10968">
        <g id="Group_10967" data-name="Group 10967">
          <g id="Group_10966" data-name="Group 10966">
            <g id="Group_10965" data-name="Group 10965">
              <g id="Group_10964" data-name="Group 10964">
                <g id="Group_10963" data-name="Group 10963">
                  <g id="Group_10962" data-name="Group 10962">
                    <path id="Path_1740" data-name="Path 1740" d="M92.9,553.589a14.845,14.845,0,0,0-1.915,2.213c-.624.846-1,1.561-1.489,2.362a43.53,43.53,0,0,0-2.093,4.6q-1.652,4.359-3.3,8.716c-2.17,5.929-4.092,12.513-3.723,19.228,0,.082.321.1.336.02a32.528,32.528,0,0,1,3.51-8.979c1.519-2.785,3.269-5.4,5-8.056.852-1.337,1.717-2.654,2.533-4.058.859-1.461,1.566-2.887,2.256-4.268s1.331-2.675,1.959-3.914c.338-.526.674-1.218.952-1.644a8.552,8.552,0,0,1,.982-1.44C98.924,557.152,94.073,552.519,92.9,553.589Z" transform="translate(-80.334 -553.43)" fill="#d6b891"/>
                  </g>
                </g>
              </g>
            </g>
          </g>
        </g>
      </g>
    </g>
    <g id="Group_10977" data-name="Group 10977" transform="translate(169.378 652.093)">
      <g id="Group_10976" data-name="Group 10976">
        <g id="Group_10975" data-name="Group 10975">
          <g id="Group_10974" data-name="Group 10974">
            <g id="Group_10973" data-name="Group 10973">
              <g id="Group_10972" data-name="Group 10972">
                <g id="Group_10971" data-name="Group 10971">
                  <g id="Group_10970" data-name="Group 10970">
                    <path id="Path_1741" data-name="Path 1741" d="M94.538,566.541c-.313.485-.605.984-.885,1.493l-.562,1.244c-.324.81-.615,1.622-.839,2.389-.47,1.552-.806,3.048-1.133,4.39l.125-.4c-1.543,4.049-3.7,8.47-5.2,13.254a36.221,36.221,0,0,0-1.608,7.536,17.549,17.549,0,0,0,.915,7.93c.026.082.328,0,.327-.088a15.187,15.187,0,0,1,1.14-7.384,36.789,36.789,0,0,1,3.375-6.325c2.562-4.04,5.539-7.721,7.751-12.461l.115-.38c.478-1.508.843-2.9,1.208-4.191.182-.652.37-1.241.552-1.819l.271-.795a1.4,1.4,0,0,0,.132-.437C100.978,569.224,95.585,565.224,94.538,566.541Z" transform="translate(-84.336 -566.278)" fill="#d6b891"/>
                  </g>
                </g>
              </g>
            </g>
          </g>
        </g>
      </g>
    </g>
    <g id="Group_10985" data-name="Group 10985" transform="translate(179.874 670.132)">
      <g id="Group_10984" data-name="Group 10984">
        <g id="Group_10983" data-name="Group 10983">
          <g id="Group_10982" data-name="Group 10982">
            <g id="Group_10981" data-name="Group 10981">
              <g id="Group_10980" data-name="Group 10980">
                <g id="Group_10979" data-name="Group 10979">
                  <g id="Group_10978" data-name="Group 10978">
                    <path id="Path_1742" data-name="Path 1742" d="M98.966,579.086a32.96,32.96,0,0,0-2.678,7.5c-.308,1.143-.59,2.252-.9,3.28l-.231.765-.1.331-.156.435-.6,1.737c-.194.585-.39,1.153-.569,1.758l-.5,1.892a34.7,34.7,0,0,0-.822,3.778c-.188,1.269-.442,2.507-.529,3.791l-.231,3.807c0,.062.308.118.331.062A62.271,62.271,0,0,1,99.441,595.3l1.063-1.543.258-.389.275-.476.5-.9a31.1,31.1,0,0,0,1.609-3.583c.895-2.354,1.513-4.661,2.061-6.328C105.644,580.926,99.6,578.019,98.966,579.086Z" transform="translate(-91.654 -578.855)" fill="#d6b891"/>
                  </g>
                </g>
              </g>
            </g>
          </g>
        </g>
      </g>
    </g>
    <g id="Group_10993" data-name="Group 10993" transform="translate(190.062 694.129)">
      <g id="Group_10992" data-name="Group 10992">
        <g id="Group_10991" data-name="Group 10991">
          <g id="Group_10990" data-name="Group 10990">
            <g id="Group_10989" data-name="Group 10989">
              <g id="Group_10988" data-name="Group 10988">
                <g id="Group_10987" data-name="Group 10987">
                  <g id="Group_10986" data-name="Group 10986">
                    <path id="Path_1743" data-name="Path 1743" d="M98.943,596.432a56.4,56.4,0,0,0,.284,11.8,96.066,96.066,0,0,0,2.595,11.788c.014.05.331.023.339-.026.66-4.007,1.811-8.01,2.641-11.93a33.311,33.311,0,0,0,1.061-11.827C105.737,595.253,99.031,595.436,98.943,596.432Z" transform="translate(-98.757 -595.586)" fill="#d6b891"/>
                  </g>
                </g>
              </g>
            </g>
          </g>
        </g>
      </g>
    </g>
    <g id="Group_11001" data-name="Group 11001" transform="translate(168.442 570.906)">
      <g id="Group_11000" data-name="Group 11000">
        <g id="Group_10999" data-name="Group 10999">
          <g id="Group_10998" data-name="Group 10998">
            <g id="Group_10997" data-name="Group 10997">
              <g id="Group_10996" data-name="Group 10996">
                <g id="Group_10995" data-name="Group 10995">
                  <g id="Group_10994" data-name="Group 10994">
                    <path id="Path_1744" data-name="Path 1744" d="M83.8,516.179c.663.364,1.331.7,2.011,1.008.66.314,1.427.572,1.989.882a36.432,36.432,0,0,0,3.785,1.525c1.341.538,2.729,1,4.158,1.423,1.4.485,2.837.925,4.319,1.331.034.011.211-.255.179-.28-1-1.146-1.962-2.412-2.937-3.706-1.008-1.242-2.045-2.5-3.132-3.712a25.107,25.107,0,0,0-3.812-3.2,12.572,12.572,0,0,0-4.18-1.773C85.443,509.509,83.135,515.814,83.8,516.179Z" transform="translate(-83.683 -509.674)" fill="#d6b891"/>
                  </g>
                </g>
              </g>
            </g>
          </g>
        </g>
      </g>
    </g>
    <g id="Group_11009" data-name="Group 11009" transform="translate(184.419 589.609)">
      <g id="Group_11008" data-name="Group 11008">
        <g id="Group_11007" data-name="Group 11007">
          <g id="Group_11006" data-name="Group 11006">
            <g id="Group_11005" data-name="Group 11005">
              <g id="Group_11004" data-name="Group 11004">
                <g id="Group_11003" data-name="Group 11003">
                  <g id="Group_11002" data-name="Group 11002">
                    <path id="Path_1745" data-name="Path 1745" d="M94.912,528.206a26.579,26.579,0,0,0,2.336,2.078c.888.664,1.829,1.376,2.734,1.931a51.541,51.541,0,0,0,5.508,2.995c3.7,1.75,7.369,3.137,10.918,5,.046.017.251-.221.214-.258a88.965,88.965,0,0,0-8.31-9.55c-1.5-1.493-3-2.9-4.515-4.171-.77-.627-1.414-1.219-2.172-1.751-.727-.5-1.595-1.209-2.445-1.726C98.307,522.2,94.169,527.489,94.912,528.206Z" transform="translate(-94.823 -522.714)" fill="#d6b891"/>
                  </g>
                </g>
              </g>
            </g>
          </g>
        </g>
      </g>
    </g>
    <g id="Group_11017" data-name="Group 11017" transform="translate(189.735 607.535)">
      <g id="Group_11016" data-name="Group 11016">
        <g id="Group_11015" data-name="Group 11015">
          <g id="Group_11014" data-name="Group 11014">
            <g id="Group_11013" data-name="Group 11013">
              <g id="Group_11012" data-name="Group 11012">
                <g id="Group_11011" data-name="Group 11011">
                  <g id="Group_11010" data-name="Group 11010">
                    <path id="Path_1746" data-name="Path 1746" d="M98.573,540.424l.812.9.416.439.622.482q.633.48,1.3.922l.67.442.608.317a24.445,24.445,0,0,0,4.881,1.89c3.213.9,6.261,1.214,9.177,2.124.036.011.217-.255.185-.28a58.338,58.338,0,0,0-7.3-7.024c-1.268-1.081-2.5-2.087-3.6-2.975l-.429-.314-.308-.291a5.1,5.1,0,0,0-.651-.5l-.353-.209-.459-.39c-.311-.251-.638-.492-.968-.723C102.49,534.785,98.04,539.8,98.573,540.424Z" transform="translate(-98.529 -535.212)" fill="#d6b891"/>
                  </g>
                </g>
              </g>
            </g>
          </g>
        </g>
      </g>
    </g>
    <g id="Group_11025" data-name="Group 11025" transform="translate(198.824 627.599)">
      <g id="Group_11024" data-name="Group 11024">
        <g id="Group_11023" data-name="Group 11023">
          <g id="Group_11022" data-name="Group 11022">
            <g id="Group_11021" data-name="Group 11021">
              <g id="Group_11020" data-name="Group 11020">
                <g id="Group_11019" data-name="Group 11019">
                  <g id="Group_11018" data-name="Group 11018">
                    <path id="Path_1747" data-name="Path 1747" d="M105.114,555.194a11.411,11.411,0,0,0,1.371.8c.374.179.73.327,1.074.462a17.234,17.234,0,0,0,1.964.617,28.947,28.947,0,0,0,3.653.647l3.257.358c.478.059.888.135,1.166.156.273.05.423-.139.653.093a1.568,1.568,0,0,0,.333.05,1.181,1.181,0,0,0,.271-1.281,5.549,5.549,0,0,0-1.015-1.761,18.974,18.974,0,0,0-3.163-2.986,20.924,20.924,0,0,0-3.409-2.157,16.152,16.152,0,0,0-1.6-.693c-.242-.086-.47-.159-.676-.218-.138-.032-.448-.151-.3-.009.062-.036-.069.221-.143.361s-.165.331-.261.384c-.113.092-.268.218-.448.367a1.062,1.062,0,0,0-.185.156c-.118.142-.244.291-.371.442-.254.311-.513.651-.77.993a20.675,20.675,0,0,0-1.3,1.961,4.662,4.662,0,0,0-.347.726A.551.551,0,0,0,105.114,555.194Z" transform="translate(-104.866 -549.201)" fill="#d6b891"/>
                  </g>
                </g>
              </g>
            </g>
          </g>
        </g>
      </g>
    </g>
    <g id="Group_11033" data-name="Group 11033" transform="translate(201.363 645.068)">
      <g id="Group_11032" data-name="Group 11032">
        <g id="Group_11031" data-name="Group 11031">
          <g id="Group_11030" data-name="Group 11030">
            <g id="Group_11029" data-name="Group 11029">
              <g id="Group_11028" data-name="Group 11028">
                <g id="Group_11027" data-name="Group 11027">
                  <g id="Group_11026" data-name="Group 11026">
                    <path id="Path_1748" data-name="Path 1748" d="M106.713,566.969l1.018.928.526.45.673.46,1.384.879a11.758,11.758,0,0,0,1.357.762,39.171,39.171,0,0,0,5.262,2.177c3.482,1.19,6.866,1.932,9.993,3.415.039.013.244-.225.212-.255a46.993,46.993,0,0,0-7.907-8.239c-1.449-1.239-2.9-2.392-4.3-3.4-.382-.253-.7-.493-.977-.714-.3-.225-.607-.432-.922-.622l-.476-.274L112,562.14c-.379-.257-.766-.5-1.166-.731C110.029,560.938,106.035,566.337,106.713,566.969Z" transform="translate(-106.636 -561.38)" fill="#d6b891"/>
                  </g>
                </g>
              </g>
            </g>
          </g>
        </g>
      </g>
    </g>
    <g id="Group_11041" data-name="Group 11041" transform="translate(204.389 661.327)">
      <g id="Group_11040" data-name="Group 11040">
        <g id="Group_11039" data-name="Group 11039">
          <g id="Group_11038" data-name="Group 11038">
            <g id="Group_11037" data-name="Group 11037">
              <g id="Group_11036" data-name="Group 11036">
                <g id="Group_11035" data-name="Group 11035">
                  <g id="Group_11034" data-name="Group 11034">
                    <path id="Path_1749" data-name="Path 1749" d="M108.789,577.819l.806.938.423.456.561.494c.379.324.769.641,1.168.955a10.749,10.749,0,0,0,1.168.826,28.078,28.078,0,0,0,4.671,2.407c3.155,1.288,6.312,2.022,9.375,3.034.039.011.214-.247.188-.277-2.12-2.5-4.591-5.214-6.931-7.671-1.166-1.235-2.312-2.4-3.412-3.429-.617-.512-.944-.959-1.483-1.35l-.386-.283-.455-.406c-.317-.264-.633-.522-.974-.763C112.834,572.261,108.258,577.177,108.789,577.819Z" transform="translate(-108.746 -572.716)" fill="#d6b891"/>
                  </g>
                </g>
              </g>
            </g>
          </g>
        </g>
      </g>
    </g>
    <g id="Group_11049" data-name="Group 11049" transform="translate(209.325 684.255)">
      <g id="Group_11048" data-name="Group 11048">
        <g id="Group_11047" data-name="Group 11047">
          <g id="Group_11046" data-name="Group 11046">
            <g id="Group_11045" data-name="Group 11045">
              <g id="Group_11044" data-name="Group 11044">
                <g id="Group_11043" data-name="Group 11043">
                  <g id="Group_11042" data-name="Group 11042">
                    <path id="Path_1750" data-name="Path 1750" d="M112.216,593.788l.648.793a3.259,3.259,0,0,0,.371.392l.541.446a14.067,14.067,0,0,0,2.193,1.5,20.848,20.848,0,0,0,4.053,1.7c2.671.832,5.228,1.134,7.573,1.939.03.011.238-.23.215-.258a39.169,39.169,0,0,0-5.476-6.757c-1-1.038-1.985-2-2.876-2.8-.545-.414-.694-.706-1.071-.944-.093-.056-.179-.109-.27-.162s-.244-.208-.37-.3c-.258-.22-.531-.423-.81-.617C116.364,588.331,111.787,593.242,112.216,593.788Z" transform="translate(-112.187 -588.701)" fill="#d6b891"/>
                  </g>
                </g>
              </g>
            </g>
          </g>
        </g>
      </g>
    </g>
    <g id="Group_11057" data-name="Group 11057" transform="translate(210.895 702.456)">
      <g id="Group_11056" data-name="Group 11056">
        <g id="Group_11055" data-name="Group 11055">
          <g id="Group_11054" data-name="Group 11054">
            <g id="Group_11053" data-name="Group 11053">
              <g id="Group_11052" data-name="Group 11052">
                <g id="Group_11051" data-name="Group 11051">
                  <g id="Group_11050" data-name="Group 11050">
                    <path id="Path_1751" data-name="Path 1751" d="M113.315,606.505a31.186,31.186,0,0,0,2.952,3.2,29.727,29.727,0,0,0,3.023,2.772c1.147.958,2.359,1.854,3.6,2.7,1.338.826,2.714,1.582,4.079,2.269.036.02.238-.221.217-.253a44.7,44.7,0,0,1-2.1-4.174c-.575-1.467-1.124-2.936-1.721-4.336A27.665,27.665,0,0,0,121.1,604.5a13.239,13.239,0,0,0-3.089-3.082C117.4,600.989,112.853,605.926,113.315,606.505Z" transform="translate(-113.282 -601.392)" fill="#d6b891"/>
                  </g>
                </g>
              </g>
            </g>
          </g>
        </g>
      </g>
    </g>
  </g>
</svg>
