<svg xmlns="http://www.w3.org/2000/svg" width="1952.302" height="449.726" viewBox="0 0 1952.302 449.726">
  <g id="Layer_2" data-name="Layer 2" transform="translate(1934.045 -0.005) rotate(87)" opacity="0.068">
    <g id="Layer_1" data-name="Layer 1" transform="translate(0.005)">
      <path id="Path_5" data-name="Path 5" d="M.315,1936.7c-4.129-79.136,33.689-145.723,70.64-174.07,25.1-19.267,52.433-28.052,78.856-36.911,14.574-4.724,29.685-9.6,44.217-16.167,28.9-12.992,79.847-46.655,97.435-125.5s-5.45-164.843-32.781-219.4c-18.62-36.911-41.286-67.916-63.167-97.739-13.583-18.455-27.579-37.575-40.584-58.024-48.015-75.593-76.874-166.1-81.333-254.9-5.45-108.148,28.9-211.645,79.929-240.879,21.1-11.811,44.878-12.55,67.874-13.214,37.694-1.034,73.282-2.067,94.958-50.715,17.588-39.421,18.7-101.8,2.931-166.91q-8.8-34.531-19.528-67.325a779.044,779.044,0,0,1-25.1-93.015C252.737,202.934,285.229,58.54,347.2,0l1.651,5.61c-60.525,57.138-92.233,198.136-70.723,314.331A764.17,764.17,0,0,0,302.9,411.848q10.818,33.067,19.693,67.989c16.514,67.325,15.069,132.14-3.385,173.406-22.79,51.01-59.2,51.675-97.765,53.151-22.749.591-46.24,1.255-66.842,13.066C105.057,747.809,71.822,848.5,77.107,953.7c4.376,87.183,33.029,176.211,80.177,250.992,12.881,20.3,26.877,39.347,40.378,57.728,22.047,29.971,44.836,60.976,63.663,98.551,28.033,55.957,51.566,144.763,33.442,225.967S224.373,1703.129,194.9,1716.49c-14.656,6.57-29.808,11.442-44.465,16.167-26.217,8.416-53.341,17.2-78.072,36.172-35.836,27.092-72.374,91.464-68.535,167.2Z" transform="translate(-0.005)" fill="#af7513"/>
    </g>
  </g>
</svg>
