<svg xmlns="http://www.w3.org/2000/svg" width="202.526" height="63.64" viewBox="0 0 202.526 63.64">
  <g id="MDF_Logo_V1-01" data-name="MDF Logo V1-01" transform="translate(-80.046 -75.8)">
    <g id="Group_12902" data-name="Group 12902" transform="translate(80.046 75.8)">
      <path id="Path_1852" data-name="Path 1852" d="M115.891,105.019v-.468c2.246-.094,4.024-1.123,4.586-2.246a10.6,10.6,0,0,0,.562-2.9c.094-3.556.094-6.364.094-10.014V78.814c-1.591,3.463-7.206,16.191-8.891,19.841-.562,1.123-2.153,5.054-2.34,5.709h-.655c-4.867-11.418-9.92-22.742-10.95-25.269,0,6.738-.094,10.014-.094,17.688,0,5.054.281,7.3,4.96,7.861v.374H92.4v-.374c3.744-.749,4.679-2.714,4.867-8.236.094-2.246.187-5.522.187-9.172V80.218c-.094-2.995-2.714-3.556-4.024-3.744V76.1h9.265l9.265,21.432c4.586-10.014,9.172-20.589,9.452-21.432h9.078v.374c-2.153,0-3.369,1.029-3.744,2.246a29.652,29.652,0,0,0-.468,4.96V99.965a6.31,6.31,0,0,0,.468,2.808,4.842,4.842,0,0,0,4.024,1.965v.374H115.891Z" transform="translate(-92.4 -75.819)" fill="#af7513"/>
      <path id="Path_1853" data-name="Path 1853" d="M147.458,105.854a3.6,3.6,0,0,1-3.837-3.744h-.094a6.557,6.557,0,0,1-5.709,3.744,3.648,3.648,0,0,1-3.837-3.931c0-1.5,1.4-3.088,3.182-4.118,3.556-2.153,5.335-2.9,6.458-3.65v-3.65a3.1,3.1,0,0,0-3.088-2.433,2.62,2.62,0,0,0-2.62,1.965V92.47c0,.749-1.217,1.5-2.246,1.5a1.874,1.874,0,0,1-1.965-1.685c0-1.4,1.217-2.246,2.34-2.9,2.62-1.591,6.27-3.088,7.768-3.182a3.929,3.929,0,0,1,3.744,2.246,7.161,7.161,0,0,1,.281,2.34c0,3.837-.094,5.428-.094,9.078,0,2.433,1.029,2.995,2.059,2.995a1.889,1.889,0,0,0,1.965-1.4h.281C151.763,103.42,149.984,105.854,147.458,105.854ZM143.62,94.717c-1.778,1.31-5.615,2.62-5.615,5.615a2.583,2.583,0,0,0,2.433,2.62,3.926,3.926,0,0,0,2.808-.936,1.492,1.492,0,0,0,.374-1.123Z" transform="translate(-95.048 -76.467)" fill="#af7513"/>
      <path id="Path_1854" data-name="Path 1854" d="M165.747,90.867c-2.059,0-1.965-1.5-3.088-1.5-1.217,0-2.433,1.5-2.995,3.182v11.511c.374,1.029,2.34,1.029,3.463,1.217v.374H153.3v-.374c1.217-.094,2.246-.562,2.246-1.4v-13.2a.815.815,0,0,0-.374-.842,16.825,16.825,0,0,0-1.872-1.029v-.281L159.383,86h.281l-.094,5.615h.094c.562-1.31,2.153-5.615,5.615-5.615a2.36,2.36,0,0,1,2.433,2.433A2.305,2.305,0,0,1,165.747,90.867Z" transform="translate(-96.305 -76.454)" fill="#af7513"/>
      <path id="Path_1855" data-name="Path 1855" d="M183.865,88.927c-.842,2.527-4.773,14.693-7.674,23.491-.749,2.246-1.965,2.995-3.369,2.995a2.387,2.387,0,0,1-2.527-2.059,2.141,2.141,0,0,1,2.153-2.246c1.123,0,1.965.936,2.714,1.685h.094c1.217-3.369,1.965-5.615,2.059-6.083-.187-.374-5.8-15.349-7.113-18.624-.468-.562-.936-1.029-2.9-1.123v-.468h9.733v.468c-1.123.187-2.059.468-2.059,1.4,0,.655,2.9,8.049,4.4,12.073.842-2.527,3.65-11.418,3.65-12.26,0-1.029-1.31-1.217-2.246-1.31V86.4h6.27v.468C185.643,87.149,184.333,87.336,183.865,88.927Z" transform="translate(-97.202 -76.48)" fill="#af7513"/>
      <path id="Path_1856" data-name="Path 1856" d="M212.261,105.019H197.1v-.374a6.231,6.231,0,0,0,3.463-1.5c.468-.562.562-2.62.655-4.4,0-1.5.094-5.241.094-8.329V82.558c0-1.872,0-4.024-.562-4.679a5.108,5.108,0,0,0-3.463-1.4V76.1H210.3c3.369,0,7.113-.094,10.482,1.4,4.4,1.965,8.142,5.8,8.142,12.728C228.92,102.3,219.655,105.019,212.261,105.019Zm1.872-27.983a17.768,17.768,0,0,0-3.744-.374,32.355,32.355,0,0,0-3.65.281c-.281,2.62-.281,7.3-.281,13.664v8.142c0,1.5.187,3.744.842,4.4,1.029,1.123,2.714,1.217,4.024,1.217a12.456,12.456,0,0,0,3.744-.468c5.335-1.685,8.049-6.738,8.049-13.758C223.118,84.055,219.28,78.065,214.133,77.036Z" transform="translate(-99.113 -75.819)" fill="#af7513"/>
      <path id="Path_1857" data-name="Path 1857" d="M232.6,105.089v-.374c1.217-.094,2.714-.468,2.714-1.4V89.928a1.113,1.113,0,0,0-.374-1.029,13.009,13.009,0,0,0-1.965-.936v-.281l6.27-2.246h.281v17.875c.094,1.029,1.5,1.123,2.62,1.31V105H232.6Zm4.679-22.836a2.578,2.578,0,0,1-2.527-2.527,2.516,2.516,0,0,1,2.527-2.527,2.459,2.459,0,0,1,2.527,2.527A2.578,2.578,0,0,1,237.279,82.254Z" transform="translate(-101.389 -75.89)" fill="#af7513"/>
      <path id="Path_1858" data-name="Path 1858" d="M255.631,105.66v-.468c1.4-.094,2.433-.374,2.433-1.217V94.149c0-2.9-.936-5.054-3.556-5.054a4.6,4.6,0,0,0-3.65,1.778v13.1c.187,1.029,1.123,1.029,2.153,1.217v.374H244.4v-.374c1.217-.094,2.246-.562,2.246-1.4V90.5a.815.815,0,0,0-.374-.842,17.4,17.4,0,0,0-1.872-.936V88.44l6.083-2.34h.281v4.4h.094c1.217-1.872,3.556-4.4,6.551-4.4,3.182,0,4.867,2.62,4.867,6.177v11.7c0,.842,1.5,1.123,2.433,1.217v.374h-9.078Z" transform="translate(-102.145 -76.46)" fill="#af7513"/>
      <path id="Path_1859" data-name="Path 1859" d="M281.158,105.854a3.6,3.6,0,0,1-3.837-3.744h-.094a6.557,6.557,0,0,1-5.709,3.744,3.648,3.648,0,0,1-3.837-3.931c0-1.5,1.4-3.088,3.182-4.118,3.556-2.153,5.335-2.9,6.458-3.65v-3.65a3.1,3.1,0,0,0-3.088-2.433,2.62,2.62,0,0,0-2.62,1.965V92.47c0,.749-1.217,1.5-2.246,1.5a1.874,1.874,0,0,1-1.965-1.685c0-1.4,1.217-2.246,2.34-2.9,2.62-1.591,6.27-3.088,7.768-3.182a3.929,3.929,0,0,1,3.743,2.246,7.16,7.16,0,0,1,.281,2.34c0,3.837-.094,5.428-.094,9.078,0,2.433,1.029,2.995,2.059,2.995a1.889,1.889,0,0,0,1.965-1.4h.281C285.463,103.42,283.684,105.854,281.158,105.854Zm-3.931-11.137c-1.778,1.31-5.615,2.62-5.615,5.615a2.583,2.583,0,0,0,2.433,2.62,3.926,3.926,0,0,0,2.808-.936,1.492,1.492,0,0,0,.374-1.123Z" transform="translate(-103.62 -76.467)" fill="#af7513"/>
      <path id="Path_1860" data-name="Path 1860" d="M298.131,105v-.468c1.4-.094,2.527-.374,2.527-1.217V93.582c0-2.995-.842-5.241-3.463-5.241a3.885,3.885,0,0,0-3.556,1.685,3.27,3.27,0,0,0-.281,1.123v12.26c0,1.029,1.123,1.123,2.246,1.31v.374h-8.7v-.374c1.217-.094,2.34-.562,2.34-1.4V80.854a.815.815,0,0,0-.374-.842,18.352,18.352,0,0,0-1.965-1.123v-.281l6.27-2.808h.281l-.094,13.851h.094a8.085,8.085,0,0,1,6.832-4.211c3.556,0,4.679,2.62,4.679,6.177v11.792c0,.842,1.5,1.123,2.433,1.217V105Z" transform="translate(-104.87 -75.8)" fill="#af7513"/>
    </g>
    <g id="Group_12903" data-name="Group 12903" transform="translate(86.035 109.866)">
      <path id="Path_1861" data-name="Path 1861" d="M123.788,119.5a29.68,29.68,0,0,0-3.182-3.463,13.579,13.579,0,0,0-2.9-2.153,13.623,13.623,0,0,0-2.433-.562,28.326,28.326,0,0,0-4.118-.187H107.6c0,.187-.094.281-.094.468s-.094.374-.094.562-.094.468-.094.842-.094.749-.094,1.217c0,.936-.094,1.965-.094,3.088v6.926h2.153c.562,0,1.029-.094,1.591-.094a5.665,5.665,0,0,0,1.4-.187,6.263,6.263,0,0,0,2.246-.842,4.139,4.139,0,0,0,1.31-1.217,4.767,4.767,0,0,0,.655-1.591c.094-.562.281-1.217.374-1.872h.468v12.915h-.468a18.758,18.758,0,0,0-.936-2.714,5.378,5.378,0,0,0-1.4-2.153,4.228,4.228,0,0,0-1.591-1.029,9.635,9.635,0,0,0-2.059-.468,3.509,3.509,0,0,1-1.029-.094h-2.808v8.61a19.763,19.763,0,0,0,.187,2.433,3.622,3.622,0,0,0,.468,1.685,2.377,2.377,0,0,0,1.217.842,7.99,7.99,0,0,0,2.527.374v.374H98.8v-.374a6.212,6.212,0,0,0,1.872-.562,3.909,3.909,0,0,0,1.4-1.029,1.4,1.4,0,0,0,.281-.749,3.364,3.364,0,0,0,.187-1.029c.094-.374.094-.842.187-1.31v-19a6.629,6.629,0,0,0-.094-1.4,4.742,4.742,0,0,0-.187-1.217c-.094-.374-.187-.655-.374-.749a2.274,2.274,0,0,0-1.31-.842c-.468-.094-1.029-.281-1.778-.374V112.2h22.368l2.714,6.738Z" transform="translate(-98.8 -112.2)" fill="#896a35"/>
      <path id="Path_1862" data-name="Path 1862" d="M144.25,136.27a10.344,10.344,0,0,1-2.059,3.182A9.779,9.779,0,0,1,139.2,141.6a9.316,9.316,0,0,1-3.556.749,10.478,10.478,0,0,1-3.276-.562,8.577,8.577,0,0,1-3.088-1.778,10.408,10.408,0,0,1-2.34-3.182A11.31,11.31,0,0,1,126,132.34a9.316,9.316,0,0,1,.749-3.556,9.452,9.452,0,0,1,5.054-5.241,9.266,9.266,0,0,1,3.931-.842,10.478,10.478,0,0,1,3.276.562A9.764,9.764,0,0,1,142,125.04a9.323,9.323,0,0,1,2.246,2.995,9.951,9.951,0,0,1,.842,4.211A11.443,11.443,0,0,1,144.25,136.27Zm-3.276-6.926a10.731,10.731,0,0,0-1.029-2.9,6.647,6.647,0,0,0-1.778-2.153,4.548,4.548,0,0,0-2.808-.842,3.594,3.594,0,0,0-2.34.842,6.847,6.847,0,0,0-1.778,2.153,13.361,13.361,0,0,0-1.123,2.9,13.041,13.041,0,0,0-.374,3.276,19.958,19.958,0,0,0,.281,3.463,8.864,8.864,0,0,0,1.029,2.9,5.4,5.4,0,0,0,1.872,1.965,5.117,5.117,0,0,0,2.714.749,3.609,3.609,0,0,0,2.62-.936,6.01,6.01,0,0,0,1.685-2.34,10.8,10.8,0,0,0,.936-3.088,18.9,18.9,0,0,0,.281-3.088A10.53,10.53,0,0,0,140.974,129.345Z" transform="translate(-100.544 -112.873)" fill="#896a35"/>
      <path id="Path_1863" data-name="Path 1863" d="M161.8,142.292h-.281v-4.024h0a7.381,7.381,0,0,1-1.123,1.4l-1.4,1.4a11.026,11.026,0,0,1-1.778,1.029,5.491,5.491,0,0,1-2.153.374,4.685,4.685,0,0,1-3.837-1.5,6.947,6.947,0,0,1-1.217-4.492V125.633c0-.187-.094-.374-.094-.562s-.094-.281-.094-.374c-.094-.281-.281-.374-.468-.562-.187-.094-.468-.187-.655-.281a2.061,2.061,0,0,0-.749-.094,1.825,1.825,0,0,1-.749-.094V123.2h6.177v11.7a7.215,7.215,0,0,0,.842,3.931,3.391,3.391,0,0,0,2.995,1.31,7.274,7.274,0,0,0,1.5-.187l1.123-.562a5.426,5.426,0,0,0,1.685-1.685V126.288a4.2,4.2,0,0,0-.094-1.029,5.814,5.814,0,0,0-.281-.936,3.93,3.93,0,0,0-1.31-.281,10.314,10.314,0,0,0-1.685-.187v-.468h6.738V139.3a.7.7,0,0,0,.094.468c0,.094.187.187.374.374a5.992,5.992,0,0,1,1.029.562c.468.187.842.374,1.217.562v.281Z" transform="translate(-101.903 -112.905)" fill="#896a35"/>
      <path id="Path_1864" data-name="Path 1864" d="M182.124,142.16v-.468a15.387,15.387,0,0,0,1.685-.281.746.746,0,0,0,.655-.842V130.461a7.156,7.156,0,0,0-.842-3.744,3.235,3.235,0,0,0-2.995-1.4,4.446,4.446,0,0,0-2.246.562,13.609,13.609,0,0,0-1.965,1.685v13.2a1.524,1.524,0,0,0,.281.562,2.046,2.046,0,0,0,.468.281,1.388,1.388,0,0,0,.655.094c.281,0,.468.094.749.094v.374H170.8v-.374a6.637,6.637,0,0,0,1.591-.374.9.9,0,0,0,.655-.936V126.624a.7.7,0,0,0-.094-.468c0-.094-.187-.187-.374-.374a3.794,3.794,0,0,1-.842-.468,4.372,4.372,0,0,0-.936-.468v-.281l5.241-1.872h.281V127h.094a12.428,12.428,0,0,1,1.123-1.5,7.037,7.037,0,0,1,1.5-1.4,7.313,7.313,0,0,1,1.872-1.029,5.477,5.477,0,0,1,2.059-.468,4.111,4.111,0,0,1,3.556,1.685,7.3,7.3,0,0,1,1.217,4.492v11.979a.515.515,0,0,0,.281.468,1.4,1.4,0,0,0,.655.281c.281.094.468.094.749.187a2.326,2.326,0,0,0,.749.094v.374Z" transform="translate(-103.416 -112.867)" fill="#896a35"/>
      <path id="Path_1865" data-name="Path 1865" d="M207.6,141.687h-.281v-4.024h0a8.5,8.5,0,0,1-2.714,2.995,7.2,7.2,0,0,1-3.931.936,7.626,7.626,0,0,1-2.9-.562,6.559,6.559,0,0,1-2.433-1.778,7.808,7.808,0,0,1-1.685-2.995,11.191,11.191,0,0,1-.655-4.118,10.877,10.877,0,0,1,.749-3.931,10.344,10.344,0,0,1,2.059-3.182,9.971,9.971,0,0,1,3.276-2.153,11.66,11.66,0,0,1,4.211-.749,15.529,15.529,0,0,1,2.246.187,10.112,10.112,0,0,1,1.965.468,12.7,12.7,0,0,0-.094-1.685v-5.522l-3.276-1.217v-.281L210.5,112.3h.281v26.111c.187.094.655.281,1.217.562a12.5,12.5,0,0,0,1.685.655v.281Zm-.281-15.161a6.851,6.851,0,0,0-2.246-2.62,4.671,4.671,0,0,0-2.527-1.029,5.117,5.117,0,0,0-2.714.749,6.3,6.3,0,0,0-1.872,1.965,6.728,6.728,0,0,0-1.029,2.808,19.574,19.574,0,0,0-.374,3.182,11.86,11.86,0,0,0,.374,3.182,8.007,8.007,0,0,0,1.217,2.714,7.447,7.447,0,0,0,1.965,1.872,5.117,5.117,0,0,0,2.714.749,3.809,3.809,0,0,0,2.808-1.123,5.107,5.107,0,0,0,1.5-2.9v-9.546Z" transform="translate(-104.84 -112.206)" fill="#896a35"/>
      <path id="Path_1866" data-name="Path 1866" d="M233.92,139.733a3.925,3.925,0,0,1-.842,1.31,3.561,3.561,0,0,1-1.217.842,4.372,4.372,0,0,1-1.591.281,3.845,3.845,0,0,1-2.433-.842,3.249,3.249,0,0,1-1.029-2.808h-.094a4.4,4.4,0,0,1-.842,1.123,5.47,5.47,0,0,1-1.31,1.217,7.185,7.185,0,0,1-1.685.936,6.66,6.66,0,0,1-1.965.374,6.32,6.32,0,0,1-1.31-.187,3.082,3.082,0,0,1-1.217-.655,2.85,2.85,0,0,1-.842-1.217,4.57,4.57,0,0,1-.374-1.778,2.989,2.989,0,0,1,.936-2.153,9.174,9.174,0,0,1,2.246-1.872c.842-.562,1.685-1.029,2.34-1.4s1.31-.749,1.778-1.029.936-.562,1.31-.749a10.212,10.212,0,0,0,1.03-.562v-4.118c0-.094-.094-.187-.187-.374s-.281-.374-.468-.655a4.092,4.092,0,0,0-.936-.562,3.729,3.729,0,0,0-1.591-.281,6.32,6.32,0,0,0-1.31.187l-1.123.562a5.35,5.35,0,0,0-.749.655,1.03,1.03,0,0,0-.281.562v1.778a1.293,1.293,0,0,1-.562,1.029,2.236,2.236,0,0,1-1.31.468,1.55,1.55,0,0,1-1.123-.468,1.5,1.5,0,0,1-.468-1.029,1.306,1.306,0,0,1,.281-.842c.187-.281.374-.468.562-.749.281-.187.468-.374.749-.562a5.222,5.222,0,0,0,.749-.468c.655-.374,1.4-.749,2.153-1.123s1.4-.655,2.059-.936,1.217-.468,1.778-.655a4.7,4.7,0,0,1,1.31-.281,3.931,3.931,0,0,1,1.965.562,3.5,3.5,0,0,1,1.31,1.31,2.5,2.5,0,0,1,.187,1.029v11.043a3.3,3.3,0,0,0,.655,2.433,2.064,2.064,0,0,0,1.4.562,2.092,2.092,0,0,0,1.4-.374,1.849,1.849,0,0,0,.562-1.029h.281A2.668,2.668,0,0,1,233.92,139.733Zm-7.113-8.517a14.721,14.721,0,0,1-1.778,1.123c-.749.374-1.4.842-2.153,1.31a9.4,9.4,0,0,0-1.778,1.5,2.714,2.714,0,0,0,0,3.744,2.356,2.356,0,0,0,1.872.842,6.034,6.034,0,0,0,1.872-.281,3.664,3.664,0,0,0,1.5-.936,1.55,1.55,0,0,0,.468-1.123Z" transform="translate(-106.359 -112.873)" fill="#896a35"/>
      <path id="Path_1867" data-name="Path 1867" d="M247.554,125.383H241.47v10.576a4.4,4.4,0,0,0,.842,2.995,2.775,2.775,0,0,0,2.246.936,4.341,4.341,0,0,0,1.965-.374,4,4,0,0,0,1.31-1.217l.281.094c-.187.374-.374.842-.655,1.31a4.581,4.581,0,0,1-1.123,1.217,4.751,4.751,0,0,1-1.685.842,8.19,8.19,0,0,1-2.246.281,4.372,4.372,0,0,1-1.591-.281,6.685,6.685,0,0,1-1.4-.749,4.963,4.963,0,0,1-.936-1.123,2.149,2.149,0,0,1-.374-1.31V125.29h-2.9v-.468L241,119.3h.281v3.463h7.393Z" transform="translate(-107.545 -112.655)" fill="#896a35"/>
      <path id="Path_1868" data-name="Path 1868" d="M249.4,141.6v-.374c.281,0,.655-.094.936-.094a2.236,2.236,0,0,0,.842-.187,1.509,1.509,0,0,0,.655-.374.809.809,0,0,0,.281-.562V126.154a1.187,1.187,0,0,0-.094-.562,1.644,1.644,0,0,0-.374-.468c-.281-.187-.562-.281-.842-.468-.374-.187-.655-.281-1.029-.468v-.281l5.428-1.778h.281v18.063a.86.86,0,0,0,.374.562,4.562,4.562,0,0,0,.655.281,2.06,2.06,0,0,0,.749.094c.281,0,.562.094.842.094v.374h-8.7Zm5.8-24.239a2.258,2.258,0,0,1-1.591.655,1.862,1.862,0,0,1-1.5-.655,1.994,1.994,0,0,1-.655-1.5,1.745,1.745,0,0,1,.655-1.5,2.2,2.2,0,0,1,1.591-.562,2.362,2.362,0,0,1,1.591.562,1.862,1.862,0,0,1,.655,1.5A3.226,3.226,0,0,1,255.2,117.356Z" transform="translate(-108.456 -112.303)" fill="#896a35"/>
      <path id="Path_1869" data-name="Path 1869" d="M278.65,136.27a10.344,10.344,0,0,1-2.059,3.182A9.78,9.78,0,0,1,273.6,141.6a9.316,9.316,0,0,1-3.556.749,10.478,10.478,0,0,1-3.276-.562,8.577,8.577,0,0,1-3.088-1.778,10.408,10.408,0,0,1-2.34-3.182,11.31,11.31,0,0,1-.936-4.492,7.847,7.847,0,0,1,.749-3.556,9.452,9.452,0,0,1,5.054-5.241,9.266,9.266,0,0,1,3.931-.842,10.478,10.478,0,0,1,3.276.562,9.764,9.764,0,0,1,2.995,1.778,9.323,9.323,0,0,1,2.246,2.995,9.95,9.95,0,0,1,.842,4.211A13.992,13.992,0,0,1,278.65,136.27Zm-3.276-6.926a10.73,10.73,0,0,0-1.029-2.9,5.793,5.793,0,0,0-1.778-2.153,4.548,4.548,0,0,0-2.808-.842,3.594,3.594,0,0,0-2.34.842,6.848,6.848,0,0,0-1.778,2.153,13.363,13.363,0,0,0-1.123,2.9,13.042,13.042,0,0,0-.374,3.276,19.96,19.96,0,0,0,.281,3.463,8.865,8.865,0,0,0,1.029,2.9,5.405,5.405,0,0,0,1.872,1.965,5.117,5.117,0,0,0,2.714.749,3.61,3.61,0,0,0,2.62-.936,6.009,6.009,0,0,0,1.685-2.34,10.8,10.8,0,0,0,.936-3.088,18.9,18.9,0,0,0,.281-3.088A10.525,10.525,0,0,0,275.374,129.345Z" transform="translate(-109.161 -112.873)" fill="#896a35"/>
      <path id="Path_1870" data-name="Path 1870" d="M293.924,142.16v-.468a15.386,15.386,0,0,0,1.685-.281.746.746,0,0,0,.655-.842V130.461a7.156,7.156,0,0,0-.842-3.744,3.234,3.234,0,0,0-2.995-1.4,4.446,4.446,0,0,0-2.246.562,13.609,13.609,0,0,0-1.965,1.685v13.2a1.525,1.525,0,0,0,.281.562,2.046,2.046,0,0,0,.468.281,1.388,1.388,0,0,0,.655.094c.281,0,.468.094.749.094v.374H282.6v-.374a6.636,6.636,0,0,0,1.591-.374.9.9,0,0,0,.655-.936V126.624a.7.7,0,0,0-.094-.468c0-.094-.187-.187-.374-.374a3.794,3.794,0,0,1-.842-.468,4.37,4.37,0,0,0-.936-.468v-.281l5.241-1.872h.281V127h.094a12.424,12.424,0,0,1,1.123-1.5,7.037,7.037,0,0,1,1.5-1.4,7.313,7.313,0,0,1,1.872-1.029,5.477,5.477,0,0,1,2.059-.468,4.111,4.111,0,0,1,3.556,1.685,7.3,7.3,0,0,1,1.217,4.492v11.979a.515.515,0,0,0,.281.468,1.4,1.4,0,0,0,.655.281c.281.094.468.094.749.187a2.326,2.326,0,0,0,.749.094v.374Z" transform="translate(-110.584 -112.867)" fill="#896a35"/>
    </g>
  </g>
</svg>
