<svg xmlns="http://www.w3.org/2000/svg" width="964.109" height="964.109" viewBox="0 0 964.109 964.109">
  <path id="Path_1833" data-name="Path 1833" d="M676.9,518.318c-2.083,2.189-1.449,4.469-2.355,6.265a25.743,25.743,0,0,1-3.231,5.178c-2.227,2.634-4.673,2.967-7.586,1.246a31.1,31.1,0,0,1-7.624-6.748c-11.942-13.98-27.069-22.495-44.71-27.13-4.831-1.268-9.881-2.295-15.316-5.246a.73.73,0,0,1,.008-.128c.015-.068.045-.113.06-.174,1.993.226,3.133.37,4.272.476,1.359.121,2.717.234,4.076.294,25.4,1.11,48.96,7.413,68.979,24.05,3.608,3,6.371,1.955,8.13-2.5,1.51-3.812,2.491-7.775,4.174-11.595,2.151-4.884,3.9-10.077,5.933-15.1-.121-1.366-1.1-2.914.309-4.016,2.355-1.834,1.8-4.129,1.313-6.469,3.148-4.439,3.185-9.27.891-13.867-3.533-7.1-4.371-14.893-6.446-22.366-.219-.785-.868-1.895-.566-2.3,3.321-4.469-.355-8.13-1.245-12.093a4.685,4.685,0,0,0-1.215-3.321h0a63.739,63.739,0,0,0-8.417-16.667c1.615-1.736,0-2.7-.989-3.669-2.28-2.219-4.733-4.589-4.725-7.828,0-5.45-3.744-8.4-6.869-11.776-7.617-8.228-17.233-13.157-27.824-16.4-13.021-3.986-25.99-8.59-39.9-7.05-23.2,2.574-43.525,12.032-61.1,27.228-7.541,6.514-14.206,13.927-17.837,23.521-.234.491-.468.989-.7,1.487a41.557,41.557,0,0,0-3.45,8.2,9.02,9.02,0,0,0-.31,1.2,37.651,37.651,0,0,0-3.291,8.326c-4.68,15.09-8.787,30.458-18.132,43.555-6.59,9.24-12.417,19.272-23.076,24.79-2.884,1.495-5.616,3.291-8.417,4.952a54.757,54.757,0,0,0-9.511,4.31A120.6,120.6,0,0,1,410.3,511.5c-12.516-.755-24.639-3.623-36.973-5.246-4.582-1.132-9.179-2.182-13.723-3.465-1.23-.347-3.14.038-3.45-2.031,9.036-.823,17.656,1.442,26.307,3.525,19.06,5.684,38.294,7.194,57.935,3.155,11.625-2.393,20.532-9.277,29.447-16.343,3.638-2.891,7.148-5.873,7.783-10.908a92.178,92.178,0,0,0,16.3-33.425c1.925-7.639,3.268-15.346,4.665-23.076,1.676-9.232,2.514-18.637,5.359-27.688a29.305,29.305,0,0,0,.981-11.708,36.517,36.517,0,0,0-1-13.338c-1.4-5.586-2.582-11.353-6.718-15.807-.808-.657.015-2.265-1.472-2.521-2.348-.642-2.7-2.808-3.533-4.612-4.824-10.485-9.685-20.947-18.494-28.881-4.68-9.149-11.889-15.95-20.208-21.687-7.345-5.058-14.78-9.987-22.178-14.969-2.182-.483-3.842-2.385-6.235-2.317h-.023c-.325.03-.649.053-.966.083h-.106c-.77-.023-1.578.076-2.159-.627q-4.19-.657-8.371-1.321a14,14,0,0,1-6.2-.483c-2.476.853-4.6-2.521-7.164-.589-3.427.1-6.046-2.823-9.519-2.544-.415-.219-.83-.445-1.246-.664h-6.1a1.922,1.922,0,0,1-.159-.4,1.044,1.044,0,0,1-.023-.151,173.215,173.215,0,0,1,20-12.817,64.83,64.83,0,0,1,15.565-2.619c3.035-1.012,6.182.528,9.255-.536,6.273-2.174,12.7-3.955,18.871-6.371,8.394-3.284,16.32-7.964,25.733-7.835,11.172.045,22.314-1.578,33.5-.453,4.959,2.31,10.636,1.9,15.6,4.008a32.135,32.135,0,0,0,13.678,2.861c.174-.151.34-.3.513-.453a.62.62,0,0,0,.03-.211.668.668,0,0,1,.113.038.824.824,0,0,0-.128-.1c-2.348-1.895-5.5-.664-7.994-1.955.627-.981,1.593-.672,2.521-.755,12.365-1.117,18.788-7.722,21.061-21.581,2.9,3.774,2.785,9.368-.2,14.093-3.367,5.314-8.628,7.835-14.237,9.889l-.121.045c.038.03.075.053.113.083,1.019.83,2.053.649,3.269.2,7.767-2.868,16.229-9.013,15-21.43-2.944-6.175-7.7-10.862-12.742-15.271-1.585-1.389-3.118-3.1-5.465-3.352-.7.181-1.4.355-2.106.536-1.11-1.268-2.287-2.491-3.314-3.82-5.586-7.232-14.863-7.632-22.125-11.791-1.419-.815-3.019-2.831-5.3-1.9-6.8-1.027-13.6-2.129-20.509-.891a21.16,21.16,0,0,1-4.544,1.313c-4.582,1.215-9.338,2.287-11.542,7.307-3.17.4-5.254,2.627-7.556,4.476l-12.75,5.752a7.537,7.537,0,0,1-5.1-.589c-4.4-1.993-8.462-4.378-11.428-8.311.045-.528.136-1.064.128-1.593-.113-8.734-4.816-16.3-6.288-24.714a2.709,2.709,0,0,0-3.9-1.759c-4.665,2.642-9.655,1.525-14.523,1.834-21.785-1.442-39.743,7.428-55.8,21.045a68.949,68.949,0,0,0-14.131,15.739c-5.058,8.047-7.118,16.984-8.53,26.178-.03.574-.06,1.14-.091,1.714a1.124,1.124,0,0,1,.053.408c.249,1.925-.959,3.578-1.238,5.465a6.691,6.691,0,0,1-.46-4.688c.015-.506-.008-1.012.045-1.517,1.321-11.844-1.479-22.223-10.8-30.27-2.861-3-6.62-4.114-10.492-4.974h0c-.694,1.049-.4,1.585.8,1.97,2.121.679,4.2,1.517,6.288,2.287,9.187,6.779,13.27,16.086,12.659,27.258a302.857,302.857,0,0,0-.362,31.628c-.377.159-.747.317-1.125.476-2.174-9.926-4.748-19.8-5.473-29.968-1-14.01-7.194-25.31-17.248-34.769h0c-1.23-.853-2.468-1.691-3.684-2.559-9.013-6.446-18.645-8.2-28.926-3.472a37.062,37.062,0,0,1-8.032,2.725h0c-3.654,1.457-7.526,1.955-11.368,2.612a23.386,23.386,0,0,0-8.953,3.842c-1.4.936-1.4,1.019-2.249,3.714,8.349-7.76,18-7.684,27.892-5.775,9.051,1.751,15.98,7.247,22.472,13.391,14.433,14.546,21.536,32.421,24.2,52.447.944,7.111,2.076,14.259,4.748,21.015q1.381,2.831,2.763,5.669c-2.9-.634-2.929-3.352-3.91-5.375h0c-.838-1.329-1.668-2.657-2.506-3.986-2.687-7.722-4.348-15.709-6.235-23.642-2.491-10.44-6.371-20.336-13.444-28.594-14.282-16.682-32.172-25.786-54.478-24.344-10.206.657-15.777,6.439-17.347,16.448-.234,1.487-.294,3-1.449,4.137a13.865,13.865,0,0,0-7.783,10.138,7.472,7.472,0,0,1-3.412,5.427c-.649,1.789-2.37,3.2-1.7,5.677,2.272-3.986,5.012-7.375,9.307-9.111a30.737,30.737,0,0,1,22-.491c8.183,2.74,15.158,7.526,21.679,12.923,13.089,10.825,24.352,23.446,34.965,36.656,4.786,5.956,9.368,12.07,15.112,17.173a82.692,82.692,0,0,0,22.774,17.241c1.668.943,4,.785,4.907,2.982-.06.015-.121.023-.181.038-2.2.476-3.329-1.51-4.982-2.28a3.229,3.229,0,0,1-2.536-.521c-12.878-6.869-23.906-16.033-33.87-26.639-11.64-12.387-21.838-26.1-35.063-37.033-16.531-13.663-34.361-18.849-54.81-9.579-1.079,2.015-3.827,3.525-3.374,5.843.544,2.755-1.072,3.888-2.325,5.586-1.653,2.242-3.872,4.408-2.657,8.1,7.292-14.071,17.762-18.4,32.7-13.459a88.926,88.926,0,0,1,35.388,22.17c6.635,6.65,12.342,14.191,19.619,20.2,5.035,3.955,9.541,8.575,15.1,11.859q6.012,3.363,12.017,6.733a8.726,8.726,0,0,1-.906-.113.381.381,0,0,1-.091-.015c-2.9-.536-5.269-2.393-8.017-3.268-2.265-1.615-5.193-2.167-7.1-4.378-2.438-1.706-5.556-2.333-7.5-4.8q-2.763-3.035-5.518-6.077h0c-8.032-6.545-15.558-13.678-24.1-19.634a76.959,76.959,0,0,0-38.234-13.821,36.323,36.323,0,0,0-20.162,3.88c-5.82,3.027-9.2,7.85-9.307,14.674-.038,2.317-.528,4.544-2.65,5.994h0c-7.488,3.676-9.972,11.934-15.731,17.2-.438.4-.309.981.31,1.283-2.166.513-2.891,2.061-2.936,4.091a6.753,6.753,0,0,1-3.231,4.265,31.269,31.269,0,0,0-9.028,7.835c-3.193,1.193-1.079,4.257-2.174,6.19h0c-1.087-.725-1.729-.325-2.076.815-3.533,2.159-4.3,6.643-7.42,9.043-2.778,2.136-3.45,4.771-2.906,7.9.287,1.638-.159,3.276-.008,4.748.37,3.578-1.48,6.748-1.23,10.236a21.1,21.1,0,0,0,22.08,19.589c1.57-.053,3.042-.611,4.265,1.276,3.8,5.835,9.617,7.065,15.814,5.412a29.123,29.123,0,0,1,12.334-.747c2.333.355,3.155,1.064,3.752,3.193,1.464,5.224,4.7,8.809,10.259,9.941a16.038,16.038,0,0,1,2.989,1.261c4.733,9.187,14,9.172,22.359,11.021,8.515,5.1,17.6,6.016,27.137,3.721a2.668,2.668,0,0,1,1.593-.015c5.359,2.521,10.93,1.751,16.4.83a43.17,43.17,0,0,1,11.708-.589,20.819,20.819,0,0,0,16.154-5.352c8.077-2.416,14.856-7.488,22.4-10.991,1.17-.544,2-1.812,3-2.725.589-.544,1.193-1.517,1.8-1.517,4.529-.03,6.333-3.533,8.719-6.416,4.288-5.178,6.982-11.2,9.466-17.347,1.63-4.106,4.446-7.722,5.065-12.251a6.011,6.011,0,0,0,3.442-4.574,28.982,28.982,0,0,0,.536-11.534c2.763-2.393,3-5.5,2.491-8.817,1.442-2.521,2.536-5.133,2.121-8.137-.113-2.015-.332-4.046,1.049-5.782a26.816,26.816,0,0,0,.445-4c-.31-9.209-2.416-17.724-9.76-24.1-1.374-1.087-2.121-1.865-.6-3.812,2.778-3.578,5.171-7.451,8.485-10.613q2.536-1.506,5.073-3.019c3.955-1.238,8.069-2.476,11.693.438,9.013,7.247,17.294,15.459,21.793,26.178,8.077,19.219,9.964,39.275,4.861,59.672-2.944,11.768-6.394,23.4-8.756,35.312-.219.634-.5,1.246-.657,1.895-6.386,26.186-15.55,51.21-30.655,73.772-.1.883-.906,1.683-.385,2.642.015.03.023.06.038.091h0a.566.566,0,0,1,.038-.045c13.58-18.4,21.664-39.381,28.3-61,2.023-6.6,4.356-13.135,5.5-19.981,3.427-13.293,7.956-26.428,10.017-39.932,2.929-19.219,1.412-38.505-7.835-56.071a62.178,62.178,0,0,0-25.7-26.111,2.274,2.274,0,0,1-.521-.551c.211-.128.43-.249.642-.377,12.719,3.261,22.7,10.274,29.53,21.581a139.073,139.073,0,0,1,11.67,49.972,40.157,40.157,0,0,1-.46,8.084c-3.042,6.605-4.461,13.648-5.578,20.766a127.544,127.544,0,0,1-4.884,21.43c-5.163,15.165-10.455,30.285-15.693,45.42h0c-5.782,11.625-11.051,23.559-19.717,33.478-1.774,2.031-3.737,3.91-5.616,5.858-1.321,3.253-5.526,2.921-7.179,5.767-3.027,2.521-6.069,5.02-9.081,7.556-1.842,1.555-3.465,3.48-6.212,3.314a39.808,39.808,0,0,0-8.968-3.9c-10.87-2.936-22.012-3.465-33.168-3.812-13.572-.423-25.627,2.989-34.837,13.716a24.4,24.4,0,0,1-3.827,3.012c-8.537,4.65-16.984,9.519-26.6,11.73a65.725,65.725,0,0,1-21.612-.332c-13.8-3.321-27.7-4.423-41.7-1.412-7.941,1.706-15.8,3.4-23.378,6.847-7.609,3.465-16.033,5.141-24.1,7.594l-8.756,1.495.362,1.11a3.393,3.393,0,0,1,.808-.106c.989.128.672.642.128.853-1.781.687-3.6,1.261-5.4,1.887-5.156,1.781-10.523,3.118-15.429,5.435-29.779,14.078-46.982,37.026-48.975,70.473.906,2.453-.2,4.907-.015,7.36q1.936,19.045,3.865,38.09c.619,6.19.566,12.229-4.152,17.128-3.8,4.348-8.424,7.586-13.338,10.583-3.269,1.993-6.386,3.329-10.274,2.612-9.466-1.751-18.909-.03-28.919-.174,1.313,1.759,1.412,3.654,3.442,3.82,5.6.453,10.025,3.525,14.116,6.869,14.886,12.146,29.613,24.488,44.37,36.792,8.583,7.148,17.014,14.493,26.858,19.943h0c6.394,4.423,12.923,8.681,20.321,11.172,12.206,4.114,23.37.589,34.067-5.359,1.147-.642,2.159-1.789,3.48-.355l1.306-.43c.928-.068,1.51.015,1.019,1.245-.823,2.068-2.061,4.008-2.265,6.3a109.056,109.056,0,0,0-7.858,31.183c-1.321,11.489-6.039,21.1-14.818,28.677-1.532,1.329-2.967,2.778-4.446,4.167-2.884,1.834-5.85,3.45-9.451,3.276-.226-1.51,1.072-1.849,1.827-2.484,11.549-9.753,17.4-22.366,18.788-37.237,1.744-4.718,3.261-9.511,5.563-14.018,3.457-6.779,6.839-13.6,10.251-20.4a1.253,1.253,0,0,0-1.412.453c-6.869,7.254-15.769,9.7-25.288,10.7-12.863,1.351-24.367-3.344-35.675-8.409C73.39,761.02,63.69,754.218,54.284,747.01Q44.343,735.947,34.4,724.877a87.026,87.026,0,0,0-22.495-18.124,6.5,6.5,0,0,0,2.921,4.054c7.662,5.042,14.259,11.27,20.532,17.951,5.669,6.039,10.425,12.916,16.864,18.237a26.185,26.185,0,0,0,2.846,2.869c13.059,9.76,26.926,18,42.544,23.136,13.248,4.355,26.194,4.537,39.019-1.321.249-.113.611,0,1.246.023a9.845,9.845,0,0,1-5.269,4.137c-5.707,2.31-11.579,4.2-17.822,4.069-20.4-.423-39.268-6.167-56-17.815-9.874-6.877-17.354-16.433-25.25-25.439-1.389-1.585-2.725-3.216-4.386-5.186a3.08,3.08,0,0,0,1,3.019C40.417,747.968,51.2,760.929,66.792,768.7c20.411,10.175,41.276,17.271,64.314,9.322,1.321-.46,1.751-.143,1.344,1.215-4.356,3.82-9.572,5.692-15.173,6.613-15.429,2.529-30.058-1.027-44.431-6.107-6.394-2.257-12.138-5.843-17.973-9.172,9.209,9.005,20.894,12.9,33.131,15.58,12.38,2.71,24.8,4.054,37.26-.181-2.574,3.721-5.82,5.941-10.123,6.447a76.054,76.054,0,0,1-20.366-.317c-10.742-1.646-20.834-5.4-31.04-9.307.1,2.038,1.442,2.514,2.717,2.959,5.269,1.857,10.47,3.993,15.852,5.45,9.874,2.68,19.875,4.763,30.209,2.868,3.133,2.672-1.721,1.7-1.4,3.08a14.908,14.908,0,0,1-8.636,1.97c-5.548-.664-11.142-1.215-16.433-3.095-6.054-2.144-12.017-4.522-18.026-6.8,9.964,6.779,21.091,10.3,33.365,11.572-9.934,6.454-18.305.023-27.832-2.416,3.035,4.061,7.715,3.321,10.7,5.948-2,1.034-3.888.075-6.711.476,5.45,3.638,10.893.445,16.38,1.91v.076c-4.257,1.864-8.175,2.355-12.689,3.185,3.367,2.529,6.409-.143,9.383.861a2.185,2.185,0,0,1,.121.219c-1.449,2.174-4.114,2.423-6.386,4.808a13.422,13.422,0,0,0,6.847-2.144c6.484-3.54,11.459-9.262,18.094-12.576.581.242,1.495.423.657,1.276-6.16,6.273-10.56,14.267-18.4,18.9-.687.408-1.676.71-1.011,1.736.619.966,1.457.347,2.114-.083A37.9,37.9,0,0,0,96.3,820.4c4.529-3.774,8.115-8.394,11.715-13.014a32.683,32.683,0,0,1,7.337-7.534c-2.2,4.552-4.016,8.915-6.341,12.991-3.389,5.933-7.186,11.625-14.071,14.154-.483.174-1.11.264-.868,1.019.287.913,1,.762,1.661.544a19.112,19.112,0,0,0,8.069-5.352c7.737-8.356,11.564-18.977,16.728-28.828.951-1.11,1.91-2.227,3.155-3.676a2.25,2.25,0,0,1,.226.121c-4.129,17.581-9.368,33.84-26.639,43.782,3.359.808,4.393-.725,5.624-1.623,10.1-7.39,16.3-17.354,19.226-29.447C124.018,795.7,126.214,788,132.1,782c1.117-1.351,2.2-2.748,3.374-4.054,1.057-1.17,1.63-2.891,3.82-3.616-4.106,8.19-8.945,15.565-10.258,24.344-.045.279-.091.551-.128.838a34.319,34.319,0,0,0-.83,3.563c-1.472,11.806-7.277,21.219-15.844,29.183-3.291,3.057-6.416,6.288-11.564,5.359,1.449,4.235,4.386,2.31,6.658,2.023A101,101,0,0,0,164.5,812.931c14.35-13.285,19.845-29.266,14.169-48.492-1-3.389-2.265-6.862-2.37-10.326-.362-12.274,1.736-23.65,13.716-30.481a12.253,12.253,0,0,0,2.061-1.91c7.081-4.273,11.383-10.681,13.957-18.351,4.891-14.569.861-28.051-5.186-41.268-1.872-4.6-1.457-9.677-2.951-14.357-.136-1.751-.2-3.51-.408-5.254-2.091-17.777-4.65-35.524-3.367-53.512l2.627-15.829a1.317,1.317,0,0,0,.075-.468c2.551-12.644,10.274-22.17,18.63-31.41a45.937,45.937,0,0,1,16.622-11.444c3.7-1.57,7.813-2.1,11.172-4.5.393-.325.77-.913,1.17-.921a60.456,60.456,0,0,0,17.966-2.831c1.736-.6,2.121,0,1.812,1.751-.649,3.721-1.178,7.481,0,11.217a126.469,126.469,0,0,0,7.156,24.9c2.038,4.959,3.85,10.228,9.043,13.074,5.276,4.046,11.195,4.567,17.709,4.235,9.926-.5,20.253-2.121,29.077,4.688,1.193.921,1.948-.257,2.891-.536,1.246,1.193,2.491,2.378,3.737,3.57,1,2.287,4.446,1.864,5.08,4.371,2.046,8.069,9.262,11.127,14.946,15.656a3.686,3.686,0,0,0,3.08.845c.921-.211,1.63-.1,2.015.808,2.2,5.254,6.492,8.968,9.7,13.459,8.009,11.21,19.355,12.357,29.07,2.242,3.17-.679,5.352-3.05,8-4.627,6.16-3.654,12.387-7.126,19.807-7.405h0c10.357,2.219,20.676,4.582,30.9,7.375,10.945,2.989,21.861,4.272,32.444-1.434,7.4-2.37,13.595-6.665,19.453-11.67,15.067-12.855,18.336-24.216,12.636-43.276-3.329-11.134-9.919-20.1-17.249-28.836-8.439-10.055-15.792-20.864-19.589-33.674-1.57-5.284,1.049-9.557,6.484-10.425,1.864-.294,3.752-.393,5.631-.581,1.895,1,3.971.574,5.963.74,25.756,2.151,42.2,14.471,52.689,40.045,4.386,8.175,4.959,17.43,7.322,26.171,1.14,4.2,2.363,8.356,4.763,12.048,6.122,13.067,21.43,22.759,30.738,18.139-7.428.423-13.1-1.261-18.049-5.284-4.612-3.744-8.039-8.432-11.315-13.278a71.426,71.426,0,0,1-6.024-19.483,83.272,83.272,0,0,0-19.264-41.374c-.574-.657-1.547-1.23-1.283-2.763,10.425,6.477,19.264,14.229,25.371,24.9,5.548,9.7,8.477,20.381,11.844,30.9,1.457,4.552,2.763,9.149,5.073,13.369a29.824,29.824,0,0,0,10.138,11.029c6.062,3.88,12.682,3,17.935-1.895,2.823-2.634,6.431-4.393,9.043-7.352,3.035,1.978,6.356.725,9.549.861q3.125-1.574,6.25-3.14c5.035.136,8.726-1.781,10.387-6.8-.121-1.162-.7-2.34.257-3.45,2.053-2.4,4.2-4.537,7.383-5.593,2.582-.853,5.458-1.895,5.012-5.6,5.11-2.423,6.22-8.024,8.779-12.2a69.683,69.683,0,0,1,4.6-6.96c2.619-3.291,4.393-6.884,3.548-11.949ZM369.6,499.107c-2.061-.091-4.121-.174-7.345-.31a10.467,10.467,0,0,1,6.122-1.434c1.019-.128,2.031-.257,3.05-.377,9.851.928,19.785-.385,29.621,1.072,4.159.619,8.386.823,12.448,2.053a4.1,4.1,0,0,1,1.487.3l8.469,1.721c0,.4,1.495,1.027.287,1a62.287,62.287,0,0,1-8.364-1.246c-11.738-.408-23.514.966-35.237-.687-.861-.249-1.691-.71-2.627-.332q-3.952-.872-7.911-1.751Zm111.734-27.25a2.537,2.537,0,0,1-.71.74,27.078,27.078,0,0,1-6.56,7.632,58.045,58.045,0,0,1-22.865,6.635c-8.356.7-16.728,1.306-25.091,1.955-18.758-1.834-37.071.793-55.18,5.458a.656.656,0,0,0-1.057.091c-.513-1.955,1.313-2.023,2.265-2.574a48.612,48.612,0,0,1,26.609-6.446c12.365.445,24.714.37,37.063.053,8.537-.219,17.173-.128,25.107-4.144,7.934-2.891,14.727-7.692,21.627-12.621-.634,1.321-1.276,2.642-1.91,3.963.249-.242.483-.491.71-.74Zm-10.855,13.527c-.053.045-.113.083-.166.121-.008,0-.023.015-.03.023-12.108,9.353-25.5,8.749-39.3,4.952,1.555-1.676,3.676-1.049,5.541-1.23,8.235-.83,16.607-.415,24.706-2.491,2.891-.74,5.661-1.9,8.522-2.77,2.416-.732.536.9.725,1.4ZM437.8,504.761Zm-48.039-.423a5.874,5.874,0,0,1-.528-.619c-.038-.06.1-.34.136-.332,9.972,1,19.989-1.23,29.968.506,6.107,1.064,12.266,1.842,18.486.891.325.377.649.762.981,1.14-16.479,3.4-32.8,2.114-49.043-1.593Zm72.059-9.685a47.637,47.637,0,0,1-23.423,1.027c-1.623-.151-3.238-.325-4.861-.46-14.606-1.223-29.175-3.133-43.887-2.008.008,1.857,1.608.679,2.31,1.208,3.789,0,7.579-.015,11.368,0,18,.053,35.773,4.612,53.874,2.77.091-.008.226.415.34.642-12.191,6.5-24.8,5.118-37.448,1.857a157.074,157.074,0,0,0-27.832-4.2q-8.379.079-16.758.166a43.837,43.837,0,0,1,13.708-3.669,102.734,102.734,0,0,1,47.239,1.895h0c6,.687,11.972,1.827,18.064.642a41.908,41.908,0,0,0,14.569-5.8c.106.37.211.747.317,1.117a32.193,32.193,0,0,1-7.571,4.816Zm22.57-30.406c-7.315,6.258-15.014,11.934-23.876,15.867a41.151,41.151,0,0,1-15.988,3.359h0c-6.839,1.042-13.723.574-20.585.672-11.051-.075-22.1-.166-33.161-.2a8.629,8.629,0,0,0-2.317.657h0c-1.57.551-3.118,1.381-4.786.279q2.185-.759,4.363-1.517c8.6-3.042,17.4-2.144,26.2-1.381q4.246.374,8.492.732h0c7.111-.053,14.237.181,21.332-.476,13.074-3.185,25.356-8.069,35.644-17.03,2.816-2.453,5.246-5.344,8.235-8.424-.211,3.329-2.031,5.337-3.57,7.473Zm13.957-48.492c.181,3.035-1,5.624-1.88,8.213-7.277,21.672-22.472,35.176-43.8,42.363-13.988,4.71-28.534,5.722-43.1,6.62a10.037,10.037,0,0,1-6.537.128,12.013,12.013,0,0,1,6.039-1.57c9.368-2.461,19.1-3.2,28.39-6,25.756-7.767,45.186-23.423,58.471-46.779.589-1.027.853-2.325,2.408-2.974Zm5.284-30.927c-1.064,39.373-37,73.583-73.372,80.506-4.272.815-8.553,1.532-12.833,2.295,1.887-2.2,4.7-2.65,7.164-3.737,9.8-4.34,20.472-6.779,29.22-13.421h0c19-11.444,34.935-25.643,42.227-47.481a59.066,59.066,0,0,0,2.717-23.4c-.543-7.194-1.087-14.388-1.706-22.661,5.178,9.292,6.122,18.532,6.59,27.892Zm-7.79-19.453c2.748,19.241,1.978,37.811-9.889,54.425-7.473,10.47-16.863,18.856-27.424,26.05-1.683,1.147-3.344,2.333-5.012,3.5-5.933,2.914-11.353,6.9-17.86,8.636-2.34,1.019-4.506,2.642-7.3,2.038h0c2.265-1.079,4.2-2.861,6.831-3.193,25.741-13.678,44.559-33.433,53.731-61.544a117.967,117.967,0,0,0,5.79-29.507c-.649-1.849.166-3.714-.023-5.563,2.038,1.344,1.4,3.3,1.162,5.156Zm-18.094-39.894c6.59,8.3,10.643,17.981,14.818,27.59,1.615,22.729-3.888,43.782-15.384,63.265-10.032,17-24.676,29.16-41.872,38.445-1.412.762-2.951,1.276-4.439,1.9-1.276,2.031-3.767,2.091-5.51,3.367a3.021,3.021,0,0,0-.3.242h0q-6.726,3.046-13.459,6.092h0c.166-2.408,2.529-1.97,3.835-2.884a36.638,36.638,0,0,1,4.174-2.212q5.616-3.25,11.232-6.492c5.714-3.374,10.387-8.032,15.316-12.372,6.786-4.476,12.5-10.206,18.434-15.686h0c.121-.649.687-1.313-.045-1.948-4.3,3.835-8.575,7.692-12.908,11.489-.5.438-1.691,2.529-1.623-.347q1.823-2.718,3.638-5.435c.008,0,.015-.015.023-.015,4.975-3.45,7.956-8.681,11.655-13.248,4.733-5.835,8.13-12.576,12.07-18.939,2.287-5.307,6.386-9.639,8.168-15.218a77.267,77.267,0,0,0,1.849-22.148c-.332-7.043-1.427-13.98-4.869-20.306q-3.974-8.741-7.941-17.475c2.046-.6,2.355,1.321,3.148,2.325Zm-3.706.257q3.589,7.688,7.171,15.369c.242.77.468,1.547.717,2.31,5.541,17.324,5.654,34.172-4.144,50.251-2.823,4.635-5.352,9.443-8.017,14.176-2.944-.377-.657-2.136-.468-2.77,2.129-7.179,4.484-14.289,6.748-21.423,5.578-17.573,4.5-34.927-1.774-52.1-.7-1.917-1.3-3.872-1.94-5.812a18.164,18.164,0,0,1-2.65-8.711c2.159,2.551,3.276,5.616,4.348,8.7Zm-5.9-1.012c.325,2.016.574,4.038.981,6.039,2.574,12.606,4.25,25.273,2.514,38.158.445-.355.883-.71,1.321-1.057,1.925-11.987.506-23.786-1.948-35.531-.385-2.159-1.955-4.227-.528-6.537.679,1.781,1.857,3.4,1.683,5.45,4.008,11.919,7.435,23.952,5.3,36.731a204.525,204.525,0,0,1-15.573,50.9c-.008.015-.015.038-.023.053q-3.114,3.737-6.235,7.481c-.128.038-.272.068-.415.1-.559-.657-.113-1.321.143-1.993q4.744-12.5,9.5-25.016c-.377.128-.755.249-1.132.377-5.239,10.794-8.417,22.525-14.856,32.776C441.05,444.025,431.426,453.43,419.19,460c-3.487.853-6.318,3.072-9.489,4.574-1.313,1.17-2.763,2.219-3.533,3.88l-4.537,1.4c-.128-.2-.257-.385-.393-.581q4.223-3.272,8.454-6.545c6.1-6.869,13.92-11.761,20.562-18.049a114.207,114.207,0,0,0,34.58-63.5c2.363-12.606,4.733-25.212,2.876-38.143-.211-1.472-.513-2.936-.778-4.4-1.54-17.347-8.477-32.134-21.151-44.227,12.01,6.816,22.631,14.591,22.351,30.315ZM414.623,439.881a5.231,5.231,0,0,0,.974-1.291c.876-1.155,1.8-2.37,2.9-3.827-.34,4.544-2.551,7.858-4.069,11.414-.483,1.132-1.932,2.234-.166,3.48a15.426,15.426,0,0,1-4.242,7.367,28.834,28.834,0,0,1-15.8,13.9c-3.918,3.367-9.285,3.6-13.686,6.175.642-2.061,2.31-3.261,3.888-4.469,11.987-9.156,22.427-19.717,30.2-32.746Zm14.071-25.341c3.05-9.368,8.681-17.694,11.527-27.062,5.888-19.407,2.657-38.792-1.381-58.071-1.427-7.813-5.435-14.456-9.421-21.144-4.808-8.069-9.1-16.471-15.535-23.469,1.8-.936,2.574.7,3.616,1.5,5.435,4.182,8.681,10.16,12.651,15.535,10.017,19.158,16.713,39.358,19.1,60.909a59.176,59.176,0,0,1-5.767,33.795c-4.952,9.874-9.262,20.064-14.939,29.583-1.313,2.2-3.5,3.82-4.227,6.4-1.162-3.269,1.253-5.82,1.8-8.749.581-3.125,2.295-5.963,2.574-9.2v-.045Zm10.062-124.672c3.706,3.4,7.05,7.186,10.47,10.893A56.912,56.912,0,0,1,464,331.649c.377,2.544,1.1,5.035,1.668,7.556h0A138.056,138.056,0,0,1,449.935,417c-6.311,11.987-15.61,21.272-25.424,30.217-.536,1.864-2.234,2.619-3.57,3.706.1-2.544,1.925-3.948,3.586-5.458a14.568,14.568,0,0,1,1.427-2.453c8.009-9.172,14.176-19.566,19.9-30.217a111.434,111.434,0,0,0,12.274-38.588c1.389-10.734.023-21.415-.559-32.112a42.96,42.96,0,0,0-2.884-13.082c-2.136-5.578-4.114-11.225-6.394-16.743-3.993-9.692-8.469-19.113-16.554-26.239,3.321-.536,5.1,2.076,7.035,3.85Zm-15.1-8.409a15.558,15.558,0,0,0,4.6,3.163,2.078,2.078,0,0,0,1.457,1.359A79.34,79.34,0,0,1,444.19,308.1c2.989,6.862,5.48,13.935,8.3,20.872a42.2,42.2,0,0,1,3.05,12.236c1,11.391,1.97,22.789,1.079,34.24a136.222,136.222,0,0,1-22.985,54.546c-5.133,7.194-10.372,14.32-15.565,21.468l-2.642,2.483c1.849-7.081,6.235-12.87,9-19.43,1.7-.166,1.91-1.774,2.6-2.823,7.835-11.9,13.467-24.941,19.528-37.758a55.6,55.6,0,0,0,4.967-28.292,111.429,111.429,0,0,0-3.948-23.755c-4.159-13.972-7.843-28.126-16-40.513-4.137-7.511-9.33-14.078-16.69-18.713-1.042-1.027-2.71-1.313-3.487-3.095,4.325-.136,8.288.974,12.274,1.895Zm2.521,24.827c4.265,7.639,9.187,14.969,11.346,23.62,2.982,11.678,3.389,23.657,4.129,35.6a52.356,52.356,0,0,1-5.563,28.058c-.113.377-.242.747-.377,1.117-1.744,5.141-4.454,9.858-6.658,14.8-.287.732-.574,1.464-.868,2.2h0c.438,1.54-.8,2.68-.974,4.076h0c-2.129,6.816-4.257,13.633-6.6,21.113-.438-2.77,1.057-4.673.506-6.733.77-5.752,3.072-11.051,4.846-16.509,2.846-10.138,6.122-20.185,7.881-30.587,3.329-19.785,3.238-39.471-2.491-58.894h0c-1.329-6.341-4.7-11.881-6.975-17.852-1.714-1.842-2.408-4.242-3.419-6.446-4.084-8.915-11.24-15.142-18.426-21.362h0c12.153,5.646,17.55,17.03,23.642,27.817Zm32.693-66.39c8.673-10.258,20.691-19.573,10.07-35.259,5.639.31,11.3,7.979,9.224,16.056-2.551,9.949-10.2,15.256-18.705,19.641-.1.053-.393-.287-.6-.445Zm12.319,1.427c-.694-1.449.793-1.4,1.351-1.676,3.759-1.88,6.952-4.544,10.228-7.1h0a57.854,57.854,0,0,0,3.57-5.352c4.68-9.013,1.442-19.09-7.956-24.9-1.374-.845-2.914-1.434-4.6-2.249,5.956-1.615,12.214,1.155,15.686,6.884a57.253,57.253,0,0,1,2.74,5.888c1.744,9.315-2.491,16.026-9.413,21.559-3.231,3.367-6.862,6.077-11.595,6.937Zm29.877-7.224a28.017,28.017,0,0,0,9.375-22.8c-.226-5.616-2.876-10.274-6.046-15.067,6.643,1.857,10.915,8.409,11.376,16.856.491,9.119-5.812,18.909-14.282,22.155-.143-.377-.287-.762-.423-1.14Zm42.506,4.854c-5.141,4.4-11.247,5.8-17.762,6.114-1.147-.823-3.374.687-3.767-1.759,7.677-1.4,14.576-4.25,19.513-10.666,3.533-4.6,4.363-9.738,2.733-15.6,6.779,5.473,6.22,15.973-.71,21.9Zm-5.465-4.741c-4.756,4.627-10.749,6.628-16.7,8.832-2.68-.415-5.314,1.072-8.424-.113,3.193-.679,6.084-1.17,8.907-1.917,5.571-1.487,10.825-3.6,14.72-8.168,4.922-5.76,5.2-11.964,1.94-18.57-.642-1.306-.611-1.321.445-1.985,7.171,6.537,5.042,16.161-.883,21.921ZM523.33,201.776c3.91,2.785,7.315,6.084,9.345,10.508,3.208,6.975,1.336,13.512-5.133,18.713-4.975,4-10.832,6.061-16.811,7.9.128.37.257.747.377,1.117,6.363-1.563,12.561-3.525,17.664-7.881,5.548-4.741,8.734-10.357,6.3-17.92,1.9-1.2,1.9.838,2.257,1.563a14.564,14.564,0,0,1-4.423,18.539c-6.635,5.08-14.456,6.537-22.548,7.05-.664.151-1.329.3-1.985.445h0c-.075-.015-.143-.023-.219-.038a13.291,13.291,0,0,1-5.42-1.623c2.559-1.042,4.7-1.91,6.847-2.785h0c8.575-3.684,14.727-9.6,16.6-19.015A16.956,16.956,0,0,0,521.224,202c.5-1.774,1.457-.687,2.091-.234Zm-18.011-8.356h0c4.3,1.827,8.537,3.774,12.123,6.862,1.948,2.574,4.574,4.6,5.82,7.752,2.989,7.533.9,15.935-5.571,21.853a39.964,39.964,0,0,1-13.988,8.122c-.551-.551-.038-1.072.045-1.6,12.855-8.047,17.286-20.63,11.368-32.949a20.228,20.228,0,0,0-4.348-6.363,9.868,9.868,0,0,0-7.805-2.5c-.7.053-1.155-.611-1.178-1.578,1.193.136,2.37.272,3.54.4Zm-2.567,3.933c10.734,11.889,7.375,36.92-16.63,41.3-1.027,1.653-2.831.921-4.31,1.359a5.712,5.712,0,0,1,3.9-2.483A40.259,40.259,0,0,0,498,225.894a22.617,22.617,0,0,0-8.024-32.685c5.254-1.291,9.2.181,12.772,4.137Zm-30.534-.71c3.729-2.378,7.934-3.08,12.274-3.185a19.724,19.724,0,0,1,13.663,28.367,30.447,30.447,0,0,1-8.16,10.5c-1.019,1.691-2.6,2.521-4.718,3.186.861-1.819,1.744-3.11,3.336-3.767,1.668-3.631,5-6.363,5.443-10.689.309-2.982.725-5.9-.476-8.771-2.166-9.285-9.3-14.78-18.585-14.4a6.65,6.65,0,0,0-4.423,1.623C469.357,197.564,471.29,197.239,472.218,196.643Zm1.3,5.08c6.363,2.536,11.27,6.748,12.674,13.829,1.449,7.3-1.646,13.029-6.975,17.709-4.476,3.925-9.994,6.016-15.369,8.334-.143-.377-.287-.755-.423-1.132,5.571-3.729,10.991-7.616,14.327-13.678,4.469-8.13,2.944-16.479-3.714-21.6-3.072-2.363-6.409-2.355-9.994-1.917,2.823-2.823,6.228-2.846,9.481-1.547Zm-2.589,17.43a36.326,36.326,0,0,1-8.386,14.32c-2.325,2.536-4.627,5.141-7.858,6.892a59.077,59.077,0,0,0,6.522-17.716c.951-5.375,2.325-10.847-.4-16.161.226-.491.46-.989.687-1.48,7.609-1.253,11.421,7.367,9.428,14.154Zm-10.568-11.866c.966,16.773-3.457,31.259-17.852,42.687.143-2.876,1.781-3.563,2.612-4.771.921-1.344,2.2-2.468,2.974-3.88,5.322-9.564,8.522-19.6,6.326-30.723.634-2.989,3.276-4.461,5.941-3.306Zm-7.111,3.653h0a21.11,21.11,0,0,1-.4,9.994c-1.714-3.223-3.261-6.431-5.994-8.854-.309-.272.3-.921.845-1.132,1.849.506,3.7-2.567,5.548,0ZM451.2,226.309c-.2,9.164-5.058,15.844-11.346,21.83-4.318,4.114-9.088,7.322-15.339,7.956,7.9-4.808,14.531-10.779,18.3-19.377,4.016-9.179,1.7-17.777-3.042-26.714,7.624,2.77,11.595,8.764,11.436,16.3Zm-9.088,7.322c-3.993,11.723-12.621,19.022-24.669,22.231,6.877-5.767,13.353-11.829,17.6-19.928,4.408-8.394,4.257-16.992,2.106-25.914,5.45,7.073,7.843,15.135,4.959,23.612Zm-9.187-27.96c5.412,11.179,5.812,22.261-1.359,32.874-5.639,8.349-12.44,15.422-22.465,18.524.566-2.159,3-2.695,3.94-4.529,12.123-11.089,16.743-25.439,17.845-41.283.151-2.159-.053-4.34-.091-6.514,1.759-2.174,1.849.377,2.121.936Zm-68.1,67.99h0q-1.438,4.835-2.876,9.662c-.393.687-.793,1.381-1.495,2.612V285.7a18.3,18.3,0,0,1,1.11-7.148,91.89,91.89,0,0,1,7.624-21.921c4.446-9,11.617-15.686,18.343-22.789,9.556-9.134,18.887-18.456,25.884-29.809,3.321-5.382,5.125-11.376,7.307-17.264-.03,7.073-2.3,13.633-4.839,20.079-6.024,15.293-15.927,27.779-28.352,38.354-9.428,8.017-17.626,16.984-22.714,28.458Zm-5.654,88.432h0c-.543,1.336-1.125.778-1.706.038-.008-1.223-.023-2.446-.03-3.669-3.352-11.308-9.036-21.747-12.266-33.1-.121-1.6-.234-3.2-.355-4.8a7.638,7.638,0,0,1,.883-1.011,1.9,1.9,0,0,1,.453-.325c.491.121.589,1.427.725,2.023,1.766,7.715,4.824,15,7.428,22.434,1.653,4.733,3.948,9.262,4.371,14.365h0C358.831,359.4,359,360.749,359.163,362.093Zm-5.707,12.357c.543-10.538-3.82-19.762-7.979-28.979a103.434,103.434,0,0,1-4.62-10.772c0-2.529,1.8-4.763.876-7.541-.385-1.17,1.087-1.125,2.038-.74a110.6,110.6,0,0,0,5.669,15.693c2.876,6.6,5.631,13.248,6.907,20.4l.091,1.042-.657,7.767C354.876,372.261,355.457,374.314,353.457,374.45Zm-39.328-18.728c-12.953,6.265-26.926,8.643-40.974,10.545-9.307,1.261-18.7,1.834-28.013,3.05-11.429,1.495-22.419,4.371-32.24,10.862a43.826,43.826,0,0,1-13.135,6.16C214.487,368.781,232.128,357.76,256,359.7c8.394.679,16.8,1.578,25.273.876,11.036-.913,21.914-2.514,32.451-6.031a1.964,1.964,0,0,1,.317-.687c1.48-.4,2.959-.793,4.439-1.193h0c-.649,2.166-2.446,2.695-4.356,3.057ZM160.2,335.182c28.164-11.255,56.343-11.074,85.193-1.948,16.048,5.073,32.806,8,49.36,11.315,8.87,1.781,17.928.687,26.843-.785,1.381-1.215,3.616-.46,4.824-2.083,1.1.083,2.34-.785,3.284.468l-.045.023c-2.423,1.261-4.741,2.778-7.571,3.019-13.844,4.039-27.764,5.239-41.879,1.4a406.7,406.7,0,0,0-60.011-11.813c-10.425-1.2-20.94.43-31.176,3.125-6.326,1.668-12.674,3.314-19.339,2.566a18.95,18.95,0,0,1-10.409-4.054c-.03-.785.393-1.027.921-1.238Zm.159-1.766c-1.223-2.484,1.215-3,2.355-3.872a53.18,53.18,0,0,1,26.458-10.349c24.646-2.529,48.477,2.627,72.323,7.669,12.561,2.657,24.555,7.141,36.633,11.353a72.634,72.634,0,0,0,14.72,3.223c2.438.045,4.876.083,7.307.128a10.475,10.475,0,0,1-6.19,1.351c-12.719,1.623-24.82-1.487-37.116-4.174-15.709-3.427-31.244-7.42-46.816-11.368-23.831-6.046-47.058-2.989-69.673,6.039ZM371.037,197.64c3.669-2.317,7.617-4.189,11.436-6.258,4.167-1.419,8.183-3.374,12.946-3.238-5.5,3.1-10.893,6.386-16.5,9.27-25.031,12.855-37.818,34.052-41.872,61.2-.332,2.234-1.412,4.371-1.019,6.711h0a15.152,15.152,0,0,1-.717,6.975,9.972,9.972,0,0,1-.611-5.85c-.445-10.47.226-20.8,3.661-30.813C344.889,219.213,356.28,206.947,371.037,197.64Zm-2.385,7.881c7.307-5.488,15.693-9.239,23.529-13.889,2.793-1.661,5.518-3.427,8.281-5.148q5.469-2.661,10.945-5.322c.823-.015,1.638-.023,2.461-.038-1.042,1.721-3.367,2.317-3.918,4.469-9.134,9.164-20.177,15.55-31.41,21.695a53.705,53.705,0,0,0-21.159,21.6c-8.213,14.8-14.969,30.24-18.215,47h0c-.211,2.748-.423,5.5-.627,8.251a9.956,9.956,0,0,1-.921-7.081c.06-28.307,7.179-53.595,31.04-71.53Zm47.45-21.7c-4.839,10.281-10.394,20.1-18.653,28.111a310.307,310.307,0,0,0-25.2,27.869c-5.729,7.088-11.9,13.957-14.667,22.91-3.835,12.4-5.51,25.22-7,38.067-.853,3.978-2.967,7.45-4.469,11.164-1.132-1.268-.657-2.816-.672-4.25-.053-5.571.1-11.157-.083-16.72-.5-14.757,1.321-29.047,7.964-42.453.543-.77,1.147-1.51,1.623-2.325,7.9-13.527,17.339-25.62,30.791-34.172a51.055,51.055,0,0,0,7.911-6.4c5.737-5.526,12.342-10.228,16.682-17.113q2.718-3.533,5.427-7.065c2.151.491.642,1.7.325,2.378ZM344.368,262.1c4.514-12.591,9.564-24.91,16.788-36.233,5.246-8.235,12.44-14.327,20.955-18.992,5.254-2.884,10.4-5.941,15.6-8.915l7.1-6.009c.023-.023.053-.045.075-.068.181-.151.362-.3.536-.46-.128.234-.272.46-.408.694-.038.06-.068.113-.106.174a23.975,23.975,0,0,1-7.171,7.5,146.585,146.585,0,0,1-19.49,16c-9.979,7.073-16.592,17.007-23.151,27a85.415,85.415,0,0,0-5.375,10.085c-5.692,12.961-6.431,26.616-6.084,40.475.166,6.658.6,13.338-.634,19.966-.6.6.34,1.8-.642,2.106-1.223.37-1.261-.853-1.306-1.532-.574-8.628-1.087-17.264-1.615-25.9C340.511,279.255,341.356,270.491,344.368,262.1Zm-11.829,83.268h0c-1-2.28.7-3.5,1.91-4.929C336.676,343.191,333.717,343.931,332.539,345.365Zm64.782-123.713q-4.891,5.163-9.821,10.3c-1.661,1.6-3.306,3.216-4.982,4.793-15.626,14.644-22.782,33.116-24.48,54.063-.423,2.242-2.046,3.737-3.367,5.42-.4.838-.808,1.668-1.2,2.484a1.049,1.049,0,0,1-.861-1.291c1.646-9.926,3-19.906,5.3-29.719,2.582-10.991,9.443-19.46,16.38-27.884a306.72,306.72,0,0,1,23.506-26,75.961,75.961,0,0,0,18.577-28.005c.928-2.453,1.034-2.408,2.582-2.091-2.551,15.3-11.33,27.054-21.634,37.939Zm1.932-44.582c-1.865,1.147-3.948,1.079-5.888,1.495-22.034,4.748-39.132,17.09-52.968,34.437a6.663,6.663,0,0,0-.679,1.464,101,101,0,0,0-7.42,15.429c-.559.921-1.11,1.849-1.706,2.831-1.7-23.627,46.718-62.91,68.662-55.656Zm-66.065,54.236c.121-.264.249-.528.37-.793a.8.8,0,0,0,.317-.717c.015-.038.038-.075.053-.113,4.688-10.628,10.221-20.532,19.324-28.322,15.037-12.863,31.795-21.468,51.685-23.438,1.457-.143,3.012-.045,4.325-.921,1.042-.083,2.083-.159,3.125-.242.574,2.249-2.174,1.781-2.619,3.208q-5.242,2.423-10.477,4.854a69.959,69.959,0,0,0-17.128,5.473c-2.725.544-5,2.1-7.375,3.389a87.413,87.413,0,0,0-32.036,29.538,51.685,51.685,0,0,0-4.627,9.5,8.954,8.954,0,0,0-1.668,4.907h0c-5.269,17.173-3.782,34.406-.438,51.647a295.415,295.415,0,0,1,3.827,29.568c.038.513.038,1.027.053,1.547-1.759.377-1.963-1.253-2.823-1.955-1.261-9.768-4.439-19.09-6.884-28.571-5.133-19.9-4.348-39.366,3-58.562Zm-9.111,75.6q4.178,5.265,8.349,10.523c-4.069-.679-6.061-4.091-8.5-6.748a36.569,36.569,0,0,1-6.1-9.541c.385-.151.762-.3,1.147-.453,1.661,2.106,2.944,4.529,5.11,6.22Zm5.994-5.148q-.759-4.065-1.51-8.122c3,1.834,2.151,5,2.65,7.692,1.729,3.767,2.559,7.805,3.51,11.806.2.838.989,2.265-1.049,2.121a42.769,42.769,0,0,1-3.6-13.5Zm-2.506-8.537a.758.758,0,0,0,.015.121q.544,4.88,1.079,9.768c-2.717-3.872-3.125-8.22-3.05-12.674.415-.143.823-.294,1.238-.438.242,1.079.476,2.151.717,3.231ZM294.7,201.361c12.44,8.771,19.77,20.63,20.781,36.059-1.895.015-1.683-1.759-2.265-2.778-6.62-11.693-15.384-21.279-27.205-27.892a.023.023,0,0,1-.015-.008c-5.05-3.827-10.772-6.25-17.83-7.949,10.092-4.665,18.622-3,26.526,2.574Zm18.366,66.344c-3.087-19.309-9.519-37.116-24.4-50.809-6.62-7.745-14.689-13.029-24.857-14.916-1.253-.234-3.072.423-3.782-1.442h0c7.9-1.064,14.954,1.419,21.725,5.133h0q2,1.347,4.008,2.7c8.666,5.888,17.135,11.949,20.57,22.593q2.129,5.752,4.265,11.512h0c.211-.34.43-.687.642-1.027-.513-3.842-3.095-7.156-2.861-11.187l6,10.123c3.986,17.128,8.439,34.165,8.817,52.047-.506-1.63-1.072-3.253-1.5-4.9-.445-1.706-.755-3.442-1.132-5.163h0c-.37.136-.74.279-1.11.415q1.834,7.371,3.661,14.742c1.789,1.479,1.359,3.986,2.65,5.7-2.574-.136-2.438-2.967-4.054-4.061v-.008a6.132,6.132,0,0,0,.1-.634c-4.71-9.76-7.02-20.17-8.719-30.813Zm-72.746-55.739a48.574,48.574,0,0,1,18.1,2.295c25.552,7.745,40.717,25.069,46.673,50.832q1.517,6.545,3.05,13.089A28.07,28.07,0,0,1,310.581,286h0a28.064,28.064,0,0,1-3.774-7.4c-5.556-14.335-12.765-27.658-23.884-38.513-8.56-8.356-18.034-15.414-29.787-18.63-9.934-2.71-19.422-1.653-28.028,4.446-.7.5-1.3,1.011-2.151.355,1.932-9.451,8.168-13.557,17.354-14.282Zm70.843,97.067c-14.093-15.482-26.209-32.7-41.57-47.081-6.99-6.545-14.35-12.561-22.736-17.188-10.606-5.85-21.627-7.813-33.433-2.174.521-5.1,3.729-7.684,6.643-10.462,1.593-.747,3.178-1.487,4.771-2.234,16.282-2.944,29.923,2.778,42.129,12.984,10.817,9.036,18.5,20.562,25.6,32.549,2.144,3.623,4.514,7.111,6.779,10.659,8.122,14.652,18.471,27.424,31.923,37.577C323.307,320.47,317.322,314.635,311.162,309.034Zm12.523,5.978h0c-8.605-6.952-14.622-16.01-20.442-25.22-.868-1.374-1.729-2.748-2.6-4.129-7.269-12.153-13.912-24.722-23.536-35.3-13.693-15.052-29.643-25.039-51.844-22.449,4.333-4.008,8.953-5.239,13.791-5.948,11.6-1.706,21.445,2.816,30.6,9.1a88.259,88.259,0,0,1,30.889,37.358c6.258,13.927,12.3,27.952,20.185,41.079a19.58,19.58,0,0,0,4.831,5.518q4.7,3.533,9.39,7.073a7.209,7.209,0,0,0,4.1,2.4.728.728,0,0,1,.37,1.23c-.287.226-1-.076-1.517-.143-5.088-3.057-10.168-6.122-14.214-10.576Zm-20.328-1.593h0c-9.36-5.1-16.546-12.75-23.921-20.2-9.081-9.187-17.566-19.053-28.737-25.907a87.3,87.3,0,0,0-22.3-10.04c-8.356-2.31-16.388-1.283-24.4,3.955.77-3.238,1.427-5.322,4.106-6.575,16.916-7.949,32.451-4.34,46.869,5.963,9.9,7.073,18.245,15.973,25.937,25.378,6.975,8.53,15,16.063,22.359,24.223,1.087,1.2,3.253,1.321,4.137,3.057,5.193,4.106,11.028,7.4,15.693,12.191h0c-.453-.174-.913-.34-1.366-.513a155.95,155.95,0,0,1-18.381-11.527Zm24.352,16.056c2.355,1.147,4.929,1.3,7.458,1.578.966.106,1.389.31,1.487.574a10.22,10.22,0,0,1-1.019,1.615h0c-.128-.008-.249-.023-.377-.023-7.971-.257-15.007-3.729-22.2-6.6-18.849-7.518-38.392-13.255-56.682-22.246-8.054-3.955-15.339-9.36-24.118-11.972-12.689-3.782-25.318-5.2-38.166-1.064a9.1,9.1,0,0,1-1.827.151c1.744-5.7,5.911-8.341,10.749-10.024,11.678-4.069,23.1-2.733,34.255,2.1,14.924,6.462,28.745,15.044,43.072,22.638,3.729,1.978,7.473,3.925,11.21,5.888,11.293,7.375,23.136,13.6,36.15,17.392Zm.536,5.443C308.165,331.317,290.23,321.9,272.1,313q28.205,10.474,56.4,20.955C328.418,334.276,328.335,334.6,328.244,334.918ZM193.314,285.1c1.849-6.28,5.239-9.942,10.508-12.078,11.587-4.688,23.046-2.74,34.406.679,16.26,4.891,28.752,15.731,41.14,26.662,1.94,1.714,3.8,3.518,5.669,5.292a7.313,7.313,0,0,1,.679,1.5c-5.8-3.14-11.021-5.933-16.214-8.779-10.862-5.956-21.529-12.3-33.078-16.916-14.667-5.873-28.866-5.828-43.117,3.631Zm-.544,8.552c17.143-5.88,33.568-3.216,49.428,4.642,2.265,1.125,4.71,2.1,7.322,4.967-22.231-8.085-43.555-15.746-65.891-3.087,2.182-3.676,5.609-5.314,9.141-6.522Zm35.056,4.152c19.355,5.163,36.9,14.584,54.961,22.849,12.093,5.533,24.269,11.119,37.3,14.342,2.046.506,4.137.808,6.2,1.2,1.955.2,4.122-.974,5.8.928l-3.94.634h0c-.5-.2-.989-.392-1.487-.589a50.423,50.423,0,0,1-26.194-5.6c-10.779-5.488-22-9.9-33.07-14.644-17.611-8.749-36.5-12.916-55.844-15.218a38.475,38.475,0,0,0-16.864,1.955,44.875,44.875,0,0,0-20.562,9.76c-.649-1.472.725-2.068.785-3.072,14.833-16.026,33-17.845,52.908-12.531Zm-47.194,13.006c4.446-2.921,9.594-4.235,14.508-6.077,6.16-1.245,12.372-2.212,18.645-1.283a222.353,222.353,0,0,1,33.893,7.367c7.82,2.446,15.188,6.046,22.782,9.073a25.334,25.334,0,0,0,4.914,1.857c5.963,2.876,11.927,5.76,18.366,8.87a80.106,80.106,0,0,1-17.633-6.243c-23.906-11.451-49.677-13.5-75.508-15.135-8.439-.528-16.433,1.88-24.065,5.42.34-2.363,2.536-2.831,4.1-3.857Zm17.679.249c11.1-.513,21.959,1.94,32.934,2.914,18.494,1.638,35.493,8.077,52.327,15.331,8.779,3.782,18.169,5.782,27.326,8.47q5.99.657,11.987,1.306a15.248,15.248,0,0,1-10.115.506c-11.323-.876-21.468-5.9-32.112-9.156-25.348-7.76-51.21-12.674-77.75-13.542-4.725-.151-9.489.71-14.229,1.11h0c-8.892.264-16.8,3.435-24.171,8.183a10.212,10.212,0,0,1-2.755,1.646c-.6.151-.068-.755-.128-1.185,10.477-9.315,22.548-14.931,36.678-15.588ZM154.144,336.73a4.847,4.847,0,0,1,3.487.823c7.941,6.062,16.833,5.571,25.809,3.442a180.741,180.741,0,0,1,24.925-4.469c12.614-1.185,24.593,1.812,36.777,4.2,13.112,2.574,26.1,5.548,39.117,8.537,13.527,3.11,27.114,1.253,40.317-3.012,1.819-.589,1.819-.6,1.865.921a54.615,54.615,0,0,1-13.127,4.529,269.515,269.515,0,0,1-55.444.181,82.152,82.152,0,0,1-14.818-2.823c-17.573-5.141-34.784-3.284-51.8,2.71a75.81,75.81,0,0,1-14.976,4.091A31.659,31.659,0,0,1,156.5,352.31c-7.533-4.084-8.3-9.353-2.363-15.573ZM145.6,351.9a6.469,6.469,0,0,1,.385-5.163c.762-1.223,1.963-2.431,2.838-.075,2.416,6.507,8.228,8.424,13.972,10.13,7.133,2.114,14.289,1.321,21.332-.876,5.593-1.744,11.179-3.51,16.8-5.178a70.739,70.739,0,0,1,42.7.732,97.274,97.274,0,0,1-10.123.74c-4.544-.113-8.817,1.457-13.293,1.668-.513.023-1,.777-1.495,1.2-1.079-.664-2.091-.045-3.133.143-9.564,1.736-18.177,6.077-26.986,9.866-10.93,3.472-21.566,1.366-32.029-2.023-5.435-1.766-9.5-5.307-10.976-11.157Zm-.189,5.594c12,10.915,26.194,12.38,41.366,9.534.476-.264.951-.528,1.419-.785l5.541-1.653c.1.143.2.294.294.438l-6.877,5.224c-.242.332-.483.672-.725,1a8.336,8.336,0,0,0-3.45,2.249c-11.21,4.824-21.619,2.355-31.387-3.85-4.212-2.672-6.175-7.383-6.182-12.161Zm26.012,30.217c-2.151-1.955,1.042-3.336.559-5.11-14.961,5.926-27.484-4.612-27.635-18.268,8.575,11.489,20.094,14.071,33.048,12.7,2.046-.649,4.71.151,5.888-2.521h0c.679.03,1.683-.6,1.676.83a34.044,34.044,0,0,1-9.338,8.628c-.838.536-2.891.574-1.774,2.574a35.97,35.97,0,0,0,12.425-10.409c7.466-9.353,17.128-15.452,28.473-19.045.83-.264,1.51-.559,2.234.091-8.432,5.744-15.452,12.968-21.921,20.8a33.846,33.846,0,0,1-18.23,11.512c-2.068.219-4.114.347-5.4-1.789Zm7.994,4.008c-1.857-.913-1.027-1.261.3-1.638a31.161,31.161,0,0,0,15-9.556c8.273-9.421,16.433-18.887,28.179-24.231,13.165-4.152,26.646-3.034,40.068-2.227,12.795.77,25.567,1.336,38.369.325.974-.076,2.189-.657,3.08.785-2.665,1.276-5.518,1.547-8.281,2.038-13.519,2.408-27.092,1.872-40.717.928-19.03-1.329-35.4,4.612-48.651,18.6-5.526,5.835-11.7,10.8-19.339,13.655a20.711,20.711,0,0,1-8.017,1.336Zm23.514,3.253c13.6,3.9,25.144-2.031,36.5-7.752a99.073,99.073,0,0,1,38.717-10.666c2.665-.166,5.329-.468,7.986-.7l9.194-1.812c-2.755,1.729-5.563,3.065-8.787,2.868-7.216,2.355-14.539,4.423-21.619,7.126-11.225,4.28-21.287,10.991-32.21,15.927-4.491,2.031-9.126,4-14.055,4.076-7.6.113-14.025-1.125-15.731-9.066Zm87.684-15.127c-14.4,8.854-29.658,16.139-44.7,23.778a32.249,32.249,0,0,1-24.812,2.317c12.236-3.057,22.744-9.791,33.674-15.535,11.33-5.956,23.529-9.27,35.75-12.6a10.179,10.179,0,0,1,5.307-1.313,11.683,11.683,0,0,1-5.216,3.359Zm-72.957,29.409c-.853-.891-2.34-1.691-1.374-3.389,10.266,4.7,20.464,4.031,30.368-.883,12.183-6.054,24.5-11.851,36.339-18.592-.023.347.1.9-.083,1.019-11.3,7.632-20.819,17.837-33.629,23.28a.107.107,0,0,0-.045.015c-5.7,1.729-11.451,3.231-17.445,3.465-5.352.211-10.281-.9-14.138-4.922Zm19.422,6.386c3.774-1.593,8.054-1.51,11.693-3.555h0a28.136,28.136,0,0,0,10.636-4.929c11.149-8.334,22.163-16.848,33.221-25.3,5-2.657,8.892-6.847,13.633-9.866-.053.521.068,1.162-.189,1.547-4.288,6.439-8.5,12.931-12.984,19.241-8.477,11.927-18.887,21.061-34.271,22.487-5.926.551-11.874.876-17.807,1.306-1.313-.317-2.627-.627-3.933-.944Zm7.866,4.22c-.672-.732-2.061-.521-2.408-1.751a2.466,2.466,0,0,1,.778-.355c2.31-.1,4.62-.219,6.93-.234,18.162-.121,32.572-7.36,43.155-22.283,5.971-8.424,11.059-17.46,17.641-25.454a90.879,90.879,0,0,0,9.481-10.1c.03-.038.06-.068.091-.106a1.835,1.835,0,0,0-.2-.045c-2.476-.574-3.05,2.1-4.71,2.936-1.547.785-2.634,2.34-4.423,2.77-7.262,5.661-15.829,7.684-24.691,8.817q-7.7.985-15.429,1.623c-13.338,1.117-25.174,6.6-36.958,12.365-6.62,3.238-13.459,5.994-20.94,6.522-3.6.257-7.209.287-10.455-2,13.414-7.684,27.13-12.923,42.491-14.976,18.018-2.408,36.392-3.367,53.851-9.307a90.369,90.369,0,0,0,12.1-4.9c1.223-1.759,3.752-1.932,4.763-3.948h-.06s.015-.023.023-.038c-.249-.151-.5-.294-.747-.445C303.4,366.7,290.049,370.064,276.3,371.695c-12.742,1.517-25.31,4.084-38.067,5.42-10.81,1.132-20.494,5.435-29.839,10.689-4.446,2.5-9.156,3.669-14.327,2.416a1.664,1.664,0,0,1,1.646-1.517,34.819,34.819,0,0,0,16.328-6.152c12.432-8.4,26.488-11.27,41-12.591,11.957-1.087,23.9-2.129,35.712-4.454a119.118,119.118,0,0,0,26.473-8.326c2.129-1.306,4.257-2.619,7.352-4.514-1.948,3.555-5.08,4.31-6.567,6.673h0c-.008.015-.023.03-.038.053.015.008.023.015.038.023h0v.008h.068c1.683-.03,2.6-1.5,3.955-2.166,1.721-.845,1.683.249,1.63,1.4,2.551-.521.861,1.095.921,1.827-6.582,6.333-10.666,14.388-15.037,22.2a126.39,126.39,0,0,1-9.292,14.893c-13.444,17.694-31.274,25.039-53.293,22.268Zm22.963.242c1.706-.513,3.435-.959,5.11-1.547,14.7-5.133,24.51-15.678,32.112-28.775,4.3-7.413,8.047-15.15,13.021-22.178,1.019-1.442,1.91-2.612,3.865-1.789h0a2.758,2.758,0,0,0-2.166,2.763c-3.457,6.907-5.488,14.335-7.843,21.642-3.435,8.024-7.05,15.882-13.731,21.944-8.681,7.881-18.8,10.251-30.375,7.941Zm41.494-5.79c-5.239,3.774-10.734,6.665-18.373,5.027,12.923-7.685,20.019-18.728,23.536-32.285.023-.083.045-.159.068-.242q3.08-8.447,6.152-16.9l8.243-16.939c.174-.2.347-.4.521-.6.989.483.838,1.246.506,2.053-5.541,13.67-8.16,28.133-11.595,42.385-1.578,6.56-4.235,12.6-9.058,17.505Zm10.56-5.933c-2.589,2.823-3.155,3.163-6.56,4.2,8.492-12.334,8.545-26.956,12.432-40.438,1.389-4.824,2.853-9.632,4.725-14.342.211,17.648,2.967,35.8-10.591,50.568Zm3.653-1.17c9.375-13.255,9.617-27.665,9.005-42.189-.226-5.473.6-10.847.77-16.275a4.844,4.844,0,0,1,2.687-4.144c-.151,5.057-.377,9.873-.423,14.682-.083,7.956,1.857,15.671,2.921,23.5,1.631,11.957-3.586,20.781-14.954,24.427Zm14.7-8.975c3.888-7.722,2.378-15.331.876-22.948a83.45,83.45,0,0,1-.664-29.9c.921,12.75,4.756,24.9,6.643,37.4,1.1,7.322-1.495,12.765-6.847,15.452Zm9.579-11.587c-2.136-15.308-7.088-30.194-7.5-46.182C349.962,356.182,356.031,377.869,347.893,386.648Zm14.471-34.12c.174,3.027.868,6.477-1.88,9.036a32.374,32.374,0,0,0-2.725-13.867A246.816,246.816,0,0,1,347.4,317.216c.725-.574,1.261-.2,1.661.408,6.877,10.7,12.538,21.914,13.3,34.9Zm2.4-9.1c-.038.944.71,2.695-1.434,2.642-1.872-10.56-6.552-19.913-12.266-28.843a5.177,5.177,0,0,0-2.657-2.3c.083-.936-.521-2.438,1.48-1.766a56.222,56.222,0,0,1,13.067,19.906A26.4,26.4,0,0,1,364.764,343.433Zm2.106-10.387c-.355.71-.234,1.842-1.525,1.721-2.627-8.349-6.628-15.852-13.4-21.627-.438-1.11-3.11-.393-2.151-2.642C359.5,312.785,366.055,321.436,366.87,333.046Zm1.419-8.432c-2.227-.362-1.781-2.589-2.642-3.888-2.008-3.027-3.85-6.152-7.111-8.062a39.927,39.927,0,0,0-3.978-2.642c-4.378-2.234-4.408-2.189-1.623-6.333,8.96,4.159,13.754,11.376,15.354,20.932Zm-7.964-24.193c3.48,3.631,5.329,8.115,7.035,13.957-4.439-4.922-7.3-10.047-13-11.889-.151-.385-.3-.777-.445-1.162l.385-.77c.528-.385,1.449-.257,1.789-.883a1.2,1.2,0,0,0,.128-.619,3.506,3.506,0,0,1,.355-.2c1.714-.876,2.74.491,3.767,1.563Zm5.073-17.3c-.43-.045-.838-.053-.838.559-2.061-.264.1-1.751-.687-2.385h0c4.4-13.814,12.863-24.752,23.838-33.976,17.792-14.954,30.24-33.229,34.837-56.433,3.359,13.119.332,25.22-5.858,36.837-9.723,16.282-24.133,28.179-38.03,40.543A78.294,78.294,0,0,0,365.4,283.127Zm7.307-3.918c-.747.189-1.487.385-2.831.725a22.571,22.571,0,0,1,5.412-6.4c8.6-7.9,17.233-15.739,25.839-23.619A72.275,72.275,0,0,0,415.687,232c0-.008.015-.015.023-.03,9.836-13.746,11.783-29.168,8.945-46.529,9.738,15.135,3.54,46.6-12.025,65.65q-2.876,2.434-5.744,4.869c-.015,0-.03.015-.045.023A9.5,9.5,0,0,0,402.484,259a140.005,140.005,0,0,0-21.551,14.289h0c-3.706.627-5.775,3.54-8.236,5.911Zm48,41.827a93.739,93.739,0,0,0-8.281-23.431c-6.212-11.572-15.837-18.705-28.466-21.951l6.265-.2h.023c14.833,3.925,24.412,13.723,30.451,27.386,3.185,7.216,6.167,14.523,9.239,21.793,7.526,29.432,3.684,58.071-5.186,86.612-4.476,14.418-10.538,27.741-20.079,39.434-.981,1.2-2.038,2.332-3.065,3.5l-.823-.551c1.91-3.948,3.737-7.941,5.744-11.844a50.848,50.848,0,0,0,4.914-14.244c2.068-11.421,5.292-22.532,8.447-33.689,6.816-24.148,6.431-48.484.815-72.821Zm-6.673,75.433c3.661-10.583,3.955-21.929,6.892-32.693.37-1.344.143-3.042,1.963-3.608a137,137,0,0,1-6.786,40.513,130.419,130.419,0,0,0-5.344,21.838c-2.023,13.55-8.885,25.114-15.074,36.92-2.212,4.22-6.22,6.914-10.409,9.239,5.118-10.108,10.409-20.057,14.463-30.587,5.5-13.625,9.5-27.764,14.3-41.623Zm-44.989,90.485c9.889-7.632,20.955-11.21,33.576-11.58,18.079-.521,36.173-1.691,53.467-8.069a72.152,72.152,0,0,0,33.584-24.925L494.192,433c.347.143.687.287,1.034.423-.106,1.917-.136,3.842-1.321,5.571-4.212,17.867-17.037,27.666-32.534,35.207-14.35,6.982-29.394,7.1-44.74,5.669-10.719-1-21.453-2.1-31.8,2.355-4.876,2.1-9.866,3.925-14.8,5.873h0c-1.374,1.132-3.065,1.495-5.276,2.257a8.658,8.658,0,0,1,4.31-3.412Zm1.117,3.1c-.06,2.642-3.095,2.589-4.031,4.431-2.189.883-4.144,2.529-7.36,2,3.706-2.974,7.624-4.582,11.391-6.439ZM680.717,510.6c-1.668,6.22-2.838,6.839-7.707,2.959-19.445-15.512-42.03-21.823-66.382-23.106-8.447-.445-16.682-2.174-24.94-3.782-.453-.151-.906-.3-1.359-.445-.6-.7-2.287-.325-1.97-1.955l3.1-.385c3.955.536,7.828-.279,11.64-1.049,22.314-4.491,43.216.008,63.529,9.338,8.334,3.827,15.331,9.919,23.823,13.391,1.223.5,1.223,1.283,1,2.272-.219.928-.476,1.842-.717,2.763ZM675.9,501.22a134.524,134.524,0,0,0-41.759-19.143,90.964,90.964,0,0,0-34.406-2.265c-6.469.838-12.916,1.819-19.377,2.733-3.971-.936-7.956,1.351-11.927-.068,2.227-2.121,5.3-1.895,7.941-2.416a114.836,114.836,0,0,0,18.041-5.073,111.519,111.519,0,0,1,26.209-6.092c10.878-1.268,20.668,2.453,30.262,6.922a228.02,228.02,0,0,1,25.227,14.3,36.742,36.742,0,0,0,7.533,4.016c2.242.762,2.589,1.487,1.917,3.684-2.212,7.224-3.11,7.8-9.67,3.4Zm11.934-9.632c-1.5,1.7-3.193,1.381-4.8.453-4.129-2.385-8.228-4.808-12.259-7.36a193.783,193.783,0,0,0-26.458-13.776c-14.146-6.167-28.269-4.129-42.43-.211-8.394,2.317-16.358,6.1-25.076,7.33q-6.194,1.551-12.38,3.11a76.885,76.885,0,0,1-25.929-.543c-.076-.393-2.038-1.079-.06-1.1,4.061-.045,8.258-1.48,12.206.823.46.264,1.283-.083,1.932-.151,7.956.1,15.527-2.242,23.242-3.7,9.307-3.5,18.849-6.492,27.877-10.621,15.437-7.058,30.889-6.175,46.771-2.159a98.588,98.588,0,0,1,36.271,17.286,7.081,7.081,0,0,1,1.1,10.621Zm-22.291-67.243s-.068.068-.106.1c-34.935-7.02-66.08.974-93.617,23.559-10.311,8.454-20.291,17.377-31.991,23.989-1.472-.106-2.74,1.223-4.808.491,6.6-5.729,12.025-12.206,17.694-18.449,21.128-23.227,48.673-31.847,78.739-34.527,10.025-.891,20.109-.755,29.953,1.993,5.586.883,10.319,3.721,15.044,6.567-4.016,0-7.284-2.272-10.862-3.593C665.575,424.429,665.56,424.391,665.545,424.346Zm-74.051,19.7c-5.276,5.216-10.591,10.409-15.829,15.663-7.05,7.065-15.724,11.066-25.28,13.331-.778.181-2.416,1.517-2.6-.815,9.27-3.684,16.35-10.387,23.619-16.894a92.1,92.1,0,0,1,20.011-13.074q3.125-1.563,6.243-3.125c-.861,3.133-3.85,3.6-6.16,4.907ZM687.7,466.542c-16.931-13.021-36.769-15.973-57.218-15.376-13.293.385-25.31,6.2-37.169,11.859-6.031,2.876-12.131,5.593-18.147,8.492-4.189,2.023-8.907,2.295-13.142,4.129-1.978,1.1-4.288.71-6.363,1.381-.242-2.431,2.483-.808,3-2.2.951-.181,1.895-.355,2.846-.536,10.847-3.178,19.5-10.025,28.156-16.871,1.283-1.012,2.612-1.97,3.94-2.921,30.768-22.027,70.707-17.218,95.316,11.466-.038.989-.03,1.487-1.23.574Zm3.563,14.516c-1.268.581-2.506-.793-3.548-1.608-17.316-13.384-37.162-19.672-58.781-20.993-7.511-.46-14.539,1.555-21.566,3.955-6.741,2.31-13.557,4.4-20.17,6.439-.257.083-.521.159-.777.242-2.189.679-4.356,1.344-6.484,2.015.762-1.306,3.14-1.51,5-2.317,12.848-5.541,25.129-12.7,39.215-14.878,20.1-3.118,39.026.921,56.984,10.077,5.518,2.816,8.364,7.926,10.893,13.248v.045c-.332,1.276.642,3.125-.755,3.767Zm1.668-13.361c-.272-.06-.536-.128-.808-.189a41.189,41.189,0,0,0-5.375-7.186c-16.909-17.535-50.424-28.858-78.226-16.539A102.551,102.551,0,0,0,586.6,457.2c-5.752,4.529-11.24,9.541-18.26,12.206-1.94,1.827-4.544,2.114-6.892,3l-.385-1.049h0q3.657-1.846,7.315-3.684a56.764,56.764,0,0,0,11.089-9.5c7.979-8.892,16.811-16.667,27.824-21.642a125.063,125.063,0,0,1,35.056-5.1c21.091-.3,36.475,10.191,47.9,27.167,1.766,2.619,3.412,5.6,2.672,9.1Zm-5.337-17.528c-1.185.189-1.676-.476-2.325-1.193-12.674-13.92-28.322-20.849-47.239-19.566-16.358,1.1-32.565,3.11-47.33,11.1-4.62,2.5-9.194,5.073-13.791,7.617-6.62,5.4-12.546,11.61-19.483,16.637a29.391,29.391,0,0,1-8.145,4.514c-1.464,1.887-3.782,2.076-5.782,2.891,1.034-2.4,3.465-2.884,5.443-3.993h0q13.961-10.938,27.93-21.868c.981-1.774,2.9-2.4,4.446-3.4,13.957-9.051,28.488-16.607,45.488-18.2,18.947-1.774,37.682-2.763,54.282,9.172,4.423,4.529,6.046,10.153,6.507,16.3Zm-4.416-22.548c1.064,2.317,2.9,4.333,2.748,7.617-3.065-3.072-5.609-6.235-8.741-8.643-7.828-6.009-17.052-8.273-26.722-9.013-28.322-2.174-54.667,4.318-79.3,18.2-9.043,5.1-16.011,12.583-22.736,20.313-2.144.83-1.525-.249-.876-1.291,5.616-9.013,12.251-17.037,21.612-22.442,20.811-12.032,43.042-20.117,67.009-22.291C654.343,408.426,670.232,414.48,683.178,427.622Zm.053-4.393c-.332.664-.694,1.162-1.48.476-17.067-14.961-36.845-18.275-58.471-13.587a188.4,188.4,0,0,0-50.53,18.3c-10.251,5.578-18.758,12.953-24.865,23.031a64.641,64.641,0,0,1-20.208,21c-2.242.362-4.031,2.944-7.058,1.215,11.429-7.315,19.747-17.566,27.688-27.975,9.949-13.036,23.174-21.2,37.766-27.711a176.027,176.027,0,0,1,48.235-13.5c11.655-1.593,23.023.317,34.12,4.227,7.307,2.574,12.448,7.058,14.788,14.531ZM513.682,445.195c8.854-17.633,16.848-35.886,32.942-48.575,14.8-11.678,32.013-16.562,50.591-17.233,5.85-.211,11.708-.2,17.558-.279-.03,1.578-1.412,1.253-2.265,1.487a182.6,182.6,0,0,1-19.053,4.454c-17.981,2.914-34.973,8.152-48.756,20.864-3.17,2.929-6.711,5.609-7.82,10.145-9.179,9.224-16.32,20.011-23.748,31.568a13.882,13.882,0,0,1,.543-2.423Zm-13.255,31.983c2.7-4.642,5.609-9.134,7.42-14.184a.037.037,0,0,1,.008-.023c4.952-9.692,9.926-19.347,16.245-28.292,10.5-14.878,22.872-26.926,40.611-33.319,18.479-6.665,36.535-14.539,56.584-14.75,12.115-.128,23.861,2.046,34.776,7.639,1.525.785,3.382,1.2,4.174,3.034q-4.314-1.064-8.636-2.129a46.934,46.934,0,0,0-17.377-2.265c-1.887-.732-3.782-.159-5.639.1-12.123,1.638-23.982,4.582-35.886,7.292-6.718,1.193-13.527,1.955-20.1,3.918-4.5.589-8.711,2.2-12.9,3.8-15.059,5.775-26.39,16.011-34.92,29.53-5.7,8.152-9.126,17.415-12.946,26.48l-.362.679c-3.435,4.363-5.827,9.64-11.059,12.485Zm85.05-73.1c-2.076.521-4.152,1.049-6.228,1.57h0c-12.561,3.948-24.639,8.832-33.553,19.075-5.7,6.552-11.059,13.4-16.5,20.17-4.657,5.79-9.217,11.655-14.539,18.388.74-2.665,1.208-4.356,1.653-5.956.045-.166.091-.325.136-.491q3.646-7.518,7.284-15.044c.03-.045.068-.1.1-.143a110.832,110.832,0,0,1,15.543-19.03c9.5-9.217,21.287-13.829,33.659-17.392l5.8-.838q4.71-1.487,6.658-.317h0ZM515.932,464.7c8.266-10.47,16.569-20.917,24.661-31.523,8.228-10.787,18.328-18.954,31.319-23.219,20.57-6.748,41.125-13.572,62.849-15.724,1.706.181,3.412.355,5.118.536,2.438-.37,4.7.393,6.99,1.095a.241.241,0,0,1,.068.023l.679.2a13.974,13.974,0,0,1-6.605.2c-19.626-.611-37.72,6.069-55.942,11.957a53.252,53.252,0,0,0-14.825,7.669,173.788,173.788,0,0,0-32.912,30.942,162.948,162.948,0,0,1-22.064,22.3c-1.283,1.072-2.521,2.687-4.6,1.51.8-1.095,1.593-2.189,2.393-3.291,1.555-.234,2.083-1.661,2.876-2.665Zm-3.9,8.568c10.832-7.534,19.611-17.158,28.1-27.152,10.523-12.387,21.853-24.178,36.248-32.013,16.569-9.021,34.882-13.074,53.4-15.807,8.213-1.208,16.546.03,24.827.06,8,1.087,15.029,4.039,20.283,10.44-6.212-2.114-12.327-4.325-18.766-5.6-12.485-2.468-24.706-.83-36.875,1.9a178.853,178.853,0,0,0-51.262,19.936c-10.538,6.145-17.875,15.437-25.477,24.525-6.3,7.526-12.583,15.082-20.842,20.623a30.222,30.222,0,0,1-10.4,4.627c-.543-.913.287-1.2.77-1.532Zm156.542-75.259a5.62,5.62,0,0,1-4.038-1.155c-23.7-14.622-48.756-14.78-74.406-6.62-14.667,4.665-29.145,9.926-42.838,17.082-1,1.661-3.019,2.023-4.265,3.367.159-2.793,2.453-3.721,4.356-5,8.93-7.33,18.743-12.953,30.1-15.58,13.761-3.178,27.741-5.435,41.26-9.677,18.8-1.162,34.655,5.963,49.836,17.581Zm-.861-3.518c-2.544-.6-4.182-2.529-6.152-3.835-16.124-10.659-34.12-13.867-53.021-13.391-8.7.219-17.369,0-26.043,1.676-25.575,4.944-45.5,17.528-57.7,41.1-.385-.2-1.661,1.215-1.079-.747,5.39-18.086,16.614-30.6,34.61-36.943,10.938-3.85,22.148-6.711,33.274-9.9,22.555-1.857,44.287,1.132,64.729,11.278,5.518,2.733,9.526,6.877,11.383,10.757Zm-87.9-29.7c14.757-4.733,29.409-4.3,44.22.332,12.508,3.91,25.356,6.847,35.282,16.267.944.9,2.257,1.5,2.551,2.974-30.647-17.384-63.77-15.52-97.014-12.78-.151-.476-.3-.944-.453-1.419C569.542,368.365,574.645,366.448,579.823,364.787ZM330.449,556.249c.008-.838.015-1.411.023-1.895a.952.952,0,0,0,.008-.747c5.609-14.848,18.154-21.506,31.8-26.722,13.353-5.1,27.326-7.481,41.5-8.771a71.9,71.9,0,0,0,12.87-1.865c1.095,2.71-1.615,2.378-2.657,2.974-14.69,8.424-31.01,11.519-47.443,14-14.093,2.129-25.144,9.005-33.644,20.276-.649.86-1.442,1.615-2.461,2.748ZM222,524.2c.309.37,2.182.423.506,1.2a9.63,9.63,0,0,1-5.337.966c-.37.166-.732.332-1.095.5a5.415,5.415,0,0,0-3.427.8h0c-2.083.589-4.227,1.027-6.243,1.789-16.72,6.326-29.628,17.943-41.9,30.406-13.346,13.55-17.618,31.115-21.529,48.839.136-.113.279-.226.415-.347a.954.954,0,0,1-.415.347c-2.046,7.5-2.74,15.218-3.8,22.88-3.45,24.835-15.9,42.9-39.215,53.15a100.159,100.159,0,0,1-23.7,7.058c-4.854.06-9.723.6-14.6-.959,2.431-.355,4.869-.717,7.3-1.049C92.2,686.56,109.185,675,118.953,653.188a176.462,176.462,0,0,0,11.217-35.4,260.121,260.121,0,0,1,7.269-28.073h0a125.821,125.821,0,0,1,18.034-32.278c15.467-20.57,35.569-31.53,61.257-32.353,1.759-.287,3.518-.566,5.269-.853Zm-42.876,76.663c-2.438,18.683-3.842,37.675-11.066,55.437-.936,1.8-1.917,3.578-2.808,5.4-4.008,8.22-9.526,14.924-17.649,19.581-6.7,3.842-13.58,7.277-20.434,10.772l-5.624,1.766c-3.253,2.65-7.828,2.159-11.142,4.665-.83-.528-1.117-.936.106-1.464,3.729-1.608,7.428-3.3,11.134-4.959,9.511-5.4,17.852-12.349,25.65-19.928,13.029-12.667,19.8-28.194,21.634-46.28,2.061-20.351,6.084-40.347,13.474-59.536a55.477,55.477,0,0,1,7.7-13.874c2.416-2.265,4.7-4.7,7.3-6.733,1.729-1.351,2.9-3.857,5.729-3.412-2.559,1.54-4.2,4-5.79,6.341-10.689,15.777-15.754,33.41-18.207,52.221Zm26.111-63.015a52.756,52.756,0,0,0-15.2,12.674c-6.416,6.711-9.481,15.218-12.289,23.755a219.937,219.937,0,0,0-10.651,50.666c-1.8,22.087-12.032,39.087-28.82,52.893-8.16,6.711-16.629,12.659-26.443,16.75-9.383,3.91-18.728,3.586-28.247.981.038-.264.068-.476.1-.672a.178.178,0,0,1,.015-.06,24,24,0,0,1,3-.468c15.324-.762,28.692-6.6,40.03-16.584,16.569-14.6,25.839-33.508,30.073-54.923,2.612-13.218,3.865-26.729,9.738-39.124,3.269-5.948,6.552-11.881,9.79-17.852,7.156-13.187,16.924-23.846,30.074-31.281,1.261-.71,2.793-1.117,3.57-2.536a3.661,3.661,0,0,0,.687.226,15.071,15.071,0,0,1,3.223-1.313c1.389-.234.332.725.377,1.155-1.291.37-2.076,1.774-3.555,1.759q-2.729,1.982-5.465,3.963ZM135.046,653.03a79.662,79.662,0,0,0,5.412-18.758c1.608-8.862,2.763-17.8,4.106-26.707.015-.083.023-.166.038-.249h0c3.706-13.716,6.454-28.081,15.422-39.419,12.75-16.124,28-29.583,47.654-37.1,1.63-1.215,3.623-1.359,5.488-1.895h0c-.249,1.9-2.884,1.261-3.246,3.05-.611,0-1.223.008-1.834.015-15.414,7.918-26.548,20.034-34.527,35.252-1.766,3.367-3.638,6.673-5.458,10.009-6.99,11.866-10.07,24.925-11.964,38.4-2.891,20.6-10.251,39.3-24.412,54.871-11.761,12.938-26.314,20.525-43.85,22.132-1.532.143-2.989.249-4.25-.838,22.465-5.858,41.344-16.494,51.406-38.762Zm70.36-128.9a74.242,74.242,0,0,0-45.865,25.514c-10,11.564-18.849,23.959-23.438,38.845-.476,1.54-.9,3.1-1.344,4.657-4.054,9.9-5.375,20.509-7.9,30.8A147.348,147.348,0,0,1,114.929,656.9c-7.05,13.625-17.762,22.993-32.391,27.575A98.855,98.855,0,0,1,47.6,689.1h0c3.193-2.325,7.118-2.272,10.711-3.019,15.9-3.306,28.669-11.459,38.732-24.065,5.646-6,10.674-12.425,13.489-20.3,3.857-10.787,7.662-21.6,11.5-32.391,6.175-17.422,9.458-35.969,20.124-51.64,8.485-11.9,18.23-22.4,31.878-28.518,9.964-3.8,20.17-6.394,30.942-6.152a14.806,14.806,0,0,1,6.7.219c-2.068.438-4.046,1.442-6.265.891Zm-77.886,62.3c-5.714,18.8-12.576,37.192-19.211,55.671-2.453,6.824-7.194,12.146-11.3,17.9l-.053.053q-4.042,4.235-8.092,8.462c-9.473,9.941-21.83,13.859-34.739,16.622-.113-.393-.219-.793-.332-1.185,29.281-13.029,47.292-35.456,55.082-66.3,2.861-11.323,3.85-23.068,8.469-34.006,8.643-20.464,20.487-38.075,40.943-48.492l4.914-2.672a10.894,10.894,0,0,1-4.876,4.544,76.845,76.845,0,0,0-16.177,18.569c-7.405,9.081-11.3,19.883-14.629,30.851ZM207.784,520.1c-4.356,1.057-8.7.121-13.036.03-.143-.423-.294-.853-.438-1.276a36.257,36.257,0,0,1,13.474,1.246Zm-32.459,3.321a17.341,17.341,0,0,1,4.363-.755c1.781-.37,3.555-.747,5.337-1.117a5.617,5.617,0,0,1-4.891,2.136,21.11,21.11,0,0,0-6.93,2.982,101.285,101.285,0,0,0-23.967,12.153c-22.9,15.927-33.787,39.26-39.509,65.559-1.827,8.386-2.906,16.947-6.016,24.993-9.526,24.6-26.646,42.068-50.357,53.3-.876.242-1.744.521-2.634.71-1.812.393-.581-.77-.627-1.268.966-.793,1.932-1.578,2.891-2.37.491-.294.981-.581,1.48-.876,11.413-6.235,19.226-15.89,25.552-26.948,6.363-9.172,9.066-19.664,10.87-30.458,1.457-8.7,2.2-17.528,5.541-25.839a114.427,114.427,0,0,1,30.994-43.4q3.057-2.695,6.107-5.4,10.168-7.8,20.343-15.61a177.241,177.241,0,0,1,21.461-7.8ZM62.973,668.293c9.624-13.323,17.852-27.182,18.871-44.25.687-11.5,1.442-23.038,5.367-34.052,10.228-25.846,30-42.181,54.04-54.274a29.236,29.236,0,0,1,5.533-2.3c-3.721,4.7-9.043,7.518-13.263,11.58a26.681,26.681,0,0,0-6.114,5.307c-20.374,17.611-34.316,38.845-37.524,66.209-1.276,10.878-3.714,21.461-8.839,31.266-1.51,1.253-2.083,3.133-3.118,4.7C73,659.989,67.932,667.364,60.157,673.29c-.015-.015-.038-.023-.053-.038s-.015-.023-.023-.03c.362-1.155.551-1.751.732-2.34q1.076-1.291,2.144-2.582Zm63.891-127.05c-5.684,4.793-12.138,8.553-17.528,13.678C98,565.715,89.06,578.05,84.607,593.268c-.023.076-.045.143-.068.219-.468,1.412-1.034,2.793-1.389,4.235-2.068,8.364-2.461,16.939-3.057,25.476a63.25,63.25,0,0,1-8.96,28.949c-2.823,4.642-5.4,9.428-8.1,14.154-.008.008-.023.015-.03.023-.778.694-1.563,1.381-2.34,2.068-.959-.808-.385-1.608-.068-2.242,7.1-14.093,8.213-29.417,9.338-44.763a126.05,126.05,0,0,1,5.1-28.828c3.654-11.647,11.776-20,19.687-28.632,2.544-2.778,5.744-4.982,7.518-8.447a.4.4,0,0,1-.083.038l.1-.068a.107.107,0,0,1-.015.023c3.737-1.6,6.5-4.657,9.972-6.68,4.748-2.77,9.36-5.775,14.652-7.556ZM57.13,644.643a220.9,220.9,0,0,1-2.483-28.76c-.053-18.554,6.658-34.233,18.411-48.515a76.009,76.009,0,0,1,37.411-25.008c4.3-1.321,8.568-2.778,13.029-3.774-6.3,5.458-13.9,8.749-20.653,13.361-2.717,1.48-5.465,2.9-8.137,4.446-7.556,4.378-14.274,9.738-19.377,16.924-8.975,10.659-13.006,23.385-15.61,36.777-2.2,11.308-1.268,22.683-1.193,34.044h0c.755,2.174.287,4.439.468,6.658h0c-.415.128-.823.257-1.238.393-.211-2.182-.415-4.371-.627-6.552Zm3.646,15.339c-.226-13.467-1.132-26.971-.453-40.392.823-16.29,5.677-31.583,15.392-45.02.657-.664,1.374-1.291,1.97-2a71.135,71.135,0,0,1,20.223-16.214c.6-.34,1.744-1.865,1.653.476C87.8,568.448,76.009,580.012,71.94,596.951c-2.619,10.908-3.608,22.019-4.333,33.161-.679,10.364-2.325,20.517-6.046,30.338-.415-.234-.793-.347-.793-.461ZM47.407,691.927c8.092.928,16.124,2.385,24.223,3.291,7.881.883,14.712,4.831,22.117,7.065,13.814,4.167,27.054,9.957,40.7,14.584,2.287.778,4.423,2.144,6.975,2.046,11.987,4.016,24.118,7.292,36.9,7.262.868,0,2.151-.921,2.566.77-8.575,5.994-15.512,13.829-23.325,20.683-16.939,11.013-34.1,8.122-51.323.808-16.1-7.949-26.314-22.17-37.222-35.5-7.76-9.481-16.9-16.471-28.579-20.132a19.812,19.812,0,0,1-2.242-1.072c3.465-1.223,6.379-.136,9.209.189Zm57.769,11.829c.468.106.928.2,1.381.3A3.961,3.961,0,0,1,105.177,703.756Zm-65.635-9.345a56.269,56.269,0,0,1,27.22,18.69c6.726,8.386,13.5,16.8,21.227,24.337a52.978,52.978,0,0,0,14.69,10.236c6.386,5.02,14,6.786,21.755,8.1a67.191,67.191,0,0,0,14.146.725c1.721-.37,3.435-.732,5.156-1.1.121.37.234.74.347,1.117l-5.088,1.2c-14.471,5.239-27.832,3-40.3-5.835-7.111-5.035-14.38-9.843-21.574-14.757h0a258.642,258.642,0,0,1-18.056-18.894c-8.99-10.485-20.208-17.724-32.95-22.767a74.744,74.744,0,0,1-8.462-3.812A54.4,54.4,0,0,1,39.542,694.4Zm89.836,72.617c-10.032,2.672-19.422,1.064-28.247-4.318-2.091-1.276-4.28-2.37-6.424-3.548a1.118,1.118,0,0,0-.1-.06c-30.36-18.954-54.546-45.835-84.129-65.929,1.54-.838,3.284-.015,4.793.483,16.8,5.533,32.217,13.248,43.736,27.379a110.339,110.339,0,0,0,15.467,15.671h0c8.651,7.768,18.622,13.678,28.405,19.792a37.635,37.635,0,0,0,31.4,4.333c4.189-1.193,8.379-2.385,12.546-3.631,1.132-.34,1.532-.2,1.329.43a5.855,5.855,0,0,1-.377.762c-5.843,3.5-11.761,6.877-18.411,8.651Zm-6.507,67.431c-1-2.28,1.3-2.68,2.28-3.548,8.854-7.828,14.259-17.347,15.429-29.266A125.242,125.242,0,0,1,150,764.975h0q1.834-3.8,3.661-7.617a3.5,3.5,0,0,1-.445.6c.242-.385.483-.777.725-1.17,1.283-1.117,1.178-3.465,3.737-3.9-.853,4.65-3.442,8.673-3.714,13.27-2.3,7.443-3.087,15.158-3.925,22.85-1.48,13.519-5.118,26.133-14.773,36.331a39.944,39.944,0,0,1-12.387,9.119Zm10.84-4.7c2.717-3.185,5.3-5.933,7.564-8.922,6.635-8.756,9.315-19,10.5-29.673a245.308,245.308,0,0,1,4.137-27.024q2.491-7.915,4.975-15.822c1.3-1.547,2.446-3.253,4.325-4.084.785.4.528.9.287,1.374-4.8,9.64-6.258,19.913-5.835,30.549.453,11.5,0,22.812-4.348,33.757-3.993,10.055-10.727,16.78-21.612,19.838Zm28.413-19.528c-2.378,3.623-5.186,6.884-9.194,9.021a95.085,95.085,0,0,0,6.582-15.867c2.385-8.515,2.695-17.233,2.114-25.96-.951-14.2,2.506-27.273,9.292-39.622a5.915,5.915,0,0,1,3.51-2.921c-7.745,14.463-7.5,29.9-6.061,45.518.966,10.56-.242,20.728-6.235,29.832Zm13.255-49.609c2.589,8.824,4.28,17.724,2.453,26.948-1.434,7.239-5.193,13.089-10.485,18.147,4.7-11.2,3.382-22.744,2.521-34.233-.694-9.292-.325-18.426,2.884-27.288.272-3.435,2.129-6.19,4.023-8.953a13.268,13.268,0,0,1-2.1,7.035,34.766,34.766,0,0,0,.687,18.336Zm31.062-71.138c-.513,8.734-2.174,17.06-7.949,24.1a71.766,71.766,0,0,1-6.914,6.809q-4.54,1.914-9.073,3.82a68.241,68.241,0,0,1-22.736-1.872c.272-1.578,1.57-1.019,2.453-1.087a62.7,62.7,0,0,0,12.01-1.963c11.24-3.05,20.434-9.036,26.9-18.894a.8.8,0,0,0,.076-.091c2.438-2.77,2.514-6.484,3.842-9.7a15.638,15.638,0,0,1,.785-6.914,9.52,9.52,0,0,1,.6,5.782ZM202.6,672.248c1.412,7.209,1.827,14.471.128,21.717-4.839,11.481-13.618,18.585-25.129,22.721-6.967,2.5-14.312,2.793-21.521,3.88-1.955-.309-3.9-.611-5.85-.921h0c-2.385.174-4.423-.966-7.39-1.51a9.118,9.118,0,0,1,5.578-.174c19.37-.03,35.267-7.164,46.869-22.985,5.911-8.062,5.737-17.347,5.088-26.684,2.453.332,1.955,2.582,2.227,3.963ZM197.277,655.3c1.261,9.979,2.695,20.011.355,29.983-2.061,8.794-7.835,15.15-14.961,20.215-11.987,8.515-25.3,12.372-40.053,10.477-1.193-.151-2.408-.136-3.616-.189-11.149-2.77-21.544-7.609-32.217-11.67-.6-.559-1.185-1.125-1.781-1.683a37.548,37.548,0,0,1,10.206,2.77A12.465,12.465,0,0,0,119.1,706.4c23.672,1.993,46.582,1.095,63.853-18.645,7.82-8.937,12.651-19.234,12.7-31.4a7.353,7.353,0,0,1,.544-1.91c.762-.227,1.034.37,1.095.861Zm-1.623-82.091-2.015,7.269c-1.079,3.012-.981,6.212-1.449,9.322h0c.053,6.462-.083,12.931.2,19.385.581,13.338,1.766,26.654,2.023,40,.46,23.974-10.266,41.759-32.157,51.36-14.342,6.3-29.953,6.016-45.359,3.435a15.473,15.473,0,0,1-2.982-1.411c7.058-1.3,13.233-2.733,19.49-3.525,19.143-2.431,33.561-12.75,45.775-26.873,6.145-7.1,7.767-15.822,8.251-24.752.876-16.192,1.291-32.4,2.2-48.59.309-5.465.143-11.066,2.083-16.35l1.019-6.069c1.223-2.725,1.706-5.79,4.084-8.945-.5,2.446-.83,4.1-1.162,5.752Zm2.2-13.663a54.2,54.2,0,0,0-6.945,18.909c-2.906,11.293-3.555,22.857-4.031,34.437-.476,11.715-1.117,23.423-1.434,35.139-.408,14.908-8.062,25.529-19.279,34.414-10.077,7.979-21.106,13.361-34,14.863-6.356.74-12.636,2.121-18.962,3.148a11.043,11.043,0,0,1-5.646-.181c.445-1.487,2.3-.551,2.838-1.751,6.077-.694,11.534-3.291,17.113-5.533,8.522-2.642,15.965-7.39,23.5-11.98,10.357-6.311,15.573-16.1,19.536-26.76a9.733,9.733,0,0,0,.468-1.268c.3-.83.6-1.668.883-2.506h0a54.482,54.482,0,0,0,2.114-5.7c3.706-14.659,5.609-29.658,7.466-44.612,2.3-18.524,6.884-36.09,18.3-51.232,4.212-5.586,8.7-11.013,14.591-15.022.657,1.079-.068,1.789-.694,2.491-6.3,7.005-11.187,15.067-15.807,23.144Zm37.011-32.61c-7.126,2.521-13.746,5.827-19.083,11.33q-3.057,3.6-6.122,7.194c-.008.008-.015.023-.03.03l-.362.43c.068-.2.151-.4.226-.6.113-.3.219-.611.34-.906a23.871,23.871,0,0,1,6.318-8.658c.891-1.034,1.774-2.068,2.665-3.095,6.16-3.865,12.5-7.277,19.958-7.851-.664,1.857-2.544,1.638-3.9,2.121Zm8.96-4.982c-.264-.536.106-.762.5-.876,8.485-2.385,16.154-6.477,23.559-11.149-.272,3.1-2.083,5.631-3.155,8.432v.008C257.99,520.915,250.939,521.624,243.821,521.956Zm21.6,11.987v-.015h0c-.853-6.137.83-11.964,2.129-17.837,6.371-14.969,18.132-21.717,33.961-22.261a122.861,122.861,0,0,1,19.921.913c2.393-.476,4.688.287,7.02.544h0c.113.393.226.793.34,1.185-2.068-.091-4.129-.174-6.2-.264-9.368.543-18.788.491-27.507,4.929-6.9,3.51-12.44,8.319-15.927,15.263-4.522,8.99-9.315,17.89-10.613,28.284q-1.563-5.367-3.125-10.742Zm8.454,27.22c-4.031-10.123-3.548-20.215.483-30.179,1.88-4.657,4.091-9.187,6.288-13.708,4.688-9.655,12.817-15.331,22.925-17.369,14.923-3.012,29.983-3.321,44.748,1.517,1.5,1.615,3.835.347,5.45,1.57l1.91.068q5.073,1.608,10.145,3.223h0c-.445,1.117-1.5-.008-2.091.574h0q-3.669-.815-7.33-1.623h0c-12.425-2.159-24.918-3.065-37.373-.664-13.489,2.6-25.952,7.367-34.806,18.713a37.706,37.706,0,0,0-8.885,19.6,55.131,55.131,0,0,0,0,17.784q.906,2.831,1.812,5.669a9.255,9.255,0,0,1-3.276-5.163Zm5.661,6.039c-4.235-10.281-3.555-20.691-.793-31.145q1.959-4.065,3.918-8.122c.385-.634.77-1.261,1.162-1.895h0c2.665-2.7,4.824-5.85,7.926-8.175,15.263-11.444,32.625-14.3,51.111-12.719,3.4.136,6.975-.581,9.881,2.008q-4.371-.249-8.749-.506c-14.81,2.551-29.447,5.639-42.657,13.316-12.742,7.405-18.615,18.675-18.622,33.191,0,9.33,3.359,16.765,12.463,20.842-5.178,2.227-10.349-.083-15.633-6.8Zm6.167-7.684a34.183,34.183,0,0,1,15.392-36.777c14.138-8.553,29.817-12.425,46.212-13.64,2.514-.747,4.959.015,7.45.362a13.259,13.259,0,0,1-6.318,1.14c-12.38,1.97-23.937,6.379-35.078,11.942-12.636,6.318-18.668,17.12-20.072,30.715-.845,8.22,2.514,14.825,9.473,19.785-7.783.589-15.18-5.435-17.052-13.527Zm10.047-3.737c.045-10.938,3.789-20.6,12.908-27.447a41.062,41.062,0,0,1,13.829-6.975c-16.426,14.735-19.951,35.886-4.4,53.376-13.836-.808-22.381-7.677-22.336-18.962Zm18.079,8.424c-6.529-14.327-3.2-28.692,8.922-39.1,10.523-9.036,23.016-12.3,36.611-12.553-12.8,4.491-24.442,10.878-32.5,21.959-8.334,11.459-10.545,24.329-5.171,39.086A22.481,22.481,0,0,1,313.827,564.206Zm7.518-8.877c2.174-18.086,13.512-28.941,29.024-36.2a75.805,75.805,0,0,1,39.841-6.869c6.265.589,12.546,1.079,19.543,1.676-2.438,2.114-4.567,1.766-6.522,1.948-17.347,1.63-34.225,4.99-50.183,12.365-19.913,9.194-28.722,23.514-27.552,45.4-2.891-3.057-4.907-12.093-4.152-18.32Zm6.59,9.028c8.477-15.452,20.14-26.677,38.422-29.319,5.533-.8,11.036-1.834,16.516-2.936,13.474-2.7,26.261-7.186,37.826-14.8,4.627-2.242,9.753-2.627,14.622-3.986.778,1.163-.287,1.374-.936,1.691-14.674,7.186-28.828,15.467-44.62,20.23-8.152,2.453-16.675,2.763-24.857,4.831-14.018,3.54-25.861,10.236-32.187,24.05-1.457,3.185-2.144,6.718-3.178,10.092-2.8-2.914-1.11-6.56-1.6-9.851Zm7.911,20.026c-4.476-4.129-4.642-9.111-3.2-14.614,3.8-14.508,14.652-21.664,27.56-26.677a45.834,45.834,0,0,1,11.564-2.483c16.38-1.812,31.4-7.654,45.858-15.225,7.7-4.038,15.429-8.032,23.144-12.04,3.729-.762,6.726-2.959,9.813-4.99h.008c.6-.166,1.2-.332,1.8-.506,1.117-1.019,2.521-1.4,4.408-1.963a8.6,8.6,0,0,1-3.925,3.4c-5.118,4.423-10.274,8.809-15.346,13.286-13.112,11.58-29.387,15.49-45.8,19.339-10.191,2.385-20.464,4.876-29.772,9.957-11.942,6.522-20.789,15.384-21.8,29.945-.189,2.733-1.11,4.665-4.31,2.582Zm9.587-10.7c-.392.717-.845,1.4-1.306,2.076-.113.166-.37.242-1.064.672A24.29,24.29,0,0,1,349.78,563.4c7.1-7.541,15.98-12.055,25.771-15.142,10.93-3.45,22.11-5.933,33.191-8.756,15.882-4.046,28.511-13.15,39.721-24.639.159-.166.483-.181.725-.264,1.615-1.359,3.231-2.725,4.846-4.084a12.806,12.806,0,0,1-5.1,6.869c-3.45,3.774-6.7,7.737-10.372,11.278-11.881,11.436-26.382,17.55-42.446,20.389-11.247,1.985-22.623,3.382-33.01,8.839-7.284,3.827-13.663,8.424-17.671,15.8Zm-1.751,20.034c-1.653,0-2.1-1.608-2.378-2.936-.785-3.721,1.329-6.824,2.566-10,5.941-15.241,18.554-22.283,33.4-26.1,7.118-1.834,14.456-2.831,21.687-4.2,20.275-3.842,36.777-13.9,49.722-29.945,3.669-4.552,7.624-8.87,11.451-13.293L471.32,497.2c.717.959.143,1.789-.242,2.642a48.592,48.592,0,0,0-4.272,5.9A176.807,176.807,0,0,1,449.8,531.935c-8.356,8.379-17.1,16.169-29.122,18.871-18.645,3.3-37.32,6.311-54.818,14.206-11.444,5.163-17.565,14.184-20.7,25.824-.279,1.027.347,2.868-1.487,2.861Zm43.918-28.9c-4.212.249-8.092,1.8-12.085,2.936-.883.257-2.068,1.88-2.982-.083a45.418,45.418,0,0,1,18.29-8.251c8.507-1.661,16.954-3.586,25.408-5.488a41.431,41.431,0,0,0,4.937-1.766c.6-.045,1.208-.083,1.812-.128q1.959-.951,3.918-1.887l.543,1.132a6.985,6.985,0,0,1-4.016,2.053c-6.394,3.321-13.338,5.141-20.14,7.367-5.412.679-10.432,2.838-15.686,4.122Zm-34.421,37.343c-5.971-3.095-7.194-6.5-5.48-12.923,3.412-12.734,11.942-20.313,23.77-24.873,1.095-1.17,2.529-1.223,4.582-1.57a9.873,9.873,0,0,1-4.529,3.457c-10.9,8.658-17.3,19.377-15.376,33.855.37,2.778-.279,3.45-2.967,2.053ZM370.9,571.211a51.849,51.849,0,0,1,5.692-1.895c2.6-.574,4.952-2.823,7.888-1.268-6.763,4.069-12.183,9.443-15.542,16.63-3.842,8.22-5.752,16.848-4.333,26.254-12.674-11.761-6.061-34.4,6.3-39.728Zm.966,49.677c-2.967-6.039-6.484-11.8-5.661-19.1,1.955-17.279,10.447-29.409,26.9-35.682,3.548-1.351,7.3-2.219,10.6-4.2,10.07-2.423,19.762-5.835,28.209-11.972,4.461-3.246,8.477-7.1,12.817-10.523.694-.551,1.261-2.853,2.9-.951-1.932,1.7-3.155,3.94-4.59,6.024-6.469,8.122-14.078,14.833-23.77,18.871-5.035,2.1-10.2,3.9-15.188,6.1-9,3.971-17.905,8.145-23.816,16.577-8.666,10.387-9.806,22.359-7.254,35.237-.491-.143-1.042-.151-1.155-.37Zm9.972,4.914c-2.023.3-4.288.385-5.473-1.736a22.8,22.8,0,0,1-2.317-7.8c-1.555-10.183.815-19.483,6.2-28.126h0c4.038-4.4,8.251-8.552,13.512-11.564,8.047-4.6,16.682-7.79,25.31-11.036,8.326-4.129,16.094-9,22.042-16.328.679-.838,1.3-1.721,1.94-2.589h.008c.611-.4,1.223-.808,1.864-1.23.242,1.276-1.623,2.219-.37,3.51a2.446,2.446,0,0,0,.332-.657c1.427.279,1.487-.906,1.864-1.744a13.845,13.845,0,0,0,3.314-6.967c2.989-7.745,7.216-14.765,12.478-22.382-2.687,13.285-6.145,25.091-12.84,35.712h0c-6.122,10.349-15.15,17.618-25.107,24a240.893,240.893,0,0,0-22.344,15.784c-8.19,6.673-15.059,14.214-17.392,24.948-.174.785-.377,1.638-1.487,1.6-2.378-12.327,3.51-21.793,10.749-30.73,7.632-9.428,17.928-15.241,28.466-20.706,5.8-3,11.534-6.107,16.335-10.651,2.28-2.151,4.476-4.34,5.292-7.518a.028.028,0,0,1,.008-.023.221.221,0,0,0-.075-.023c-.989-.415-1.6.468-1.932.959-5.661,8.4-14.274,12.742-23.038,16.886-9.036,5.08-18,10.274-24.963,18.207-9.572,10.885-16.328,22.631-11.829,37.917.242.815.876,2.106-.551,2.317Zm8.605-.936c-1.389.868-3.072,2.023-4.537,1.366-1.676-.755.053-2.7-.468-4.061a39.957,39.957,0,0,1,7.118-17.641,60.95,60.95,0,0,1,13.92-13.157c9.119-6.462,18.4-12.7,27.6-19.045a48.044,48.044,0,0,0,14.569-15.2,1.034,1.034,0,0,1,.1-.151c1.827-2.959,3.654-5.918,5.661-9.179.906,2.529-.415,4.544-.778,6.62-2.438,13.844-10.3,24.065-21.559,31.961-4.567,3.208-9,6.726-14.184,8.862-9.338,3.835-14.773,11.225-18.97,19.883a23.017,23.017,0,0,1-8.454,9.753Zm50.379-36.95c-6,3.208-11.964,6.469-18.026,9.549a89.8,89.8,0,0,0-17.815,12.282,1.31,1.31,0,0,1-.136-.083c.279-1.2.423-1.819.566-2.431,3.216-5.307,8.673-7.715,13.761-10.56a115.338,115.338,0,0,0,21.944-15.565c7.934-7.292,12.214-16.524,14.3-26.956,1.095-5.488,1.91-11.081,4.7-16.146.385,10.553,2.2,21.106-.936,31.515-3.706,8.537-10.364,14.131-18.351,18.4Zm-39.856,30.421c.959-1.978,1.472-3.042,1.978-4.1,7.088-7.813,15.912-13.15,25.288-17.724a157.2,157.2,0,0,0,20-11.134c6.952-4.741,12.221-10.764,13.693-19.415h0c2.234-9.685.589-19.468.71-29.2.083-6.658.528-13.255,2.589-19.641.981-5.186,3.2-9.9,5.5-14.591,1.872-1.147,2.234-3.744,4.6-4.68-.332.981-.627,1.834-.921,2.687q-3.272,6.59-6.545,13.172c-1.774,4.28-1.268,8.756-.762,13.119,1.487,12.848,1.525,25.809,3.253,38.649,1.4,10.394-1.736,19.355-9.473,26.586-2.31,1.661-4.544,3.45-6.96,4.944-6.3,3.9-13.353,6.039-20.275,8.454-3.487.6-7.005,1.049-10.3,2.446-8.054,1.427-15.1,5.133-22.389,10.417Zm81.389-118.792a5.6,5.6,0,0,1,1.193,3.691C488.485,516,496.313,527,505.228,537.152c8.975,10.221,13.912,21.966,15.731,35.267a27.055,27.055,0,0,1-7.383,23.295c-6.182,6.56-12.787,12.629-21.378,16-.838,1.578-2.763,1.676-3.888,2.868h0c-2.476.627-4.446,2.657-7.805,2.642,3.125-2.453,6.688-3.269,9.141-5.729l2.65-1.336c8.636-5.873,13.384-14.357,16.441-24.087,3.774-12.017-.377-22.495-6.054-32.7-2.249-4.046-4.673-7.994-7.1-11.942-7.239-11.761-9.9-25.144-13.625-38.158a3.5,3.5,0,0,1,.393-3.737Zm-1.668,8.469c4.416,15.814,9.534,31.319,19.226,44.884a41.459,41.459,0,0,1,3.269,6.137c9.1,18.834,4.522,37.418-12.266,49.956-.543.408-1.049.853-1.57,1.283-1.532.838-3.1,1.623-4.6,2.529a30.548,30.548,0,0,1-24.322,3.412c-8.16-2.076-16.35-4-24.533-5.994a3.415,3.415,0,0,1-1.072-.181c-1.887-.121-4.016.46-5.133-1.932,1.736-.015,3.495-.249,5.088.717q8.243.7,16.486,1.412c5.745,2.106,11.519,2.582,17.362.408,18.781-3.11,37.954-31.153,25.71-53.565-2.929-5.367-5.382-11.006-7.888-16.6-4.469-9.964-6-20.623-7.194-31.349-.687-1.691-.377-3.321.151-5.322a4.271,4.271,0,0,1,1.276,4.2ZM454.2,608.093c16.8-3.238,31.681-20.751,32.617-38.536a69.369,69.369,0,0,0-2.5-23.876,14.917,14.917,0,0,1-.287-2.808c20.645,26.39,13.436,55.4-15.935,66.45-3.344.272-6.665,1.193-10.032.536C456.691,609.588,454.7,610.38,454.2,608.093Zm26.012-74.233c1.789,10.606,4.688,21,4.839,31.9.279,20.54-15.263,36.7-31.41,40.513-5.669,1.336-11.361.287-17.045.506.981-1.366,2.627-1.313,3.986-1.827,7.262-2.74,14.569-5.39,20.313-10.93a.925.925,0,0,1,0-.536v.536c9.27-7.292,12.742-16.969,11.746-28.5-1.132-13.15-2.182-26.307-3.4-39.449a29.933,29.933,0,0,1,2.446-15.95c1.751-3.691,3.563-7.36,5.352-11.036l1,.71c-2.461,11.549.272,22.812,2.166,34.059Zm3.714-47.307c3.872-5.435,7.413-10.1,10.621-14.976,6.288-9.556,10.251-20.17,13.4-31.077,3-10.372,6.96-20.381,10.878-30.413a79.094,79.094,0,0,1,23.71-27.13c8.522-6.235,18.147-9.209,28.534-10.04,4.748-.377,9.519-.513,14.274-.762-.491,1.517-1.955,1.185-3,1.464-8.145,2.182-16.312,4.288-24.239,7.179-16.026,5.85-27.922,15.973-33.878,32.391A236.446,236.446,0,0,1,512.1,440.817c-.853,1.653-2.023,3.269-1.683,5.329q-1.517,4.212-3.035,8.432c-.106.257-.219.506-.325.762q-4.11,8.469-8.213,16.939c-4.1,5.284-7.443,11.353-14.931,14.267Zm26.8.551c-3.148-.732-6.53-.332-10.145-2.189,10.175-1.789,19.445-.309,28.405,2.778,34.459,11.889,57.807,35.486,71.583,68.9,2.823,6.847,6.25,13.482,8.507,21.445-5.027-2.4-7.33-6.167-9.021-10.266-2.385-5.79-4.522-11.693-6.59-17.6a60.5,60.5,0,0,0-12.787-21.657c-19.264-20.653-42.287-34.942-69.953-41.4Zm86.982,94.886c-7.428-3.389-11.572-9.632-14.342-16.984-3.457-9.172-5.624-18.773-9.345-27.862-3.812-9.3-8.832-17.769-16.177-24.744-1.585-1.374-3.163-2.748-4.748-4.122a16.792,16.792,0,0,1,8.575,5.246c9.617,8.047,19.324,16.056,25.522,27.25,4.567,8.251,7.088,17.377,10.508,26.118,2.2,5.631,5.5,10.289,11.346,13.157-3.548,3.11-7.277,3.789-11.33,1.94Zm15.588-4.937c-2.921.543-2.853-2.015-3.487-3.593-6.077-15.2-11.957-30.481-21.544-43.963-17.611-24.759-41.147-40.506-70.979-46.643a74.686,74.686,0,0,0-7.707-.815c-3.216.113-6.439,1.563-9.655.008,2.838-.483,5.51-1.895,8.5-1.578,10.689-1.389,20.336,2.076,29.787,6.416a7.936,7.936,0,0,0,2.974,1.208c19.136,8.424,35.448,20.743,49.851,35.8a130.743,130.743,0,0,1,24.442,36.558,22.979,22.979,0,0,1,2.189,11.934,4.853,4.853,0,0,1-4.371,4.665Zm18.66-5.4c-3.956,1.178-7.926,1.54-11.753-.544-2.4-16.637-11.881-29.809-22.087-42.159-11.912-14.41-25.824-26.9-42.6-35.735-.838-.438-1.729-.785-2.589-1.178a.108.108,0,0,1-.023-.015c-.627-.355-1.261-.71-1.887-1.064,1.2-1.306,2.567-.393,3.842-.249,19.951,2.2,35.35,12.395,48.281,27.182,8.832,10.1,14.674,21.9,20.275,33.893,2.823,6.046,5.744,12.063,10.651,16.8.876,2.1-.725,2.65-2.106,3.057Zm2.408-5.035c-4.891-5.933-8.213-12.817-11.27-19.792-7.9-18.018-18.856-33.629-34.942-45.322a26.729,26.729,0,0,1-2.363-2.272c7.02,2.446,11.61,7.541,16.954,11.542,8.892,8.817,15.324,19.158,20.268,30.677,2.4,5.594,5.035,11.512,10.606,15.112a15.3,15.3,0,0,0,9.232,4.763c2.959.287,2.483,1.97,1.789,3.691a6.221,6.221,0,0,1-10.266,1.6Zm1.359-10.138c-6.25-5.012-9.715-12-12.772-19.068-4.363-10.1-10-19.181-18.177-26.616-1.381-1.427-2.755-2.853-4.137-4.28,10.138,4.257,18.637,10.432,24.5,19.838a136.867,136.867,0,0,1,8.734,16.139,43.81,43.81,0,0,0,6,9.692c2.091,2.574,4.461,4.771,9.036,5-5.5,4.446-9.292,1.261-13.195-.71Zm5.284-6.084c-3.684-4.431-5.986-9.723-8.341-14.939-7.269-16.116-19.785-26.714-35.546-33.923-4.71-2.159-9.224-5.616-14.131-6.288-9.624-1.313-18.366-5.941-28.073-6.6-2.423-.166-4.831-.657-7.247-1-2.695-1.23-5.85-1.246-8.258-3.442,11.9,2,24.08,1.8,35.8,5.125a70.109,70.109,0,0,0,7.654,3.027,6.668,6.668,0,0,0,1.1.249l.159.249.287-.068c8.839,4.25,17.694,8.462,26.511,12.757,16.139,7.858,29.009,19.158,37.109,35.441,2.083,4.182,4.3,8.251,8.975,10.281-7.413,4.944-9.707,6.7-16-.868Zm18.524-3.45c-1.064.906-.015,1.608.332,2.378.015,0,.023,0,.03-.008s.008.113.008.106c-.015-.03-.03-.068-.045-.1-3.155,1.215-5.027-1.019-6.386-3-2.567-3.752-4.6-7.858-7.435-12.833,4.7,2.242,7.783,4.876,11.5,6.4,1.887.77,4.876-.294,5.571,2.166C663.816,544.564,661.144,545.568,659.536,546.942Zm5.9-8.741c-2.906,1.185-5.654.408-8.288-.823-4.733-2.2-9.466-4.8-12.7-8.794-11.821-14.629-27.839-22.887-44.423-30.451-2.823-1.291-5.594-2.695-8.394-4.038.045-.166.091-.34.136-.506,6.454,1.917,12.863,4.016,19.37,5.714,17.392,4.529,32.127,13.24,43.986,26.865,3,3.442,6.19,6.982,11.089,7.964.694.136,1.321.37,1.253,1.276a3.07,3.07,0,0,1-2.038,2.8Z" transform="translate(369.935 1086.23) rotate(-135)" fill="#d6b891" opacity="0.228"/>
</svg>
