<svg xmlns="http://www.w3.org/2000/svg" width="1950.734" height="146.936" viewBox="0 0 1950.734 146.936">
  <path id="Path_1829" data-name="Path 1829" d="M1366.937,832.372a441.563,441.563,0,0,1-120.644-17.278c-32.6-9.274-63.671-25.647-93.716-41.479-16.172-8.52-32.57-17.165-49.346-24.755q-9.651-3.619-19.477-7.087c-32.684-11.51-64.99-15.707-101.695-13.232-32.784,2.224-65.154,9.512-99.42,17.228-11.133,2.513-22.656,5.1-34.355,7.552C773.656,768.966,697.257,772.032,623.37,775c-10.329.415-20.922.842-31.5,1.294-23.234,2.187-46.556,4.7-69.652,7.854-21.877,2.991-46.971,7.2-73.535,11.673-67.83,11.41-152.247,25.6-230.33,26.652-42.774.578-79.227-2.664-111.458-9.927a271.419,271.419,0,0,1-48.956-15.732A197.5,197.5,0,0,1,15.7,772.019l-.4-.314.5.088C92.278,785.7,171.43,790.277,251.2,790.277s157.248-4.423,234.867-8.758c30.66-1.721,62.376-3.493,93.037-4.913q6.352-.3,12.729-.566c24.114-2.262,48.152-4.172,71.776-6.044,37.836-2.991,76.953-6.094,115.341-10.605,27.594-3.242,55.968-9.387,86-15.908,58.167-12.616,118.307-25.659,173.018-16.222,22.518,3.883,44.219,11.787,65.342,21.349,11.925,4.474,23.649,9.047,35.1,13.533,52.1,20.394,101.305,39.645,159.484,44.671,82.633,7.15,153.252-14.966,228.018-38.388,10.442-3.267,21.249-6.66,32.068-9.952,43-13.106,87.885-19.276,131.287-25.257,37.785-5.2,76.84-10.58,114.575-20.495,8.432-2.212,18.3-5.592,28.75-9.16,35.272-12.051,79.164-27.054,107.538-11.41a46.129,46.129,0,0,1,15.632,14.224c4.511,6.471,7.942,14.6,10.228,24.151l.05.2-.2-.05c-77.9-20.067-159.409-7.778-238.234,4.109-12.013,1.809-24.428,3.682-36.529,5.391-49.107,6.924-87.81,24.239-128.786,42.573-25.785,11.535-52.45,23.473-82.218,32.759a379.554,379.554,0,0,1-113.155,16.851Zm-260.312-82.255c15.632,7.225,30.962,15.305,46.078,23.259,30.045,15.833,61.107,32.193,93.665,41.467,80.408,22.882,161.206,23.033,233.66.44,29.743-9.274,56.408-21.211,82.18-32.746,40.99-18.346,79.7-35.674,128.849-42.6,12.1-1.709,24.516-3.581,36.529-5.391,78.787-11.875,160.251-24.164,238.134-4.159-2.275-9.437-5.68-17.466-10.141-23.862a46,46,0,0,0-15.544-14.149c-28.273-15.594-72.115-.6-107.337,11.422-10.455,3.569-20.319,6.949-28.763,9.161-37.748,9.927-76.815,15.305-114.6,20.507-43.4,5.969-88.275,12.151-131.249,25.245-10.819,3.292-21.626,6.685-32.068,9.952-65.04,20.369-126.964,39.758-196.39,39.758-10.392,0-20.947-.44-31.729-1.37-58.217-5.039-107.437-24.3-159.56-44.7-10.379-4.059-20.96-8.205-31.716-12.264ZM16.28,772.132a196.9,196.9,0,0,0,41.769,24.44,271.314,271.314,0,0,0,48.919,15.707c32.206,7.263,68.647,10.505,111.4,9.927,78.071-1.056,162.475-15.255,230.293-26.652,26.564-4.461,51.658-8.683,73.535-11.674,21.475-2.928,43.138-5.315,64.739-7.389-2.6.113-5.2.239-7.791.352-30.673,1.42-62.376,3.2-93.037,4.913-156.507,8.758-318.341,17.818-469.809-9.638Zm981.663-47.838c-43.264,0-88.664,9.839-132.921,19.439C834.978,750.243,806.6,756.4,779,759.642c-38.4,4.511-77.518,7.6-115.354,10.606-21.99,1.747-44.319,3.506-66.749,5.579,8.909-.377,17.781-.729,26.476-1.081,73.874-2.965,150.262-6.044,224.865-21.676,11.7-2.45,23.209-5.039,34.355-7.552,34.279-7.715,66.649-15,99.458-17.228,36.742-2.488,69.087,1.722,101.8,13.244q7.954,2.808,15.808,5.717c-19.98-8.834-40.487-16.072-61.7-19.728a235.482,235.482,0,0,0-40-3.217Z" transform="translate(-15.3 -685.436)" fill="#b19065"/>
</svg>
