<svg xmlns="http://www.w3.org/2000/svg" width="2131.375" height="207.234" viewBox="0 0 2131.375 207.234">
  <path id="Path_1768" data-name="Path 1768" d="M1735.986,327.083h-1.023c-28.725-.581-56.068-8.547-83.576-24.355-24.507-14.079-46.829-32.916-68.418-51.13-32.252-27.2-65.6-55.321-106.479-67.63-25.9-7.786-58.336-6.237-99.135,4.73-35.7,9.6-71.848,24.6-106.811,39.1-23.885,9.9-46.442,19.266-66.205,25.669-96.106,31.187-233.5,35.156-334.11,9.654-16.209-4.108-30.9-8.284-45.1-12.309-30.634-8.7-57.091-16.209-85.153-19.1-30.592-3.139-60.452-.3-93.949,8.921-12.779,3.527-25.461,7.607-37.715,11.562C569.2,264.805,532.245,276.727,490.1,272.536c-31.367-3.126-59.774-15.587-87.255-27.633-17.537-7.69-35.682-15.656-54.657-21.271a479.967,479.967,0,0,0-76.647-16.416,336.085,336.085,0,0,0-78.265-.982c-11.41,1.272-25.047,5.795-39.5,10.594-32.266,10.7-68.833,22.82-92.1,1.881l-.166-.152.207-.083c57.105-21.589,109.148-31.533,159.089-30.385,52.583,1.2,103.008,14.632,154.138,41.062,24.2,12.5,47.244,20.953,70.423,25.821a237.559,237.559,0,0,0,65.735,4.37c44.589-3.015,90.242-17.2,138.565-32.224,71.641-22.267,120.987-9.93,178.119,4.357,27.01,6.749,54.934,13.733,88.1,18.021,52.43,6.763,108.456,12.89,162.948,11.853,60.479-1.148,112.329-10.94,158.508-29.942,16.693-6.874,33.69-14.7,50.121-22.28,37.715-17.385,76.7-35.35,116.091-43.662,21.215-4.481,40.8-5.85,59.843-4.2a175.058,175.058,0,0,1,61.683,17.108c27.647,13.277,53.744,33.953,78.971,53.924,25.033,19.833,50.923,40.343,78.666,54.007a162.65,162.65,0,0,0,43.524,14.757,135.629,135.629,0,0,0,48.42-.042c29.859-5.283,78.749-38.863,130.5-74.434,43.856-30.136,89.219-61.3,131.9-82.442,48.793-24.161,84.917-30.219,110.434-18.519,12.143,5.574,22.073,15.352,29.486,29.085,7.925,14.646,13.277,34.3,15.9,58.377l-.277.042c-4.094-21.3-10.456-38.655-18.933-51.587-7.966-12.143-18.034-20.787-29.957-25.655-13.788-5.643-30.648-6.473-50.107-2.476-17.481,3.582-37.106,10.912-60.009,22.4-42.362,21.243-88.209,52.928-132.562,83.576-65.209,45.059-126.823,87.656-165.05,87.656Zm-295.372-148.26a124.38,124.38,0,0,1,35.959,4.882c40.937,12.309,74.31,40.467,106.576,67.685,21.575,18.2,43.9,37.023,68.377,51.089,27.467,15.794,54.768,23.747,83.451,24.327h1.01c38.13,0,99.716-42.569,164.9-87.614,44.353-30.648,90.214-62.347,132.59-83.6,22.931-11.493,42.583-18.837,60.078-22.419,19.515-4.011,36.429-3.167,50.259,2.489,11.977,4.9,22.1,13.567,30.081,25.766,8.049,12.281,14.2,28.546,18.311,48.378-2.738-22.529-7.952-40.993-15.49-54.934-7.4-13.678-17.274-23.415-29.362-28.96-25.448-11.673-61.489-5.615-110.2,18.519-42.666,21.133-88,52.292-131.857,82.414-26.526,18.228-51.587,35.447-73.9,48.862-25.019,15.047-43.04,23.193-56.718,25.614a136.167,136.167,0,0,1-48.516.042,162.691,162.691,0,0,1-43.593-14.785c-27.771-13.678-53.661-34.2-78.722-54.035-25.213-19.971-51.3-40.633-78.915-53.9a174.884,174.884,0,0,0-61.586-17.08c-19.017-1.646-38.573-.277-59.76,4.191-39.347,8.3-78.334,26.264-116.022,43.648-16.444,7.579-33.442,15.407-50.135,22.281-46.207,19.017-98.1,28.808-158.619,29.956-54.519,1.037-110.559-5.09-162.989-11.852-33.179-4.287-61.116-11.272-88.126-18.021-57.091-14.273-106.41-26.609-177.967-4.37-48.337,15.02-94,29.209-138.62,32.238a237.562,237.562,0,0,1-65.8-4.37c-23.207-4.882-46.262-13.332-70.493-25.849-51.089-26.4-101.472-39.817-154.013-41.02-49.844-1.134-101.777,8.755-158.771,30.274,23.152,20.621,59.539,8.561,91.653-2.088,14.466-4.8,28.117-9.322,39.554-10.594a335.917,335.917,0,0,1,78.334.982,480.681,480.681,0,0,1,76.7,16.43c18.989,5.629,37.148,13.581,54.685,21.285,27.453,12.046,55.846,24.493,87.172,27.619,42.085,4.191,79-7.717,118.1-20.33,12.267-3.955,24.95-8.049,37.729-11.576,33.538-9.239,63.425-12.074,94.045-8.934,28.089,2.89,54.546,10.4,85.194,19.1,14.2,4.038,28.891,8.2,45.1,12.309,100.56,25.475,237.894,21.506,333.958-9.653,19.75-6.4,42.307-15.766,66.177-25.669,33.345-13.83,71.129-29.5,106.852-39.112,23.843-6.417,44.838-9.612,63.342-9.612Z" transform="translate(-61.52 -119.848)" fill="#af7513" opacity="0.655"/>
</svg>
