<svg xmlns="http://www.w3.org/2000/svg" width="211.852" height="22.136" viewBox="0 0 211.852 22.136">
  <g id="ZHP_Logo_V1-01" data-name="ZHP Logo V1-01" transform="translate(-81 -75.9)">
    <g id="Group_12908" data-name="Group 12908" transform="translate(81 76)">
      <path id="Path_1890" data-name="Path 1890" d="M95.028,92.226H81.1l-.1-.157L92.2,76.419c-1.256,0-4.24,0-5.339.052a4.55,4.55,0,0,0-2.774,1.1,18.764,18.764,0,0,0-2.879,3.35l-.209-.1L82.623,76c1.256.1,9.788.052,13.138.052l.052.157-11.2,15.6h3.664a19.5,19.5,0,0,0,2.251-.1c2.408-.262,4.344-2.094,5.862-4.659l.262.1Z" transform="translate(-81 -76)" fill="#c6a163"/>
      <path id="Path_1891" data-name="Path 1891" d="M116.234,97.192c-3.193,0-5.234-2.617-5.234-5.758a5.077,5.077,0,0,1,4.92-5.234c2.408,0,4.292,1.152,4.5,3.716h-7.014V90.7c0,2.565,1.413,4.659,3.978,4.659a3.171,3.171,0,0,0,3.088-1.937l.209.052A4.705,4.705,0,0,1,116.234,97.192Zm-.366-10.626c-1.518,0-2.408,2.251-2.46,3.036,1.2,0,1.78-.052,3.036-.052a2.738,2.738,0,0,0,.942-.157.987.987,0,0,0,.314-.785A1.874,1.874,0,0,0,115.868,86.566Z" transform="translate(-95.297 -80.861)" fill="#c6a163"/>
      <path id="Path_1892" data-name="Path 1892" d="M137.362,88.722c-1.152,0-1.1-.837-1.727-.837-.68,0-1.361.837-1.675,1.78V96.1c.209.576,1.309.576,1.937.68v.209h-5.5v-.209c.68-.052,1.256-.314,1.256-.785v-7.38a.456.456,0,0,0-.209-.471,9.4,9.4,0,0,0-1.047-.576v-.157L133.8,86h.157l-.052,3.141h.052c.314-.733,1.2-3.141,3.141-3.141a1.32,1.32,0,0,1,1.361,1.361A1.289,1.289,0,0,1,137.362,88.722Z" transform="translate(-104.543 -80.766)" fill="#c6a163"/>
      <path id="Path_1893" data-name="Path 1893" d="M151.244,97.244A5.522,5.522,0,0,1,151.3,86.2a5.27,5.27,0,0,1,5.339,5.444A5.532,5.532,0,0,1,151.244,97.244Zm-.1-10.678c-1.78,0-2.774,2.565-2.774,5.13,0,2.669.785,5.182,2.931,5.182,2.094,0,2.774-3.193,2.774-5.287S153.337,86.566,151.139,86.566Z" transform="translate(-111.882 -80.861)" fill="#c6a163"/>
      <path id="Path_1894" data-name="Path 1894" d="M188.849,92.226v-.209a3.347,3.347,0,0,0,2.2-.837A5.759,5.759,0,0,0,191.2,89.3c.052-1.937,0-4.449,0-5.077h-8.323v4.816a5.539,5.539,0,0,0,.209,2.094,2.721,2.721,0,0,0,1.78.837v.209H177.7v-.209a3.485,3.485,0,0,0,1.937-.837,5.776,5.776,0,0,0,.314-2.46c0-.837.052-2.984.052-4.659V79.664a5.779,5.779,0,0,0-.314-2.617,2.975,2.975,0,0,0-1.884-.785v-.209h7.223v.209c-.838.1-2.041.419-2.094,1.78-.052,2.094-.052,5.13-.052,5.705H191.2V78.774a3.125,3.125,0,0,0-.262-1.623,2.343,2.343,0,0,0-1.989-.942V76h7.328v.209a2.418,2.418,0,0,0-1.884.995,8.07,8.07,0,0,0-.209,2.46v9.422a4.53,4.53,0,0,0,.209,1.937,2.526,2.526,0,0,0,1.937.89v.209h-7.485Z" transform="translate(-127.084 -76)" fill="#c6a163"/>
      <path id="Path_1895" data-name="Path 1895" d="M222.918,97.335h-.157V94.98a4.589,4.589,0,0,1-3.612,2.408c-1.937,0-2.827-1.2-2.827-3.4v-5.5a3.568,3.568,0,0,0-.1-1.1c-.209-.523-.942-.576-1.518-.628V86.5h3.978v6.386c0,1.937.419,2.879,1.937,2.879a2.618,2.618,0,0,0,2.2-1.152V88.28a2.734,2.734,0,0,0-.209-1.1,6.161,6.161,0,0,0-1.675-.366v-.262h4.24v8.794a.456.456,0,0,0,.209.471,14.021,14.021,0,0,0,1.256.628V96.6Z" transform="translate(-144.717 -81.004)" fill="#c6a163"/>
      <path id="Path_1896" data-name="Path 1896" d="M245.081,97.04v-.262c.785-.052,1.361-.209,1.361-.68V90.6c0-1.623-.523-2.827-1.989-2.827a2.572,2.572,0,0,0-2.041.995V96.1c.1.576.628.576,1.2.68v.209H238.8v-.209c.68-.052,1.256-.314,1.256-.785V88.56a.456.456,0,0,0-.209-.471,9.73,9.73,0,0,0-1.047-.523v-.157l3.4-1.309h.157v2.46h.052c.68-1.047,1.989-2.46,3.664-2.46,1.78,0,2.722,1.466,2.722,3.455V96.1c0,.471.838.628,1.361.68v.209h-5.077Z" transform="translate(-156.203 -80.813)" fill="#c6a163"/>
      <path id="Path_1897" data-name="Path 1897" d="M272.049,88.594c-.471,0-1.466-.785-2.251-1.256l-.052.1a3.752,3.752,0,0,1,.785,2.2c0,2.408-1.78,3.559-4.711,3.559-.523,0-.89-.1-1.518-.1-.837.052-1.256.471-1.256,1.047,0,.89,1.047,1.1,2.146,1.1H268.7a3.286,3.286,0,0,1,3.507,3.35c0,2.408-2.408,4.449-6.019,4.449-3.4,0-5.287-.942-5.287-2.722,0-1.309,1.466-1.989,2.722-2.617v-.052c-1.466-.209-2.355-1.047-2.355-2.2a2.753,2.753,0,0,1,2.617-2.408v-.052a3.068,3.068,0,0,1-2.094-3.036c0-1.937,1.884-3.455,4.5-3.455a5.781,5.781,0,0,1,3.036.68,1.908,1.908,0,0,0,.785.1c.733,0,1.152-.523,1.884-.523a.984.984,0,0,1,.942.995A.909.909,0,0,1,272.049,88.594Zm-2.669,9.265a6.282,6.282,0,0,0-2.984-.471c-.628,0-1.78.1-2.2.157a2.006,2.006,0,0,0-1.1,1.989c0,1.78,1.832,2.879,3.507,2.879a5.792,5.792,0,0,0,1.884-.262,2.936,2.936,0,0,0,1.78-2.617A1.857,1.857,0,0,0,269.38,97.858Zm-3.245-11.149c-1.361,0-2.094,1.518-2.094,3.088,0,1.78.89,3.036,2.041,3.036,1.466,0,2.146-1.57,2.146-3.245C268.28,88.018,267.652,86.709,266.134,86.709Z" transform="translate(-166.735 -81.004)" fill="#c6a163"/>
      <path id="Path_1898" data-name="Path 1898" d="M288.834,97.192c-3.193,0-5.234-2.617-5.234-5.758a5.077,5.077,0,0,1,4.92-5.234c2.408,0,4.292,1.152,4.5,3.716h-7.014V90.7c0,2.565,1.413,4.659,3.978,4.659a3.171,3.171,0,0,0,3.088-1.937l.209.052A4.705,4.705,0,0,1,288.834,97.192Zm-.366-10.626c-1.518,0-2.408,2.251-2.46,3.036,1.2,0,1.78-.052,3.036-.052a2.738,2.738,0,0,0,.942-.157.988.988,0,0,0,.314-.785A1.874,1.874,0,0,0,288.468,86.566Z" transform="translate(-177.553 -80.861)" fill="#c6a163"/>
      <path id="Path_1899" data-name="Path 1899" d="M309.962,88.722c-1.152,0-1.1-.837-1.727-.837-.68,0-1.361.837-1.675,1.78V96.1c.209.576,1.309.576,1.937.68v.209H303v-.209c.68-.052,1.256-.314,1.256-.785v-7.38a.456.456,0,0,0-.209-.471A9.4,9.4,0,0,0,303,87.57v-.157L306.4,86h.157l-.052,3.141h.052c.314-.733,1.2-3.141,3.141-3.141a1.375,1.375,0,0,1,.262,2.722Z" transform="translate(-186.798 -80.766)" fill="#c6a163"/>
    </g>
    <g id="Group_12909" data-name="Group 12909" transform="translate(211.516 76)">
      <path id="Path_1900" data-name="Path 1900" d="M136,118.776a3.547,3.547,0,0,1-.733,1.2,4.292,4.292,0,0,1-1.047.89,3.645,3.645,0,0,1-1.2.576,5.735,5.735,0,0,1-1.361.314,12.567,12.567,0,0,1-1.466.157,12.755,12.755,0,0,1-1.413.052h-1.2v3.612c0,.471.052.89.052,1.256a1.332,1.332,0,0,0,.262.837,1.949,1.949,0,0,0,.68.576,2.825,2.825,0,0,0,1.413.314v.209h-7.171v-.209a8.37,8.37,0,0,0,1.1-.262,1.487,1.487,0,0,0,.785-.523.78.78,0,0,0,.157-.419,1.952,1.952,0,0,0,.1-.628c0-.262.052-.471.052-.733V115.374a3.962,3.962,0,0,0-.052-.785c-.052-.262-.052-.471-.1-.68s-.1-.366-.209-.419a1.355,1.355,0,0,0-.89-.471,7.509,7.509,0,0,0-1.152-.209V112.6h6.386a18.988,18.988,0,0,1,2.617.157,5.241,5.241,0,0,1,2.146.733,4.518,4.518,0,0,1,1.623,1.518,4.4,4.4,0,0,1,.628,2.355A1.369,1.369,0,0,1,136,118.776Zm-2.774-3.926a4.018,4.018,0,0,0-1.727-1.518,4.158,4.158,0,0,0-1.152-.314,10.162,10.162,0,0,0-1.256-.1,2.781,2.781,0,0,0-.733.052c-.157,0-.314.052-.419.052,0,.1-.052.157-.052.262s-.052.157-.052.262-.052.262-.052.419c0,.209-.052.471-.052.785,0,.523-.052,1.152-.052,1.937v5.077c.628,0,1.2,0,1.727-.052a7.1,7.1,0,0,0,1.518-.314,4.317,4.317,0,0,0,2.984-4.187A4.958,4.958,0,0,0,133.226,114.851Z" transform="translate(-122.6 -112.6)" fill="#c6a163" stroke="#c6a163" stroke-width="0.2"/>
      <path id="Path_1901" data-name="Path 1901" d="M158.223,124.789a.921.921,0,0,1-.68.314,1.616,1.616,0,0,1-.576-.1,2.215,2.215,0,0,1-.366-.262,1.388,1.388,0,0,0-.314-.262c-.1-.1-.262-.1-.471-.1a.75.75,0,0,0-.523.209,4,4,0,0,0-.471.471,7.752,7.752,0,0,0-.419.68c-.1.262-.209.471-.314.733v6.386a.472.472,0,0,0,.314.314c.157.052.314.1.523.157a2.147,2.147,0,0,0,.576.052c.209,0,.366.052.523.052v.209H151v-.209a3.711,3.711,0,0,0,.89-.209.5.5,0,0,0,.366-.523V125.1a.392.392,0,0,0-.052-.262c0-.052-.1-.1-.209-.209a2.122,2.122,0,0,1-.471-.262,2.445,2.445,0,0,0-.523-.262v-.157l2.931-1.152h.157l-.052,3.141h.052c.052-.157.209-.419.366-.785a5.544,5.544,0,0,1,.628-1.047,3.043,3.043,0,0,1,.942-.89,2.087,2.087,0,0,1,1.256-.366,1.461,1.461,0,0,1,.942.314,1.093,1.093,0,0,1,.419.837A1.888,1.888,0,0,1,158.223,124.789Z" transform="translate(-136.135 -117.461)" fill="#c6a163" stroke="#c6a163" stroke-width="0.2"/>
      <path id="Path_1902" data-name="Path 1902" d="M176.007,130.29a5.785,5.785,0,0,1-1.152,1.78,5.469,5.469,0,0,1-1.675,1.2,5.21,5.21,0,0,1-1.989.419,5.86,5.86,0,0,1-1.832-.314,4.8,4.8,0,0,1-1.727-.995,5.822,5.822,0,0,1-1.309-1.78,6.325,6.325,0,0,1-.523-2.512,5.21,5.21,0,0,1,.419-1.989,5.286,5.286,0,0,1,2.827-2.931,5.182,5.182,0,0,1,2.2-.471,5.861,5.861,0,0,1,1.832.314,5.461,5.461,0,0,1,1.675.995,5.214,5.214,0,0,1,1.256,1.675,5.565,5.565,0,0,1,.471,2.355A7.825,7.825,0,0,1,176.007,130.29Zm-1.832-3.873a6,6,0,0,0-.576-1.623,3.718,3.718,0,0,0-.995-1.2,2.544,2.544,0,0,0-1.57-.471,2.01,2.01,0,0,0-1.309.471,3.83,3.83,0,0,0-.995,1.2,7.473,7.473,0,0,0-.628,1.623,7.293,7.293,0,0,0-.209,1.832,11.163,11.163,0,0,0,.157,1.937,4.958,4.958,0,0,0,.576,1.623,3.023,3.023,0,0,0,1.047,1.1,2.862,2.862,0,0,0,1.518.419,2.019,2.019,0,0,0,1.466-.523,3.361,3.361,0,0,0,.942-1.309,6.042,6.042,0,0,0,.523-1.727,10.572,10.572,0,0,0,.157-1.727A5.89,5.89,0,0,0,174.175,126.416Z" transform="translate(-143.188 -117.413)" fill="#c6a163" stroke="#c6a163" stroke-width="0.2"/>
      <path id="Path_1903" data-name="Path 1903" d="M199.011,124.727a.841.841,0,0,1-.576.262,2.354,2.354,0,0,1-.419-.1,5.1,5.1,0,0,1-.576-.262c-.209-.1-.419-.209-.68-.366-.209-.1-.419-.262-.628-.366l-.1.1c.209.366.419.68.576.942a2.5,2.5,0,0,1,.262,1.152,3.015,3.015,0,0,1-1.256,2.669,5.955,5.955,0,0,1-3.4.89,2.549,2.549,0,0,1-.628-.052,3.465,3.465,0,0,0-.785-.052,3.344,3.344,0,0,0-1.152.314.9.9,0,0,0-.419.733.715.715,0,0,0,.209.576,1.559,1.559,0,0,0,.576.366,1.847,1.847,0,0,0,.733.157,3.961,3.961,0,0,0,.785.052h3.612a4,4,0,0,1,1.413.262,2.989,2.989,0,0,1,1.1.68,2.6,2.6,0,0,1,.68.995,3.1,3.1,0,0,1,.262,1.2,3.777,3.777,0,0,1-.419,1.675,5.1,5.1,0,0,1-1.2,1.413,5.53,5.53,0,0,1-1.832.942,9.178,9.178,0,0,1-6.176-.366,2.227,2.227,0,0,1-1.361-1.989,1.582,1.582,0,0,1,.262-.837,2.754,2.754,0,0,1,.628-.733,5.434,5.434,0,0,1,.89-.628,9.107,9.107,0,0,1,.942-.576v-.052a3.734,3.734,0,0,1-1.78-.628,1.688,1.688,0,0,1-.628-1.361,1.363,1.363,0,0,1,.209-.785,2.349,2.349,0,0,1,.576-.68,4.52,4.52,0,0,1,.838-.523,2.382,2.382,0,0,1,1.047-.262v-.052a3.367,3.367,0,0,1-1.518-1.1,3,3,0,0,1-.576-1.884,3.054,3.054,0,0,1,.314-1.361,3.582,3.582,0,0,1,.89-1.1,3.78,3.78,0,0,1,1.361-.733,5.976,5.976,0,0,1,1.727-.262,6.443,6.443,0,0,1,1.518.157,5.554,5.554,0,0,1,1.361.523,1.528,1.528,0,0,0,.471.1h.471a.7.7,0,0,0,.471-.1c.157-.052.262-.1.419-.157.1-.052.262-.1.366-.157a1.529,1.529,0,0,1,.471-.1.867.867,0,0,1,.628.262.966.966,0,0,1,.262.628A.623.623,0,0,1,199.011,124.727Zm-2.2,10.05a1.444,1.444,0,0,0-.628-.628,5.2,5.2,0,0,0-1.256-.366,11.122,11.122,0,0,0-2.041-.1,5.69,5.69,0,0,0-.942.052c-.314.052-.576.052-.785.1a2.481,2.481,0,0,0-1.466.837,2.256,2.256,0,0,0-.419,1.256,2.13,2.13,0,0,0,.419,1.256,2.719,2.719,0,0,0,.995.89,4.609,4.609,0,0,0,1.256.576,5.073,5.073,0,0,0,1.2.157,7.391,7.391,0,0,0,1.152-.052,4.433,4.433,0,0,0,.89-.209,3.172,3.172,0,0,0,1.361-.995,2.339,2.339,0,0,0,.576-1.675A2.454,2.454,0,0,0,196.812,134.777Zm-1.884-9.736a2.412,2.412,0,0,0-.471-.89,2.317,2.317,0,0,0-.785-.628,2.383,2.383,0,0,0-1.047-.262,2,2,0,0,0-.995.262,1.848,1.848,0,0,0-.733.68,3.471,3.471,0,0,0-.471.995,4.082,4.082,0,0,0-.157,1.152,3.11,3.11,0,0,0,.68,2.146,2.185,2.185,0,0,0,1.675.837,2.062,2.062,0,0,0,1.047-.262,2.1,2.1,0,0,0,.785-.733,3.2,3.2,0,0,0,.471-1.047,4.462,4.462,0,0,0,.157-1.2A3.376,3.376,0,0,0,194.928,125.041Z" transform="translate(-153.577 -117.556)" fill="#c6a163" stroke="#c6a163" stroke-width="0.2"/>
      <path id="Path_1904" data-name="Path 1904" d="M218.123,124.789a.921.921,0,0,1-.68.314,1.616,1.616,0,0,1-.576-.1,2.215,2.215,0,0,1-.366-.262,1.388,1.388,0,0,0-.314-.262c-.1-.1-.262-.1-.471-.1a.75.75,0,0,0-.523.209,4,4,0,0,0-.471.471,7.748,7.748,0,0,0-.419.68,4.414,4.414,0,0,0-.314.733v6.386a.472.472,0,0,0,.314.314c.157.052.314.1.523.157a2.147,2.147,0,0,0,.576.052c.209,0,.366.052.523.052v.209H210.9v-.209a3.711,3.711,0,0,0,.89-.209.5.5,0,0,0,.366-.523V125.1a.392.392,0,0,0-.052-.262c0-.052-.1-.1-.209-.209a2.121,2.121,0,0,1-.471-.262,2.445,2.445,0,0,0-.523-.262v-.157l2.931-1.152h.157l-.052,3.141h.052c.052-.157.209-.419.366-.785a5.544,5.544,0,0,1,.628-1.047,3.043,3.043,0,0,1,.942-.89,2.087,2.087,0,0,1,1.256-.366,1.461,1.461,0,0,1,.942.314,1.093,1.093,0,0,1,.419.837A5.335,5.335,0,0,1,218.123,124.789Z" transform="translate(-164.681 -117.461)" fill="#c6a163" stroke="#c6a163" stroke-width="0.2"/>
      <path id="Path_1905" data-name="Path 1905" d="M235.631,132.226a2.2,2.2,0,0,1-.471.733,1.992,1.992,0,0,1-.68.471,2.445,2.445,0,0,1-.89.157,2.151,2.151,0,0,1-1.361-.471,1.817,1.817,0,0,1-.576-1.57H231.6a2.46,2.46,0,0,1-.471.628,3.059,3.059,0,0,1-.733.68,4.018,4.018,0,0,1-.942.523,3.725,3.725,0,0,1-1.1.209,3.535,3.535,0,0,1-.733-.1,1.723,1.723,0,0,1-.68-.366,1.594,1.594,0,0,1-.471-.68,2.556,2.556,0,0,1-.209-.995,1.672,1.672,0,0,1,.523-1.2,5.13,5.13,0,0,1,1.256-1.047c.471-.314.942-.576,1.309-.785s.733-.419.994-.576.523-.314.733-.419a5.7,5.7,0,0,0,.576-.314v-2.3c0-.052-.052-.1-.1-.209s-.157-.209-.262-.366a2.288,2.288,0,0,0-.523-.314,2.086,2.086,0,0,0-.89-.157,3.535,3.535,0,0,0-.733.1l-.628.314a2.989,2.989,0,0,0-.419.366.576.576,0,0,0-.157.314v.995a.723.723,0,0,1-.314.576,1.251,1.251,0,0,1-.733.262.867.867,0,0,1-.628-.262.841.841,0,0,1-.262-.576.731.731,0,0,1,.157-.471c.1-.157.209-.262.314-.419.157-.1.262-.209.419-.314a2.919,2.919,0,0,0,.419-.262c.366-.209.785-.419,1.2-.628s.785-.366,1.152-.523.68-.262.995-.366a2.626,2.626,0,0,1,.733-.157,2.2,2.2,0,0,1,1.1.314,1.957,1.957,0,0,1,.733.733,1.4,1.4,0,0,1,.1.576V130.5a1.845,1.845,0,0,0,.366,1.361,1.154,1.154,0,0,0,.785.314,1.17,1.17,0,0,0,.785-.209,1.034,1.034,0,0,0,.314-.576h.157A1.148,1.148,0,0,1,235.631,132.226Zm-3.978-4.763a8.232,8.232,0,0,1-.994.628c-.419.209-.785.471-1.2.733a5.259,5.259,0,0,0-.995.837,1.518,1.518,0,0,0,0,2.094,1.318,1.318,0,0,0,1.047.471,3.376,3.376,0,0,0,1.047-.157,2.049,2.049,0,0,0,.837-.523.867.867,0,0,0,.262-.628v-3.455Z" transform="translate(-171.877 -117.413)" fill="#c6a163" stroke="#c6a163" stroke-width="0.2"/>
      <path id="Path_1906" data-name="Path 1906" d="M257.858,133.587v-.262a8.609,8.609,0,0,0,.942-.157.421.421,0,0,0,.314-.471V126.94a4,4,0,0,0-.471-2.094,1.719,1.719,0,0,0-1.623-.785,2.015,2.015,0,0,0-1.256.419,8.894,8.894,0,0,0-1.047.995V132.8a.4.4,0,0,0,.1.262.447.447,0,0,0,.314.157c.1.052.262.052.419.1.157,0,.262.052.419.052v.209h-4.4v-.262a8.609,8.609,0,0,0,.942-.157.417.417,0,0,0,.366-.471V126.94a4,4,0,0,0-.471-2.094,1.69,1.69,0,0,0-1.623-.733,2.168,2.168,0,0,0-1.2.314,5.456,5.456,0,0,0-1.047.942V132.8a.852.852,0,0,0,.157.314,1.144,1.144,0,0,0,.262.157.891.891,0,0,0,.366.052c.157,0,.262.052.419.052v.209H245.4v-.209a3.711,3.711,0,0,0,.89-.209.5.5,0,0,0,.366-.523v-7.694a.392.392,0,0,0-.052-.262c0-.052-.1-.1-.209-.209a2.121,2.121,0,0,1-.471-.262,2.445,2.445,0,0,0-.523-.262V123.8l2.931-1.047h.157v2.408h.052a7.988,7.988,0,0,1,.576-.837,3.934,3.934,0,0,1,.837-.785,6.165,6.165,0,0,1,.995-.576,2.852,2.852,0,0,1,1.152-.262,2.21,2.21,0,0,1,1.727.733,3.486,3.486,0,0,1,.837,1.884h.052a5.325,5.325,0,0,1,1.413-1.727,4.278,4.278,0,0,1,1.047-.628,3.105,3.105,0,0,1,1.2-.262,2.3,2.3,0,0,1,1.989.942,4.226,4.226,0,0,1,.68,2.408V132.8a.288.288,0,0,0,.157.262c.1.052.209.157.314.157.1.052.262.052.419.1.157,0,.314.052.419.052v.209Z" transform="translate(-181.123 -117.413)" fill="#c6a163" stroke="#c6a163" stroke-width="0.2"/>
    </g>
  </g>
</svg>
